<?xml version="1.0" encoding="UTF-8" standalone="no"?><svg xmlns="http://www.w3.org/2000/svg" xmlns:xlink="http://www.w3.org/1999/xlink" contentStyleType="text/css" height="1037px" preserveAspectRatio="none" style="width:803px;height:1037px;background:#FFFFFF;" version="1.1" viewBox="0 0 803 1037" width="803px" zoomAndPan="magnify"><defs/><g><!--MD5=[40f884fa81bc3fd050df4ca73dcb9a00]
cluster TransportationFactory--><g id="cluster_TransportationFactory"><path d="M50.5,650 L206.5,650 A3.75,3.75 0 0 1 209,652.5 L216,673.6094 L565.5,673.6094 A2.5,2.5 0 0 1 568,676.1094 L568,1026 A2.5,2.5 0 0 1 565.5,1028.5 L50.5,1028.5 A2.5,2.5 0 0 1 48,1026 L48,652.5 A2.5,2.5 0 0 1 50.5,650 " fill="none" style="stroke:#000000;stroke-width:1.5;"/><line style="stroke:#000000;stroke-width:1.5;" x1="48" x2="216" y1="673.6094" y2="673.6094"/><text fill="#000000" font-family="sans-serif" font-size="14" font-weight="bold" lengthAdjust="spacing" textLength="155" x="52" y="666.5332">TransportationFactory</text></g><!--MD5=[62dd2f5b0db3c5e2069ccafd5b0803fe]
class Transportation--><g id="elem_Transportation"><rect codeLine="5" fill="#F1F1F1" height="153.6563" id="Transportation" rx="2.5" ry="2.5" style="stroke:#181818;stroke-width:0.5;" width="197" x="267.5" y="706"/><ellipse cx="315.25" cy="722" fill="#ADD1B2" rx="11" ry="11" style="stroke:#181818;stroke-width:1.0;"/><path d="M318.0156,717.875 Q318.1719,717.6563 318.3594,717.5469 Q318.5469,717.4375 318.7656,717.4375 Q319.1406,717.4375 319.375,717.7031 Q319.6094,717.9531 319.6094,718.5625 L319.6094,720.0156 Q319.6094,720.625 319.375,720.8906 Q319.1406,721.1563 318.7656,721.1563 Q318.4219,721.1563 318.2188,720.9531 Q318.0156,720.7656 317.9063,720.25 Q317.8594,719.8906 317.6719,719.7031 Q317.3438,719.3281 316.7344,719.1094 Q316.125,718.8906 315.5,718.8906 Q314.7344,718.8906 314.0938,719.2188 Q313.4688,719.5469 312.9688,720.2969 Q312.4844,721.0469 312.4844,722.0781 L312.4844,723.1719 Q312.4844,724.4063 313.375,725.2344 Q314.2656,726.0469 315.8594,726.0469 Q316.7969,726.0469 317.4531,725.7969 Q317.8438,725.6406 318.2656,725.2031 Q318.5313,724.9375 318.6719,724.8594 Q318.8281,724.7813 319.0313,724.7813 Q319.3594,724.7813 319.6094,725.0469 Q319.875,725.2969 319.875,725.6406 Q319.875,725.9844 319.5313,726.3906 Q319.0313,726.9688 318.2344,727.2969 Q317.1563,727.75 315.8594,727.75 Q314.3438,727.75 313.1406,727.125 Q312.1563,726.625 311.4688,725.5625 Q310.7813,724.4844 310.7813,723.2031 L310.7813,722.0469 Q310.7813,720.7188 311.3906,719.5781 Q312.0156,718.4219 313.1094,717.8125 Q314.2031,717.1875 315.4375,717.1875 Q316.1719,717.1875 316.8125,717.3594 Q317.4688,717.5156 318.0156,717.875 Z " fill="#000000"/><text fill="#000000" font-family="sans-serif" font-size="14" lengthAdjust="spacing" textLength="93" x="335.75" y="727.7285">Transportation</text><line style="stroke:#181818;stroke-width:0.5;" x1="268.5" x2="463.5" y1="738" y2="738"/><polygon fill="none" points="278.5,747.3047,282.5,751.3047,278.5,755.3047,274.5,751.3047" style="stroke:#B38D22;stroke-width:1.0;"/><text fill="#000000" font-family="sans-serif" font-size="14" lengthAdjust="spacing" textLength="78" x="287.5" y="756.5332">int: Capacity</text><polygon fill="none" points="278.5,764.9141,282.5,768.9141,278.5,772.9141,274.5,768.9141" style="stroke:#B38D22;stroke-width:1.0;"/><text fill="#000000" font-family="sans-serif" font-size="14" lengthAdjust="spacing" textLength="137" x="287.5" y="774.1426">ColorOfVehicle: Color</text><polygon fill="none" points="278.5,782.5234,282.5,786.5234,278.5,790.5234,274.5,786.5234" style="stroke:#B38D22;stroke-width:1.0;"/><text fill="#000000" font-family="sans-serif" font-size="14" lengthAdjust="spacing" textLength="165" x="287.5" y="791.752">string: VehicleRegistration</text><ellipse cx="278.5" cy="805.1328" fill="none" rx="3" ry="3" style="stroke:#038048;stroke-width:1.0;"/><text fill="#000000" font-family="sans-serif" font-size="14" lengthAdjust="spacing" textLength="171" x="287.5" y="809.3613">WarrantyService: Warranty</text><line style="stroke:#181818;stroke-width:0.5;" x1="268.5" x2="463.5" y1="816.4375" y2="816.4375"/><ellipse cx="278.5" cy="830.7422" fill="#84BE84" rx="3" ry="3" style="stroke:#038048;stroke-width:1.0;"/><text fill="#000000" font-family="sans-serif" font-size="14" lengthAdjust="spacing" textLength="111" x="287.5" y="834.9707">DisplayCapacity()</text><ellipse cx="278.5" cy="848.3516" fill="#84BE84" rx="3" ry="3" style="stroke:#038048;stroke-width:1.0;"/><text fill="#000000" font-family="sans-serif" font-size="14" lengthAdjust="spacing" textLength="90" x="287.5" y="852.5801">DisplayColor()</text></g><polygon fill="none" points="351.9134,859.6563,355.1917,880.5907,341.4213,878.0659" style="stroke:#181818;stroke-width:1.0;"/><line style="stroke:#181818;stroke-width:1.0;" x1="348.3065" x2="348" y1="879.3283" y2="881"/><line style="stroke:#181818;stroke-width:1.0;" x1="464.5" x2="484.65" y1="782.9708" y2="783"/><line style="stroke:#181818;stroke-width:1.0;" x1="366" x2="366" y1="706" y2="685.52"/><line style="stroke:#181818;stroke-width:1.0;" x1="413.2505" x2="425.6" y1="706" y2="685.92"/><line style="stroke:#181818;stroke-width:1.0;" x1="267.5" x2="243.33" y1="723.0086" y2="708.33"/><!--MD5=[73b385a535439346476a1b7d9b97e73e]
class Motorbike--><g id="elem_Motorbike"><rect codeLine="15" fill="#F1F1F1" height="48" id="Motorbike" rx="2.5" ry="2.5" style="stroke:#181818;stroke-width:0.5;" width="94" x="64" y="964.5"/><ellipse cx="79" cy="980.5" fill="#ADD1B2" rx="11" ry="11" style="stroke:#181818;stroke-width:1.0;"/><path d="M81.7656,976.375 Q81.9219,976.1563 82.1094,976.0469 Q82.2969,975.9375 82.5156,975.9375 Q82.8906,975.9375 83.125,976.2031 Q83.3594,976.4531 83.3594,977.0625 L83.3594,978.5156 Q83.3594,979.125 83.125,979.3906 Q82.8906,979.6563 82.5156,979.6563 Q82.1719,979.6563 81.9688,979.4531 Q81.7656,979.2656 81.6563,978.75 Q81.6094,978.3906 81.4219,978.2031 Q81.0938,977.8281 80.4844,977.6094 Q79.875,977.3906 79.25,977.3906 Q78.4844,977.3906 77.8438,977.7188 Q77.2188,978.0469 76.7188,978.7969 Q76.2344,979.5469 76.2344,980.5781 L76.2344,981.6719 Q76.2344,982.9063 77.125,983.7344 Q78.0156,984.5469 79.6094,984.5469 Q80.5469,984.5469 81.2031,984.2969 Q81.5938,984.1406 82.0156,983.7031 Q82.2813,983.4375 82.4219,983.3594 Q82.5781,983.2813 82.7813,983.2813 Q83.1094,983.2813 83.3594,983.5469 Q83.625,983.7969 83.625,984.1406 Q83.625,984.4844 83.2813,984.8906 Q82.7813,985.4688 81.9844,985.7969 Q80.9063,986.25 79.6094,986.25 Q78.0938,986.25 76.8906,985.625 Q75.9063,985.125 75.2188,984.0625 Q74.5313,982.9844 74.5313,981.7031 L74.5313,980.5469 Q74.5313,979.2188 75.1406,978.0781 Q75.7656,976.9219 76.8594,976.3125 Q77.9531,975.6875 79.1875,975.6875 Q79.9219,975.6875 80.5625,975.8594 Q81.2188,976.0156 81.7656,976.375 Z " fill="#000000"/><text fill="#000000" font-family="sans-serif" font-size="14" lengthAdjust="spacing" textLength="62" x="93" y="986.2285">Motorbike</text><line style="stroke:#181818;stroke-width:0.5;" x1="65" x2="157" y1="996.5" y2="996.5"/><line style="stroke:#181818;stroke-width:0.5;" x1="65" x2="157" y1="1004.5" y2="1004.5"/></g><!--MD5=[3f0ef310aaa84a542276992c5216544d]
class Car--><g id="elem_Car"><rect codeLine="18" fill="#F1F1F1" height="48" id="Car" rx="2.5" ry="2.5" style="stroke:#181818;stroke-width:0.5;" width="55" x="193.5" y="964.5"/><ellipse cx="208.5" cy="980.5" fill="#ADD1B2" rx="11" ry="11" style="stroke:#181818;stroke-width:1.0;"/><path d="M211.2656,976.375 Q211.4219,976.1563 211.6094,976.0469 Q211.7969,975.9375 212.0156,975.9375 Q212.3906,975.9375 212.625,976.2031 Q212.8594,976.4531 212.8594,977.0625 L212.8594,978.5156 Q212.8594,979.125 212.625,979.3906 Q212.3906,979.6563 212.0156,979.6563 Q211.6719,979.6563 211.4688,979.4531 Q211.2656,979.2656 211.1563,978.75 Q211.1094,978.3906 210.9219,978.2031 Q210.5938,977.8281 209.9844,977.6094 Q209.375,977.3906 208.75,977.3906 Q207.9844,977.3906 207.3438,977.7188 Q206.7188,978.0469 206.2188,978.7969 Q205.7344,979.5469 205.7344,980.5781 L205.7344,981.6719 Q205.7344,982.9063 206.625,983.7344 Q207.5156,984.5469 209.1094,984.5469 Q210.0469,984.5469 210.7031,984.2969 Q211.0938,984.1406 211.5156,983.7031 Q211.7813,983.4375 211.9219,983.3594 Q212.0781,983.2813 212.2813,983.2813 Q212.6094,983.2813 212.8594,983.5469 Q213.125,983.7969 213.125,984.1406 Q213.125,984.4844 212.7813,984.8906 Q212.2813,985.4688 211.4844,985.7969 Q210.4063,986.25 209.1094,986.25 Q207.5938,986.25 206.3906,985.625 Q205.4063,985.125 204.7188,984.0625 Q204.0313,982.9844 204.0313,981.7031 L204.0313,980.5469 Q204.0313,979.2188 204.6406,978.0781 Q205.2656,976.9219 206.3594,976.3125 Q207.4531,975.6875 208.6875,975.6875 Q209.4219,975.6875 210.0625,975.8594 Q210.7188,976.0156 211.2656,976.375 Z " fill="#000000"/><text fill="#000000" font-family="sans-serif" font-size="14" lengthAdjust="spacing" textLength="23" x="222.5" y="986.2285">Car</text><line style="stroke:#181818;stroke-width:0.5;" x1="194.5" x2="247.5" y1="996.5" y2="996.5"/><line style="stroke:#181818;stroke-width:0.5;" x1="194.5" x2="247.5" y1="1004.5" y2="1004.5"/></g><!--MD5=[f2ba7f6ab60af8dd0d3e354f91729b14]
class Truck--><g id="elem_Truck"><rect codeLine="21" fill="#F1F1F1" height="48" id="Truck" rx="2.5" ry="2.5" style="stroke:#181818;stroke-width:0.5;" width="68" x="284" y="964.5"/><ellipse cx="299" cy="980.5" fill="#ADD1B2" rx="11" ry="11" style="stroke:#181818;stroke-width:1.0;"/><path d="M301.7656,976.375 Q301.9219,976.1563 302.1094,976.0469 Q302.2969,975.9375 302.5156,975.9375 Q302.8906,975.9375 303.125,976.2031 Q303.3594,976.4531 303.3594,977.0625 L303.3594,978.5156 Q303.3594,979.125 303.125,979.3906 Q302.8906,979.6563 302.5156,979.6563 Q302.1719,979.6563 301.9688,979.4531 Q301.7656,979.2656 301.6563,978.75 Q301.6094,978.3906 301.4219,978.2031 Q301.0938,977.8281 300.4844,977.6094 Q299.875,977.3906 299.25,977.3906 Q298.4844,977.3906 297.8438,977.7188 Q297.2188,978.0469 296.7188,978.7969 Q296.2344,979.5469 296.2344,980.5781 L296.2344,981.6719 Q296.2344,982.9063 297.125,983.7344 Q298.0156,984.5469 299.6094,984.5469 Q300.5469,984.5469 301.2031,984.2969 Q301.5938,984.1406 302.0156,983.7031 Q302.2813,983.4375 302.4219,983.3594 Q302.5781,983.2813 302.7813,983.2813 Q303.1094,983.2813 303.3594,983.5469 Q303.625,983.7969 303.625,984.1406 Q303.625,984.4844 303.2813,984.8906 Q302.7813,985.4688 301.9844,985.7969 Q300.9063,986.25 299.6094,986.25 Q298.0938,986.25 296.8906,985.625 Q295.9063,985.125 295.2188,984.0625 Q294.5313,982.9844 294.5313,981.7031 L294.5313,980.5469 Q294.5313,979.2188 295.1406,978.0781 Q295.7656,976.9219 296.8594,976.3125 Q297.9531,975.6875 299.1875,975.6875 Q299.9219,975.6875 300.5625,975.8594 Q301.2188,976.0156 301.7656,976.375 Z " fill="#000000"/><text fill="#000000" font-family="sans-serif" font-size="14" lengthAdjust="spacing" textLength="36" x="313" y="986.2285">Truck</text><line style="stroke:#181818;stroke-width:0.5;" x1="285" x2="351" y1="996.5" y2="996.5"/><line style="stroke:#181818;stroke-width:0.5;" x1="285" x2="351" y1="1004.5" y2="1004.5"/></g><!--MD5=[57ba5c3817724c4287498f1d01d81513]
class Bus--><g id="elem_Bus"><rect codeLine="24" fill="#F1F1F1" height="48" id="Bus" rx="2.5" ry="2.5" style="stroke:#181818;stroke-width:0.5;" width="56" x="387" y="964.5"/><ellipse cx="402" cy="980.5" fill="#ADD1B2" rx="11" ry="11" style="stroke:#181818;stroke-width:1.0;"/><path d="M404.7656,976.375 Q404.9219,976.1563 405.1094,976.0469 Q405.2969,975.9375 405.5156,975.9375 Q405.8906,975.9375 406.125,976.2031 Q406.3594,976.4531 406.3594,977.0625 L406.3594,978.5156 Q406.3594,979.125 406.125,979.3906 Q405.8906,979.6563 405.5156,979.6563 Q405.1719,979.6563 404.9688,979.4531 Q404.7656,979.2656 404.6563,978.75 Q404.6094,978.3906 404.4219,978.2031 Q404.0938,977.8281 403.4844,977.6094 Q402.875,977.3906 402.25,977.3906 Q401.4844,977.3906 400.8438,977.7188 Q400.2188,978.0469 399.7188,978.7969 Q399.2344,979.5469 399.2344,980.5781 L399.2344,981.6719 Q399.2344,982.9063 400.125,983.7344 Q401.0156,984.5469 402.6094,984.5469 Q403.5469,984.5469 404.2031,984.2969 Q404.5938,984.1406 405.0156,983.7031 Q405.2813,983.4375 405.4219,983.3594 Q405.5781,983.2813 405.7813,983.2813 Q406.1094,983.2813 406.3594,983.5469 Q406.625,983.7969 406.625,984.1406 Q406.625,984.4844 406.2813,984.8906 Q405.7813,985.4688 404.9844,985.7969 Q403.9063,986.25 402.6094,986.25 Q401.0938,986.25 399.8906,985.625 Q398.9063,985.125 398.2188,984.0625 Q397.5313,982.9844 397.5313,981.7031 L397.5313,980.5469 Q397.5313,979.2188 398.1406,978.0781 Q398.7656,976.9219 399.8594,976.3125 Q400.9531,975.6875 402.1875,975.6875 Q402.9219,975.6875 403.5625,975.8594 Q404.2188,976.0156 404.7656,976.375 Z " fill="#000000"/><text fill="#000000" font-family="sans-serif" font-size="14" lengthAdjust="spacing" textLength="24" x="416" y="986.2285">Bus</text><line style="stroke:#181818;stroke-width:0.5;" x1="388" x2="442" y1="996.5" y2="996.5"/><line style="stroke:#181818;stroke-width:0.5;" x1="388" x2="442" y1="1004.5" y2="1004.5"/></g><!--MD5=[fd8f06804651a767af6d5ee4693cdfe7]
class Coach--><g id="elem_Coach"><rect codeLine="27" fill="#F1F1F1" height="48" id="Coach" rx="2.5" ry="2.5" style="stroke:#181818;stroke-width:0.5;" width="73" x="478.5" y="964.5"/><ellipse cx="493.5" cy="980.5" fill="#ADD1B2" rx="11" ry="11" style="stroke:#181818;stroke-width:1.0;"/><path d="M496.2656,976.375 Q496.4219,976.1563 496.6094,976.0469 Q496.7969,975.9375 497.0156,975.9375 Q497.3906,975.9375 497.625,976.2031 Q497.8594,976.4531 497.8594,977.0625 L497.8594,978.5156 Q497.8594,979.125 497.625,979.3906 Q497.3906,979.6563 497.0156,979.6563 Q496.6719,979.6563 496.4688,979.4531 Q496.2656,979.2656 496.1563,978.75 Q496.1094,978.3906 495.9219,978.2031 Q495.5938,977.8281 494.9844,977.6094 Q494.375,977.3906 493.75,977.3906 Q492.9844,977.3906 492.3438,977.7188 Q491.7188,978.0469 491.2188,978.7969 Q490.7344,979.5469 490.7344,980.5781 L490.7344,981.6719 Q490.7344,982.9063 491.625,983.7344 Q492.5156,984.5469 494.1094,984.5469 Q495.0469,984.5469 495.7031,984.2969 Q496.0938,984.1406 496.5156,983.7031 Q496.7813,983.4375 496.9219,983.3594 Q497.0781,983.2813 497.2813,983.2813 Q497.6094,983.2813 497.8594,983.5469 Q498.125,983.7969 498.125,984.1406 Q498.125,984.4844 497.7813,984.8906 Q497.2813,985.4688 496.4844,985.7969 Q495.4063,986.25 494.1094,986.25 Q492.5938,986.25 491.3906,985.625 Q490.4063,985.125 489.7188,984.0625 Q489.0313,982.9844 489.0313,981.7031 L489.0313,980.5469 Q489.0313,979.2188 489.6406,978.0781 Q490.2656,976.9219 491.3594,976.3125 Q492.4531,975.6875 493.6875,975.6875 Q494.4219,975.6875 495.0625,975.8594 Q495.7188,976.0156 496.2656,976.375 Z " fill="#000000"/><text fill="#000000" font-family="sans-serif" font-size="14" lengthAdjust="spacing" textLength="41" x="507.5" y="986.2285">Coach</text><line style="stroke:#181818;stroke-width:0.5;" x1="479.5" x2="550.5" y1="996.5" y2="996.5"/><line style="stroke:#181818;stroke-width:0.5;" x1="479.5" x2="550.5" y1="1004.5" y2="1004.5"/></g><!--MD5=[8c10281b17c6e68966c9bb5727c84109]
class WarrantyService--><g id="elem_WarrantyService"><rect codeLine="31" fill="#F1F1F1" height="206.4844" id="WarrantyService" rx="2.5" ry="2.5" style="stroke:#181818;stroke-width:0.5;" width="212" x="584" y="680"/><ellipse cx="633.25" cy="696" fill="#ADD1B2" rx="11" ry="11" style="stroke:#181818;stroke-width:1.0;"/><path d="M636.0156,691.875 Q636.1719,691.6563 636.3594,691.5469 Q636.5469,691.4375 636.7656,691.4375 Q637.1406,691.4375 637.375,691.7031 Q637.6094,691.9531 637.6094,692.5625 L637.6094,694.0156 Q637.6094,694.625 637.375,694.8906 Q637.1406,695.1563 636.7656,695.1563 Q636.4219,695.1563 636.2188,694.9531 Q636.0156,694.7656 635.9063,694.25 Q635.8594,693.8906 635.6719,693.7031 Q635.3438,693.3281 634.7344,693.1094 Q634.125,692.8906 633.5,692.8906 Q632.7344,692.8906 632.0938,693.2188 Q631.4688,693.5469 630.9688,694.2969 Q630.4844,695.0469 630.4844,696.0781 L630.4844,697.1719 Q630.4844,698.4063 631.375,699.2344 Q632.2656,700.0469 633.8594,700.0469 Q634.7969,700.0469 635.4531,699.7969 Q635.8438,699.6406 636.2656,699.2031 Q636.5313,698.9375 636.6719,698.8594 Q636.8281,698.7813 637.0313,698.7813 Q637.3594,698.7813 637.6094,699.0469 Q637.875,699.2969 637.875,699.6406 Q637.875,699.9844 637.5313,700.3906 Q637.0313,700.9688 636.2344,701.2969 Q635.1563,701.75 633.8594,701.75 Q632.3438,701.75 631.1406,701.125 Q630.1563,700.625 629.4688,699.5625 Q628.7813,698.4844 628.7813,697.2031 L628.7813,696.0469 Q628.7813,694.7188 629.3906,693.5781 Q630.0156,692.4219 631.1094,691.8125 Q632.2031,691.1875 633.4375,691.1875 Q634.1719,691.1875 634.8125,691.3594 Q635.4688,691.5156 636.0156,691.875 Z " fill="#000000"/><text fill="#000000" font-family="sans-serif" font-size="14" lengthAdjust="spacing" textLength="105" x="653.75" y="701.7285">WarrantyService</text><line style="stroke:#181818;stroke-width:0.5;" x1="585" x2="795" y1="712" y2="712"/><rect fill="none" height="6" style="stroke:#C82930;stroke-width:1.0;" width="6" x="592" y="723.3047"/><text fill="#000000" font-family="sans-serif" font-size="14" lengthAdjust="spacing" textLength="103" x="604" y="730.5332">bool: IsWarranty</text><rect fill="none" height="6" style="stroke:#C82930;stroke-width:1.0;" width="6" x="592" y="740.9141"/><text fill="#000000" font-family="sans-serif" font-size="14" lengthAdjust="spacing" textLength="93" x="604" y="748.1426">int: KilometLeft</text><rect fill="none" height="6" style="stroke:#C82930;stroke-width:1.0;" width="6" x="592" y="758.5234"/><text fill="#000000" font-family="sans-serif" font-size="14" lengthAdjust="spacing" textLength="186" x="604" y="765.752">WarrantyHistory: WarrantyHis</text><line style="stroke:#181818;stroke-width:0.5;" x1="585" x2="795" y1="772.8281" y2="772.8281"/><rect fill="#F24D5C" height="6" style="stroke:#C82930;stroke-width:1.0;" width="6" x="592" y="784.1328"/><text fill="#000000" font-family="sans-serif" font-size="14" lengthAdjust="spacing" textLength="158" x="604" y="791.3613">ChangeWarrantyStatus()</text><ellipse cx="595" cy="804.7422" fill="#84BE84" rx="3" ry="3" style="stroke:#038048;stroke-width:1.0;"/><text fill="#000000" font-family="sans-serif" font-size="14" lengthAdjust="spacing" textLength="114" x="604" y="808.9707">ShowKilometLeft()</text><ellipse cx="595" cy="822.3516" fill="#84BE84" rx="3" ry="3" style="stroke:#038048;stroke-width:1.0;"/><text fill="#000000" font-family="sans-serif" font-size="14" lengthAdjust="spacing" textLength="125" x="604" y="826.5801">UpdateKilometLeft()</text><ellipse cx="595" cy="839.9609" fill="#84BE84" rx="3" ry="3" style="stroke:#038048;stroke-width:1.0;"/><text fill="#000000" font-family="sans-serif" font-size="14" lengthAdjust="spacing" textLength="68" x="604" y="844.1895">Warranty()</text><ellipse cx="595" cy="857.5703" fill="#84BE84" rx="3" ry="3" style="stroke:#038048;stroke-width:1.0;"/><text fill="#000000" font-family="sans-serif" font-size="14" lengthAdjust="spacing" textLength="96" x="604" y="861.7988">DisplayStatus()</text><ellipse cx="595" cy="875.1797" fill="#84BE84" rx="3" ry="3" style="stroke:#038048;stroke-width:1.0;"/><text fill="#000000" font-family="sans-serif" font-size="14" lengthAdjust="spacing" textLength="157" x="604" y="879.4082">DisplayWarrantyHistory()</text></g><!--MD5=[ece216030850a4dcfe198db7e9e6ce52]
class WarrantyHistory--><g id="elem_WarrantyHistory"><rect codeLine="44" fill="#F1F1F1" height="83.2188" id="WarrantyHistory" rx="2.5" ry="2.5" style="stroke:#181818;stroke-width:0.5;" width="183" x="598.5" y="947"/><ellipse cx="636" cy="963" fill="#ADD1B2" rx="11" ry="11" style="stroke:#181818;stroke-width:1.0;"/><path d="M638.7656,958.875 Q638.9219,958.6563 639.1094,958.5469 Q639.2969,958.4375 639.5156,958.4375 Q639.8906,958.4375 640.125,958.7031 Q640.3594,958.9531 640.3594,959.5625 L640.3594,961.0156 Q640.3594,961.625 640.125,961.8906 Q639.8906,962.1563 639.5156,962.1563 Q639.1719,962.1563 638.9688,961.9531 Q638.7656,961.7656 638.6563,961.25 Q638.6094,960.8906 638.4219,960.7031 Q638.0938,960.3281 637.4844,960.1094 Q636.875,959.8906 636.25,959.8906 Q635.4844,959.8906 634.8438,960.2188 Q634.2188,960.5469 633.7188,961.2969 Q633.2344,962.0469 633.2344,963.0781 L633.2344,964.1719 Q633.2344,965.4063 634.125,966.2344 Q635.0156,967.0469 636.6094,967.0469 Q637.5469,967.0469 638.2031,966.7969 Q638.5938,966.6406 639.0156,966.2031 Q639.2813,965.9375 639.4219,965.8594 Q639.5781,965.7813 639.7813,965.7813 Q640.1094,965.7813 640.3594,966.0469 Q640.625,966.2969 640.625,966.6406 Q640.625,966.9844 640.2813,967.3906 Q639.7813,967.9688 638.9844,968.2969 Q637.9063,968.75 636.6094,968.75 Q635.0938,968.75 633.8906,968.125 Q632.9063,967.625 632.2188,966.5625 Q631.5313,965.4844 631.5313,964.2031 L631.5313,963.0469 Q631.5313,961.7188 632.1406,960.5781 Q632.7656,959.4219 633.8594,958.8125 Q634.9531,958.1875 636.1875,958.1875 Q636.9219,958.1875 637.5625,958.3594 Q638.2188,958.5156 638.7656,958.875 Z " fill="#000000"/><text fill="#000000" font-family="sans-serif" font-size="14" lengthAdjust="spacing" textLength="101" x="655" y="968.7285">WarrantyHistory</text><line style="stroke:#181818;stroke-width:0.5;" x1="599.5" x2="780.5" y1="979" y2="979"/><rect fill="none" height="6" style="stroke:#C82930;stroke-width:1.0;" width="6" x="606.5" y="990.3047"/><text fill="#000000" font-family="sans-serif" font-size="14" lengthAdjust="spacing" textLength="157" x="618.5" y="997.5332">DateTime: WarrantyDate</text><line style="stroke:#181818;stroke-width:0.5;" x1="599.5" x2="780.5" y1="1004.6094" y2="1004.6094"/><ellipse cx="609.5" cy="1018.9141" fill="#84BE84" rx="3" ry="3" style="stroke:#038048;stroke-width:1.0;"/><text fill="#000000" font-family="sans-serif" font-size="14" lengthAdjust="spacing" textLength="56" x="618.5" y="1023.1426">Display()</text></g><!--MD5=[6ec1b79322e15e477c3ecba0edd03ee7]
class ColorOfVehicle--><g id="elem_ColorOfVehicle"><rect codeLine="49" fill="#F1F1F1" height="171.2656" id="ColorOfVehicle" rx="2.5" ry="2.5" style="stroke:#181818;stroke-width:0.5;" width="127" x="498.5" y="379.5"/><ellipse cx="513.5" cy="395.5" fill="#EB937F" rx="11" ry="11" style="stroke:#181818;stroke-width:1.0;"/><path d="M512.3594,396.2969 L512.3594,398.7969 L516.6875,398.7969 L516.6875,397.875 Q516.6875,397.2656 516.9219,397 Q517.1719,396.7344 517.5469,396.7344 Q517.9219,396.7344 518.1563,397 Q518.3906,397.2656 518.3906,397.875 L518.3906,400.5 L510.3906,400.5 Q509.7656,400.5 509.5,400.2656 Q509.25,400.0313 509.25,399.6406 Q509.25,399.2656 509.5156,399.0313 Q509.7813,398.7969 510.3906,398.7969 L510.6563,398.7969 L510.6563,392.1406 L510.3906,392.1406 Q509.7656,392.1406 509.5,391.9063 Q509.25,391.6719 509.25,391.2813 Q509.25,390.9063 509.5,390.6719 Q509.7656,390.4375 510.3906,390.4375 L518.0156,390.4375 L518.0156,393.0313 Q518.0156,393.6406 517.7813,393.9063 Q517.5625,394.1563 517.1719,394.1563 Q516.7969,394.1563 516.5625,393.9063 Q516.3281,393.6406 516.3281,393.0313 L516.3281,392.1406 L512.3594,392.1406 L512.3594,394.5938 L513.8438,394.5938 Q513.8438,393.9375 513.9688,393.75 Q514.2344,393.3438 514.7031,393.3438 Q515.0781,393.3438 515.3125,393.6094 Q515.5469,393.8594 515.5469,394.4688 L515.5469,396.4375 Q515.5469,396.9844 515.4219,397.1719 Q515.1563,397.5625 514.7031,397.5625 Q514.2344,397.5625 513.9688,397.1563 Q513.8438,396.9688 513.8438,396.2969 L512.3594,396.2969 Z " fill="#000000"/><text fill="#000000" font-family="sans-serif" font-size="14" lengthAdjust="spacing" textLength="95" x="527.5" y="401.2285">ColorOfVehicle</text><line style="stroke:#181818;stroke-width:0.5;" x1="499.5" x2="624.5" y1="411.5" y2="411.5"/><text fill="#000000" font-family="sans-serif" font-size="14" lengthAdjust="spacing" textLength="50" x="504.5" y="430.0332">1: Black</text><text fill="#000000" font-family="sans-serif" font-size="14" lengthAdjust="spacing" textLength="52" x="504.5" y="447.6426">2: White</text><text fill="#000000" font-family="sans-serif" font-size="14" lengthAdjust="spacing" textLength="44" x="504.5" y="465.252">3: Blue</text><text fill="#000000" font-family="sans-serif" font-size="14" lengthAdjust="spacing" textLength="42" x="504.5" y="482.8613">4: Red</text><text fill="#000000" font-family="sans-serif" font-size="14" lengthAdjust="spacing" textLength="47" x="504.5" y="500.4707">5: Grey</text><text fill="#000000" font-family="sans-serif" font-size="14" lengthAdjust="spacing" textLength="56" x="504.5" y="518.0801">6: Green</text><text fill="#000000" font-family="sans-serif" font-size="14" lengthAdjust="spacing" textLength="12" x="504.5" y="535.6895">...</text><line style="stroke:#181818;stroke-width:0.5;" x1="499.5" x2="624.5" y1="542.7656" y2="542.7656"/></g><!--MD5=[eee9d396a8aca12c6c152931e8dc1ab6]
class Driver--><g id="elem_Driver"><rect codeLine="58" fill="#F1F1F1" height="241.7031" id="Driver" rx="2.5" ry="2.5" style="stroke:#181818;stroke-width:0.5;" width="195" x="268.5" y="344"/><ellipse cx="342.75" cy="360" fill="#ADD1B2" rx="11" ry="11" style="stroke:#181818;stroke-width:1.0;"/><path d="M345.5156,355.875 Q345.6719,355.6563 345.8594,355.5469 Q346.0469,355.4375 346.2656,355.4375 Q346.6406,355.4375 346.875,355.7031 Q347.1094,355.9531 347.1094,356.5625 L347.1094,358.0156 Q347.1094,358.625 346.875,358.8906 Q346.6406,359.1563 346.2656,359.1563 Q345.9219,359.1563 345.7188,358.9531 Q345.5156,358.7656 345.4063,358.25 Q345.3594,357.8906 345.1719,357.7031 Q344.8438,357.3281 344.2344,357.1094 Q343.625,356.8906 343,356.8906 Q342.2344,356.8906 341.5938,357.2188 Q340.9688,357.5469 340.4688,358.2969 Q339.9844,359.0469 339.9844,360.0781 L339.9844,361.1719 Q339.9844,362.4063 340.875,363.2344 Q341.7656,364.0469 343.3594,364.0469 Q344.2969,364.0469 344.9531,363.7969 Q345.3438,363.6406 345.7656,363.2031 Q346.0313,362.9375 346.1719,362.8594 Q346.3281,362.7813 346.5313,362.7813 Q346.8594,362.7813 347.1094,363.0469 Q347.375,363.2969 347.375,363.6406 Q347.375,363.9844 347.0313,364.3906 Q346.5313,364.9688 345.7344,365.2969 Q344.6563,365.75 343.3594,365.75 Q341.8438,365.75 340.6406,365.125 Q339.6563,364.625 338.9688,363.5625 Q338.2813,362.4844 338.2813,361.2031 L338.2813,360.0469 Q338.2813,358.7188 338.8906,357.5781 Q339.5156,356.4219 340.6094,355.8125 Q341.7031,355.1875 342.9375,355.1875 Q343.6719,355.1875 344.3125,355.3594 Q344.9688,355.5156 345.5156,355.875 Z " fill="#000000"/><text fill="#000000" font-family="sans-serif" font-size="14" lengthAdjust="spacing" textLength="38" x="363.25" y="365.7285">Driver</text><line style="stroke:#181818;stroke-width:0.5;" x1="269.5" x2="462.5" y1="376" y2="376"/><rect fill="none" height="6" style="stroke:#C82930;stroke-width:1.0;" width="6" x="276.5" y="387.3047"/><text fill="#000000" font-family="sans-serif" font-size="14" lengthAdjust="spacing" textLength="79" x="288.5" y="394.5332">string: Name</text><rect fill="none" height="6" style="stroke:#C82930;stroke-width:1.0;" width="6" x="276.5" y="404.9141"/><text fill="#000000" font-family="sans-serif" font-size="14" lengthAdjust="spacing" textLength="48" x="288.5" y="412.1426">int: Age</text><rect fill="none" height="6" style="stroke:#C82930;stroke-width:1.0;" width="6" x="276.5" y="422.5234"/><text fill="#000000" font-family="sans-serif" font-size="14" lengthAdjust="spacing" textLength="137" x="288.5" y="429.752">int: DrivingExperience</text><rect fill="none" height="6" style="stroke:#C82930;stroke-width:1.0;" width="6" x="276.5" y="440.1328"/><text fill="#000000" font-family="sans-serif" font-size="14" lengthAdjust="spacing" textLength="147" x="288.5" y="447.3613">Transportation: Vehicle</text><rect fill="none" height="6" style="stroke:#C82930;stroke-width:1.0;" width="6" x="276.5" y="457.7422"/><text fill="#000000" font-family="sans-serif" font-size="14" lengthAdjust="spacing" textLength="164" x="288.5" y="464.9707">double: CustomerReviews</text><rect fill="none" height="6" style="stroke:#C82930;stroke-width:1.0;" width="6" x="276.5" y="475.3516"/><text fill="#000000" font-family="sans-serif" font-size="14" lengthAdjust="spacing" textLength="93" x="288.5" y="482.5801">point: Location</text><line style="stroke:#181818;stroke-width:0.5;" x1="269.5" x2="462.5" y1="489.6563" y2="489.6563"/><ellipse cx="279.5" cy="503.9609" fill="#84BE84" rx="3" ry="3" style="stroke:#038048;stroke-width:1.0;"/><text fill="#000000" font-family="sans-serif" font-size="14" lengthAdjust="spacing" textLength="92" x="288.5" y="508.1895">DisplayName()</text><ellipse cx="279.5" cy="521.5703" fill="#84BE84" rx="3" ry="3" style="stroke:#038048;stroke-width:1.0;"/><text fill="#000000" font-family="sans-serif" font-size="14" lengthAdjust="spacing" textLength="81" x="288.5" y="525.7988">DisplayAge()</text><ellipse cx="279.5" cy="539.1797" fill="#84BE84" rx="3" ry="3" style="stroke:#038048;stroke-width:1.0;"/><text fill="#000000" font-family="sans-serif" font-size="14" lengthAdjust="spacing" textLength="126" x="288.5" y="543.4082">DisplayExperience()</text><ellipse cx="279.5" cy="556.7891" fill="#84BE84" rx="3" ry="3" style="stroke:#038048;stroke-width:1.0;"/><text fill="#000000" font-family="sans-serif" font-size="14" lengthAdjust="spacing" textLength="102" x="288.5" y="561.0176">DisplayVehicle()</text><ellipse cx="279.5" cy="574.3984" fill="#84BE84" rx="3" ry="3" style="stroke:#038048;stroke-width:1.0;"/><text fill="#000000" font-family="sans-serif" font-size="14" lengthAdjust="spacing" textLength="169" x="288.5" y="578.627">DisplayCustomerReviews()</text></g><!--MD5=[2ce0c9fb7f55b1e256ab28a8ea6b25ec]
class Customer--><g id="elem_Customer"><rect codeLine="73" fill="#F1F1F1" height="153.6563" id="Customer" rx="2.5" ry="2.5" style="stroke:#181818;stroke-width:0.5;" width="159" x="286.5" y="59.5"/><ellipse cx="331.25" cy="75.5" fill="#ADD1B2" rx="11" ry="11" style="stroke:#181818;stroke-width:1.0;"/><path d="M334.0156,71.375 Q334.1719,71.1563 334.3594,71.0469 Q334.5469,70.9375 334.7656,70.9375 Q335.1406,70.9375 335.375,71.2031 Q335.6094,71.4531 335.6094,72.0625 L335.6094,73.5156 Q335.6094,74.125 335.375,74.3906 Q335.1406,74.6563 334.7656,74.6563 Q334.4219,74.6563 334.2188,74.4531 Q334.0156,74.2656 333.9063,73.75 Q333.8594,73.3906 333.6719,73.2031 Q333.3438,72.8281 332.7344,72.6094 Q332.125,72.3906 331.5,72.3906 Q330.7344,72.3906 330.0938,72.7188 Q329.4688,73.0469 328.9688,73.7969 Q328.4844,74.5469 328.4844,75.5781 L328.4844,76.6719 Q328.4844,77.9063 329.375,78.7344 Q330.2656,79.5469 331.8594,79.5469 Q332.7969,79.5469 333.4531,79.2969 Q333.8438,79.1406 334.2656,78.7031 Q334.5313,78.4375 334.6719,78.3594 Q334.8281,78.2813 335.0313,78.2813 Q335.3594,78.2813 335.6094,78.5469 Q335.875,78.7969 335.875,79.1406 Q335.875,79.4844 335.5313,79.8906 Q335.0313,80.4688 334.2344,80.7969 Q333.1563,81.25 331.8594,81.25 Q330.3438,81.25 329.1406,80.625 Q328.1563,80.125 327.4688,79.0625 Q326.7813,77.9844 326.7813,76.7031 L326.7813,75.5469 Q326.7813,74.2188 327.3906,73.0781 Q328.0156,71.9219 329.1094,71.3125 Q330.2031,70.6875 331.4375,70.6875 Q332.1719,70.6875 332.8125,70.8594 Q333.4688,71.0156 334.0156,71.375 Z " fill="#000000"/><text fill="#000000" font-family="sans-serif" font-size="14" lengthAdjust="spacing" textLength="61" x="351.75" y="81.2285">Customer</text><line style="stroke:#181818;stroke-width:0.5;" x1="287.5" x2="444.5" y1="91.5" y2="91.5"/><rect fill="none" height="6" style="stroke:#C82930;stroke-width:1.0;" width="6" x="294.5" y="102.8047"/><text fill="#000000" font-family="sans-serif" font-size="14" lengthAdjust="spacing" textLength="79" x="306.5" y="110.0332">string: Name</text><rect fill="none" height="6" style="stroke:#C82930;stroke-width:1.0;" width="6" x="294.5" y="120.4141"/><text fill="#000000" font-family="sans-serif" font-size="14" lengthAdjust="spacing" textLength="93" x="306.5" y="127.6426">point: Location</text><rect fill="none" height="6" style="stroke:#C82930;stroke-width:1.0;" width="6" x="294.5" y="138.0234"/><text fill="#000000" font-family="sans-serif" font-size="14" lengthAdjust="spacing" textLength="110" x="306.5" y="145.252">int: NumOfPeople</text><rect fill="none" height="6" style="stroke:#C82930;stroke-width:1.0;" width="6" x="294.5" y="155.6328"/><text fill="#000000" font-family="sans-serif" font-size="14" lengthAdjust="spacing" textLength="133" x="306.5" y="162.8613">string: PhoneNumber</text><line style="stroke:#181818;stroke-width:0.5;" x1="287.5" x2="444.5" y1="169.9375" y2="169.9375"/><ellipse cx="297.5" cy="184.2422" fill="#84BE84" rx="3" ry="3" style="stroke:#038048;stroke-width:1.0;"/><text fill="#000000" font-family="sans-serif" font-size="14" lengthAdjust="spacing" textLength="79" x="306.5" y="188.4707">DisplayInfo()</text><ellipse cx="297.5" cy="201.8516" fill="#84BE84" rx="3" ry="3" style="stroke:#038048;stroke-width:1.0;"/><text fill="#000000" font-family="sans-serif" font-size="14" lengthAdjust="spacing" textLength="99" x="306.5" y="206.0801">BooksJourney()</text></g><!--MD5=[3414d3a9b66f2c7b4cdae254e9b09b59]
class Journey--><g id="elem_Journey"><rect codeLine="82" fill="#F1F1F1" height="259.3125" id="Journey" rx="2.5" ry="2.5" style="stroke:#181818;stroke-width:0.5;" width="208" x="7" y="7"/><ellipse cx="81.75" cy="23" fill="#ADD1B2" rx="11" ry="11" style="stroke:#181818;stroke-width:1.0;"/><path d="M84.5156,18.875 Q84.6719,18.6563 84.8594,18.5469 Q85.0469,18.4375 85.2656,18.4375 Q85.6406,18.4375 85.875,18.7031 Q86.1094,18.9531 86.1094,19.5625 L86.1094,21.0156 Q86.1094,21.625 85.875,21.8906 Q85.6406,22.1563 85.2656,22.1563 Q84.9219,22.1563 84.7188,21.9531 Q84.5156,21.7656 84.4063,21.25 Q84.3594,20.8906 84.1719,20.7031 Q83.8438,20.3281 83.2344,20.1094 Q82.625,19.8906 82,19.8906 Q81.2344,19.8906 80.5938,20.2188 Q79.9688,20.5469 79.4688,21.2969 Q78.9844,22.0469 78.9844,23.0781 L78.9844,24.1719 Q78.9844,25.4063 79.875,26.2344 Q80.7656,27.0469 82.3594,27.0469 Q83.2969,27.0469 83.9531,26.7969 Q84.3438,26.6406 84.7656,26.2031 Q85.0313,25.9375 85.1719,25.8594 Q85.3281,25.7813 85.5313,25.7813 Q85.8594,25.7813 86.1094,26.0469 Q86.375,26.2969 86.375,26.6406 Q86.375,26.9844 86.0313,27.3906 Q85.5313,27.9688 84.7344,28.2969 Q83.6563,28.75 82.3594,28.75 Q80.8438,28.75 79.6406,28.125 Q78.6563,27.625 77.9688,26.5625 Q77.2813,25.4844 77.2813,24.2031 L77.2813,23.0469 Q77.2813,21.7188 77.8906,20.5781 Q78.5156,19.4219 79.6094,18.8125 Q80.7031,18.1875 81.9375,18.1875 Q82.6719,18.1875 83.3125,18.3594 Q83.9688,18.5156 84.5156,18.875 Z " fill="#000000"/><text fill="#000000" font-family="sans-serif" font-size="14" lengthAdjust="spacing" textLength="50" x="102.25" y="28.7285">Journey</text><line style="stroke:#181818;stroke-width:0.5;" x1="8" x2="214" y1="39" y2="39"/><rect fill="none" height="6" style="stroke:#C82930;stroke-width:1.0;" width="6" x="15" y="50.3047"/><text fill="#000000" font-family="sans-serif" font-size="14" lengthAdjust="spacing" textLength="82" x="27" y="57.5332">Driver: driver</text><rect fill="none" height="6" style="stroke:#C82930;stroke-width:1.0;" width="6" x="15" y="67.9141"/><text fill="#000000" font-family="sans-serif" font-size="14" lengthAdjust="spacing" textLength="147" x="27" y="75.1426">Transportation: Vehicle</text><rect fill="none" height="6" style="stroke:#C82930;stroke-width:1.0;" width="6" x="15" y="85.5234"/><text fill="#000000" font-family="sans-serif" font-size="14" lengthAdjust="spacing" textLength="97" x="27" y="92.752">double: Kilomet</text><rect fill="none" height="6" style="stroke:#C82930;stroke-width:1.0;" width="6" x="15" y="103.1328"/><text fill="#000000" font-family="sans-serif" font-size="14" lengthAdjust="spacing" textLength="120" x="27" y="110.3613">double: Surchange</text><rect fill="none" height="6" style="stroke:#C82930;stroke-width:1.0;" width="6" x="15" y="120.7422"/><text fill="#000000" font-family="sans-serif" font-size="14" lengthAdjust="spacing" textLength="83" x="27" y="127.9707">double: Price</text><line style="stroke:#181818;stroke-width:0.5;" x1="8" x2="214" y1="135.0469" y2="135.0469"/><rect fill="#F24D5C" height="6" style="stroke:#C82930;stroke-width:1.0;" width="6" x="15" y="146.3516"/><text fill="#000000" font-family="sans-serif" font-size="14" lengthAdjust="spacing" textLength="172" x="27" y="153.5801">RequestDriverAndVehicle()</text><rect fill="#F24D5C" height="6" style="stroke:#C82930;stroke-width:1.0;" width="6" x="15" y="163.9609"/><text fill="#000000" font-family="sans-serif" font-size="14" lengthAdjust="spacing" textLength="86" x="27" y="171.1895">CalDistance()</text><rect fill="#F24D5C" height="6" style="stroke:#C82930;stroke-width:1.0;" width="6" x="15" y="181.5703"/><text fill="#000000" font-family="sans-serif" font-size="14" lengthAdjust="spacing" textLength="63" x="27" y="188.7988">CalPrice()</text><rect fill="#F24D5C" height="6" style="stroke:#C82930;stroke-width:1.0;" width="6" x="15" y="199.1797"/><text fill="#000000" font-family="sans-serif" font-size="14" lengthAdjust="spacing" textLength="155" x="27" y="206.4082">NotifyCompleteJourney()</text><ellipse cx="18" cy="219.7891" fill="#84BE84" rx="3" ry="3" style="stroke:#038048;stroke-width:1.0;"/><text fill="#000000" font-family="sans-serif" font-size="14" lengthAdjust="spacing" textLength="182" x="27" y="224.0176">DisplaySurchangeAndPrice()</text><ellipse cx="18" cy="237.3984" fill="#84BE84" rx="3" ry="3" style="stroke:#038048;stroke-width:1.0;"/><text fill="#000000" font-family="sans-serif" font-size="14" lengthAdjust="spacing" textLength="94" x="27" y="241.627">DisplayDriver()</text><ellipse cx="18" cy="255.0078" fill="#84BE84" rx="3" ry="3" style="stroke:#038048;stroke-width:1.0;"/><text fill="#000000" font-family="sans-serif" font-size="14" lengthAdjust="spacing" textLength="120" x="27" y="259.2363">DisplayTotalPrice()</text></g><!--MD5=[f8e092794d52bf9a252466252ae7bd1c]
class System--><g id="elem_System"><rect codeLine="97" fill="#F1F1F1" height="172.3594" id="System" rx="2.5" ry="2.5" style="stroke:#181818;stroke-width:0.5;" width="186" x="18" y="379"/><ellipse cx="75.75" cy="400.3516" fill="#ADD1B2" rx="11" ry="11" style="stroke:#181818;stroke-width:1.0;"/><path d="M78.5156,396.2266 Q78.6719,396.0078 78.8594,395.8984 Q79.0469,395.7891 79.2656,395.7891 Q79.6406,395.7891 79.875,396.0547 Q80.1094,396.3047 80.1094,396.9141 L80.1094,398.3672 Q80.1094,398.9766 79.875,399.2422 Q79.6406,399.5078 79.2656,399.5078 Q78.9219,399.5078 78.7188,399.3047 Q78.5156,399.1172 78.4063,398.6016 Q78.3594,398.2422 78.1719,398.0547 Q77.8438,397.6797 77.2344,397.4609 Q76.625,397.2422 76,397.2422 Q75.2344,397.2422 74.5938,397.5703 Q73.9688,397.8984 73.4688,398.6484 Q72.9844,399.3984 72.9844,400.4297 L72.9844,401.5234 Q72.9844,402.7578 73.875,403.5859 Q74.7656,404.3984 76.3594,404.3984 Q77.2969,404.3984 77.9531,404.1484 Q78.3438,403.9922 78.7656,403.5547 Q79.0313,403.2891 79.1719,403.2109 Q79.3281,403.1328 79.5313,403.1328 Q79.8594,403.1328 80.1094,403.3984 Q80.375,403.6484 80.375,403.9922 Q80.375,404.3359 80.0313,404.7422 Q79.5313,405.3203 78.7344,405.6484 Q77.6563,406.1016 76.3594,406.1016 Q74.8438,406.1016 73.6406,405.4766 Q72.6563,404.9766 71.9688,403.9141 Q71.2813,402.8359 71.2813,401.5547 L71.2813,400.3984 Q71.2813,399.0703 71.8906,397.9297 Q72.5156,396.7734 73.6094,396.1641 Q74.7031,395.5391 75.9375,395.5391 Q76.6719,395.5391 77.3125,395.7109 Q77.9688,395.8672 78.5156,396.2266 Z " fill="#000000"/><text fill="#000000" font-family="sans-serif" font-size="12" font-style="italic" lengthAdjust="spacing" textLength="66" x="94.25" y="396.457">«Singleton»</text><text fill="#000000" font-family="sans-serif" font-size="14" lengthAdjust="spacing" textLength="46" x="104.25" y="413.627">System</text><line style="stroke:#181818;stroke-width:0.5;" x1="19" x2="203" y1="421.7031" y2="421.7031"/><ellipse cx="29" cy="436.0078" fill="#84BE84" rx="3" ry="3" style="stroke:#038048;stroke-width:1.0;"/><text fill="#000000" font-family="sans-serif" font-size="14" lengthAdjust="spacing" textLength="107" x="38" y="440.2363">AddNewVehicle()</text><ellipse cx="29" cy="453.6172" fill="#84BE84" rx="3" ry="3" style="stroke:#038048;stroke-width:1.0;"/><text fill="#000000" font-family="sans-serif" font-size="14" lengthAdjust="spacing" textLength="99" x="38" y="457.8457">AddNewDriver()</text><line style="stroke:#181818;stroke-width:1.0;" x1="19" x2="203" y1="464.9219" y2="464.9219"/><ellipse cx="29" cy="479.2266" fill="#84BE84" rx="3" ry="3" style="stroke:#038048;stroke-width:1.0;"/><text fill="#000000" font-family="sans-serif" font-size="14" lengthAdjust="spacing" textLength="102" x="38" y="483.4551">DisplayVehicle()</text><ellipse cx="29" cy="496.8359" fill="#84BE84" rx="3" ry="3" style="stroke:#038048;stroke-width:1.0;"/><text fill="#000000" font-family="sans-serif" font-size="14" lengthAdjust="spacing" textLength="89" x="38" y="501.0645">DisplayDrive()</text><line style="stroke:#181818;stroke-width:1.0;" x1="19" x2="203" y1="508.1406" y2="508.1406"/><ellipse cx="29" cy="522.4453" fill="#84BE84" rx="3" ry="3" style="stroke:#038048;stroke-width:1.0;"/><text fill="#000000" font-family="sans-serif" font-size="14" lengthAdjust="spacing" textLength="110" x="38" y="526.6738">FindForJourney()</text><ellipse cx="29" cy="540.0547" fill="#84BE84" rx="3" ry="3" style="stroke:#038048;stroke-width:1.0;"/><text fill="#000000" font-family="sans-serif" font-size="14" lengthAdjust="spacing" textLength="160" x="38" y="544.2832">UpdateWarrantyService()</text></g><!--MD5=[f6affeddbb688a07d58b47291af33fcf]
reverse link Transportation to Truck--><g id="link_Transportation_Truck"><path codeLine="108" d="M348,881 C348,881 333.33,933.07 324.51,964.39 " fill="none" id="Transportation-backto-Truck" style="stroke:#181818;stroke-width:1.0;"/></g><!--MD5=[3bc9e9f12652b558328d07278cc2f6b2]
reverse link Transportation to Car--><g id="link_Transportation_Car"><path codeLine="109" d="M348,881 C348,881 301.62,916.67 266,947 C259.6,952.45 252.8,958.45 246.48,964.12 " fill="none" id="Transportation-backto-Car" style="stroke:#181818;stroke-width:1.0;"/></g><!--MD5=[9fe011bb3c36b83c3fb5ddcc0ba8cfc6]
reverse link Transportation to Coach--><g id="link_Transportation_Coach"><path codeLine="110" d="M348,881 C348,881 411.79,915.16 460,947 C468.21,952.42 476.88,958.59 484.85,964.44 " fill="none" id="Transportation-backto-Coach" style="stroke:#181818;stroke-width:1.0;"/></g><!--MD5=[185e13094099c6d047725503279b33ba]
reverse link Transportation to Bus--><g id="link_Transportation_Bus"><path codeLine="111" d="M348,881 C348,881 380.76,933.07 400.46,964.39 " fill="none" id="Transportation-backto-Bus" style="stroke:#181818;stroke-width:1.0;"/></g><!--MD5=[5853c168696c08fa15f8cab5a0fb0f84]
reverse link Transportation to Motorbike--><g id="link_Transportation_Motorbike"><path codeLine="112" d="M348,881 C348,881 249.3,910.52 176,947 C165.76,952.09 155.07,958.34 145.38,964.38 " fill="none" id="Transportation-backto-Motorbike" style="stroke:#181818;stroke-width:1.0;"/></g><!--MD5=[973e7e0c5190950e36d0c613a04cfc60]
link WarrantyService to Transportation--><g id="link_WarrantyService_Transportation"><path codeLine="113" d="M583.72,783 C550.7,783 517.67,783 484.65,783 " fill="none" id="WarrantyService-Transportation" style="stroke:#181818;stroke-width:1.0;"/></g><!--MD5=[9cc89088723cf36fdf2b24d07cc60967]
link Driver to Transportation--><g id="link_Driver_Transportation"><path codeLine="114" d="M366,586.37 C366,619.16 366,654.24 366,685.52 " fill="none" id="Driver-Transportation" style="stroke:#181818;stroke-width:1.0;"/><text fill="#000000" font-family="sans-serif" font-size="13" lengthAdjust="spacing" textLength="7" x="358.7977" y="607.3631">1</text><text fill="#000000" font-family="sans-serif" font-size="13" lengthAdjust="spacing" textLength="20" x="345.2656" y="675.2945">1..*</text></g><!--MD5=[5d369def452e552b8ab9d5a54594b78d]
link ColorOfVehicle to Transportation--><g id="link_ColorOfVehicle_Transportation"><path codeLine="115" d="M509.48,550.68 C483.62,592.36 452.34,642.79 425.6,685.92 " fill="none" id="ColorOfVehicle-Transportation" style="stroke:#181818;stroke-width:1.0;"/></g><!--MD5=[2e49234d7f9ba035397978e9217388b4]
reverse link WarrantyService to WarrantyHistory--><g id="link_WarrantyService_WarrantyHistory"><path codeLine="116" d="M690,899.19 C690,916.28 690,932.86 690,946.95 " fill="none" id="WarrantyService-backto-WarrantyHistory" style="stroke:#181818;stroke-width:1.0;"/><polygon fill="#181818" points="690,886.05,686,892.05,690,898.05,694,892.05,690,886.05" style="stroke:#181818;stroke-width:1.0;"/><text fill="#000000" font-family="sans-serif" font-size="13" lengthAdjust="spacing" textLength="7" x="682.732" y="908.0423">1</text><text fill="#000000" font-family="sans-serif" font-size="13" lengthAdjust="spacing" textLength="20" x="668.3438" y="936.2494">1..*</text></g><!--MD5=[241bb0ea8f319a9b0875767787874e1a]
link System to Transportation--><g id="link_System_Transportation"><path codeLine="117" d="M129.07,551.08 C137.76,579.23 150.27,609.58 168,634 C188.37,662.05 215.6,687.14 243.33,708.33 " fill="none" id="System-to-Transportation" style="stroke:#181818;stroke-width:1.0;"/><polygon fill="#181818" points="247.42,711.43,242.6545,702.8109,243.432,708.414,237.8289,709.1916,247.42,711.43" style="stroke:#181818;stroke-width:1.0;"/><text fill="#000000" font-family="sans-serif" font-size="13" lengthAdjust="spacing" textLength="188" x="169" y="630.4951">adds &amp; updates warranty service</text></g><!--MD5=[dc61608dafb0f4b3559f55bf744332dc]
link System to Driver--><g id="link_System_Driver"><path codeLine="118" d="M204.14,465 C223.26,465 243.49,465 262.93,465 " fill="none" id="System-to-Driver" style="stroke:#181818;stroke-width:1.0;"/><polygon fill="#181818" points="268.4,465,259.4,461,263.4,465,259.4,469,268.4,465" style="stroke:#181818;stroke-width:1.0;"/><text fill="#000000" font-family="sans-serif" font-size="13" lengthAdjust="spacing" textLength="28" x="222.25" y="458.4951">adds</text></g><!--MD5=[d384348218da0babe26e3b9c57353d18]
reverse link Journey to Customer--><g id="link_Journey_Customer"><path codeLine="119" d="M220.13,136.5 C242.41,136.5 265.45,136.5 286.47,136.5 " fill="none" id="Journey-backto-Customer" style="stroke:#181818;stroke-width:1.0;"/><polygon fill="#181818" points="215.09,136.5,224.09,140.5,220.09,136.5,224.09,132.5,215.09,136.5" style="stroke:#181818;stroke-width:1.0;"/><text fill="#000000" font-family="sans-serif" font-size="13" lengthAdjust="spacing" textLength="35" x="233.25" y="129.9951">books</text><text fill="#000000" font-family="sans-serif" font-size="13" lengthAdjust="spacing" textLength="20" x="223.112" y="150.559">0..*</text><text fill="#000000" font-family="sans-serif" font-size="13" lengthAdjust="spacing" textLength="20" x="258.4962" y="150.7386">0..*</text></g><!--MD5=[cf1e074ad53e3b6c48618c46ea6d60c9]
link Journey to System--><g id="link_Journey_System"><path codeLine="120" d="M111,266.07 C111,301.98 111,340.24 111,373.45 " fill="none" id="Journey-to-System" style="stroke:#181818;stroke-width:1.0;"/><polygon fill="#181818" points="111,378.74,115,369.74,111,373.74,107,369.74,111,378.74" style="stroke:#181818;stroke-width:1.0;"/><text fill="#000000" font-family="sans-serif" font-size="13" lengthAdjust="spacing" textLength="155" x="112" y="310.4951">requests. Observe &amp; Notify</text></g><!--MD5=[71dba51c463e64061190874948fc4f73]
@startuml doixe
skinparam groupInheritance 3

package TransportationFactory <<Folder>>{

class Transportation{
    # int: Capacity
    # ColorOfVehicle: Color
    # string: VehicleRegistration
    + WarrantyService: Warranty
    + DisplayCapacity()
    + DisplayColor()
}


class Motorbike{  
}

class Car{
}

class Truck{
}

class Bus {
}

class Coach {
}
}

class WarrantyService{
    - bool: IsWarranty
    - int: KilometLeft
    - WarrantyHistory: WarrantyHis

    - ChangeWarrantyStatus()
    + ShowKilometLeft()
    + UpdateKilometLeft()
    + Warranty()
    + DisplayStatus()
    + DisplayWarrantyHistory()
}

class WarrantyHistory{
    - DateTime: WarrantyDate
    + Display()
}

enum ColorOfVehicle{
    1: Black
    2: White
    3: Blue
    4: Red
    5: Grey
    6: Green
    ...
}
class Driver{
    - string: Name
    - int: Age
    - int: DrivingExperience
    - Transportation: Vehicle
    - double: CustomerReviews
    - point: Location

    + DisplayName()
    + DisplayAge()
    + DisplayExperience()
    + DisplayVehicle()
    + DisplayCustomerReviews()
}

class Customer{
    - string: Name
    - point: Location
    - int: NumOfPeople
    - string: PhoneNumber
    + DisplayInfo()
    + BooksJourney()
}

class Journey{
    - Driver: driver
    - Transportation: Vehicle
    - double: Kilomet
    - double: Surchange
    - double: Price
    - RequestDriverAndVehicle()
    - CalDistance()
    - CalPrice()
    - NotifyCompleteJourney()
    + DisplaySurchangeAndPrice()
    + DisplayDriver()
    + DisplayTotalPrice()
}

class System <<Singleton>>{
    + AddNewVehicle()
    + AddNewDriver()
    - -
    + DisplayVehicle()
    + DisplayDrive()
    - -
    + FindForJourney()
    + UpdateWarrantyService()
}

Transportation <|- - Truck
Transportation <|- - Car
Transportation <|- - Coach
Transportation <|- - Bus
Transportation <|- - Motorbike
Transportation -left- WarrantyService
Driver "1" - - "1..*" Transportation
ColorOfVehicle -down- Transportation
WarrantyService "1" *-down- "1..*" WarrantyHistory
System -right-> Transportation: adds & updates warranty service
System -right-> Driver: adds
Customer "0..*"-left->"0..*" Journey: books
Journey - -> System: requests. Observe & Notify
@enduml

PlantUML version 1.2022.7(Tue Aug 23 00:01:30 ICT 2022)
(GPL source distribution)
Java Runtime: Java(TM) SE Runtime Environment
JVM: Java HotSpot(TM) 64-Bit Server VM
Default Encoding: UTF-8
Language: en
Country: US
--></g></svg>