<?xml version="1.0" encoding="us-ascii" standalone="no"?><svg xmlns="http://www.w3.org/2000/svg" xmlns:xlink="http://www.w3.org/1999/xlink" contentStyleType="text/css" height="1217px" preserveAspectRatio="none" style="width:818px;height:1217px;background:#FFFFFF;" version="1.1" viewBox="0 0 818 1217" width="818px" zoomAndPan="magnify"><defs/><g><!--cluster TransportationFactory--><g id="cluster_TransportationFactory"><path d="M124.5,731 L280.5,731 A3.75,3.75 0 0 1 283,733.5 L290,754.6094 L419.5,754.6094 A2.5,2.5 0 0 1 422,757.1094 L422,1198 A2.5,2.5 0 0 1 419.5,1200.5 L124.5,1200.5 A2.5,2.5 0 0 1 122,1198 L122,733.5 A2.5,2.5 0 0 1 124.5,731 " fill="none" style="stroke:#000000;stroke-width:1.5;"/><line style="stroke:#000000;stroke-width:1.5;" x1="122" x2="290" y1="754.6094" y2="754.6094"/><text fill="#000000" font-family="sans-serif" font-size="14" font-weight="bold" lengthAdjust="spacing" textLength="155" x="126" y="747.5332">TransportationFactory</text></g><!--class Transportation--><g id="elem_Transportation"><rect codeLine="5" fill="#F1F1F1" height="241.7031" id="Transportation" rx="2.5" ry="2.5" style="stroke:#181818;stroke-width:0.5;" width="192" x="184" y="787"/><ellipse cx="229.25" cy="803" fill="#ADD1B2" rx="11" ry="11" style="stroke:#181818;stroke-width:1.0;"/><path d="M232.0156,798.875 Q232.1719,798.6563 232.3594,798.5469 Q232.5469,798.4375 232.7656,798.4375 Q233.1406,798.4375 233.375,798.7031 Q233.6094,798.9531 233.6094,799.5625 L233.6094,801.0156 Q233.6094,801.625 233.375,801.8906 Q233.1406,802.1563 232.7656,802.1563 Q232.4219,802.1563 232.2188,801.9531 Q232.0156,801.7656 231.9063,801.25 Q231.8594,800.8906 231.6719,800.7031 Q231.3438,800.3281 230.7344,800.1094 Q230.125,799.8906 229.5,799.8906 Q228.7344,799.8906 228.0938,800.2188 Q227.4688,800.5469 226.9688,801.2969 Q226.4844,802.0469 226.4844,803.0781 L226.4844,804.1719 Q226.4844,805.4063 227.375,806.2344 Q228.2656,807.0469 229.8594,807.0469 Q230.7969,807.0469 231.4531,806.7969 Q231.8438,806.6406 232.2656,806.2031 Q232.5313,805.9375 232.6719,805.8594 Q232.8281,805.7813 233.0313,805.7813 Q233.3594,805.7813 233.6094,806.0469 Q233.875,806.2969 233.875,806.6406 Q233.875,806.9844 233.5313,807.3906 Q233.0313,807.9688 232.2344,808.2969 Q231.1563,808.75 229.8594,808.75 Q228.3438,808.75 227.1406,808.125 Q226.1563,807.625 225.4688,806.5625 Q224.7813,805.4844 224.7813,804.2031 L224.7813,803.0469 Q224.7813,801.7188 225.3906,800.5781 Q226.0156,799.4219 227.1094,798.8125 Q228.2031,798.1875 229.4375,798.1875 Q230.1719,798.1875 230.8125,798.3594 Q231.4688,798.5156 232.0156,798.875 Z " fill="#000000"/><text fill="#000000" font-family="sans-serif" font-size="14" lengthAdjust="spacing" textLength="93" x="249.75" y="808.7285">Transportation</text><line style="stroke:#181818;stroke-width:0.5;" x1="185" x2="375" y1="819" y2="819"/><ellipse cx="195" cy="833.3047" fill="none" rx="3" ry="3" style="stroke:#038048;stroke-width:1.0;"/><text fill="#000000" font-family="sans-serif" font-size="14" lengthAdjust="spacing" textLength="78" x="204" y="837.5332">int: Capacity</text><ellipse cx="195" cy="850.9141" fill="none" rx="3" ry="3" style="stroke:#038048;stroke-width:1.0;"/><text fill="#000000" font-family="sans-serif" font-size="14" lengthAdjust="spacing" textLength="49" x="204" y="855.1426">int: Size</text><ellipse cx="195" cy="868.5234" fill="none" rx="3" ry="3" style="stroke:#038048;stroke-width:1.0;"/><text fill="#000000" font-family="sans-serif" font-size="14" lengthAdjust="spacing" textLength="118" x="204" y="872.752">string: TypeOfFuel</text><polygon fill="none" points="195,881.1328,199,885.1328,195,889.1328,191,885.1328" style="stroke:#B38D22;stroke-width:1.0;"/><text fill="#000000" font-family="sans-serif" font-size="14" lengthAdjust="spacing" textLength="134" x="204" y="890.3613">VehicleStatus: Status</text><ellipse cx="195" cy="903.7422" fill="none" rx="3" ry="3" style="stroke:#038048;stroke-width:1.0;"/><text fill="#000000" font-family="sans-serif" font-size="14" lengthAdjust="spacing" textLength="92" x="204" y="907.9707">string: License</text><ellipse cx="195" cy="921.3516" fill="none" rx="3" ry="3" style="stroke:#038048;stroke-width:1.0;"/><text fill="#000000" font-family="sans-serif" font-size="14" lengthAdjust="spacing" textLength="81" x="204" y="925.5801">string: Brand</text><ellipse cx="195" cy="938.9609" fill="none" rx="3" ry="3" style="stroke:#038048;stroke-width:1.0;"/><text fill="#000000" font-family="sans-serif" font-size="14" lengthAdjust="spacing" textLength="130" x="204" y="943.1895">DateTime: DateTime</text><ellipse cx="195" cy="956.5703" fill="none" rx="3" ry="3" style="stroke:#038048;stroke-width:1.0;"/><text fill="#000000" font-family="sans-serif" font-size="14" lengthAdjust="spacing" textLength="158" x="204" y="960.7988">DateTime: WarrantyTime</text><ellipse cx="195" cy="974.1797" fill="none" rx="3" ry="3" style="stroke:#038048;stroke-width:1.0;"/><text fill="#000000" font-family="sans-serif" font-size="14" lengthAdjust="spacing" textLength="154" x="204" y="978.4082">DateTime[]: WarrantyHis</text><ellipse cx="195" cy="991.7891" fill="none" rx="3" ry="3" style="stroke:#038048;stroke-width:1.0;"/><text fill="#000000" font-family="sans-serif" font-size="14" lengthAdjust="spacing" textLength="166" x="204" y="996.0176">Journey: JourneyInCharge</text><line style="stroke:#181818;stroke-width:0.5;" x1="185" x2="375" y1="1003.0938" y2="1003.0938"/><ellipse cx="195" cy="1017.3984" fill="#84BE84" rx="3" ry="3" style="stroke:#038048;stroke-width:1.0;"/><text fill="#000000" font-family="sans-serif" font-size="14" lengthAdjust="spacing" textLength="79" x="204" y="1021.627">DisplayInfo()</text></g><polygon fill="none" points="274.0487,1028.7031,280.0566,1049.0232,266.0735,1048.3346" style="stroke:#181818;stroke-width:1.0;"/><line style="stroke:#181818;stroke-width:1.0;" x1="273.0651" x2="273" y1="1048.6789" y2="1050"/><line style="stroke:#181818;stroke-width:1.0;" x1="376" x2="396.34" y1="1012.4568" y2="1034.62"/><line style="stroke:#181818;stroke-width:1.0;" x1="308.4947" x2="314.6246" y1="787" y2="761.0019"/><line style="stroke:#181818;stroke-width:1.0;" x1="238.2906" x2="231.35" y1="787" y2="766.89"/><!--class Car--><g id="elem_Car"><rect codeLine="19" fill="#F1F1F1" height="48" id="Car" rx="2.5" ry="2.5" style="stroke:#181818;stroke-width:0.5;" width="55" x="138.5" y="1136.5"/><ellipse cx="153.5" cy="1152.5" fill="#ADD1B2" rx="11" ry="11" style="stroke:#181818;stroke-width:1.0;"/><path d="M156.2656,1148.375 Q156.4219,1148.1563 156.6094,1148.0469 Q156.7969,1147.9375 157.0156,1147.9375 Q157.3906,1147.9375 157.625,1148.2031 Q157.8594,1148.4531 157.8594,1149.0625 L157.8594,1150.5156 Q157.8594,1151.125 157.625,1151.3906 Q157.3906,1151.6563 157.0156,1151.6563 Q156.6719,1151.6563 156.4688,1151.4531 Q156.2656,1151.2656 156.1563,1150.75 Q156.1094,1150.3906 155.9219,1150.2031 Q155.5938,1149.8281 154.9844,1149.6094 Q154.375,1149.3906 153.75,1149.3906 Q152.9844,1149.3906 152.3438,1149.7188 Q151.7188,1150.0469 151.2188,1150.7969 Q150.7344,1151.5469 150.7344,1152.5781 L150.7344,1153.6719 Q150.7344,1154.9063 151.625,1155.7344 Q152.5156,1156.5469 154.1094,1156.5469 Q155.0469,1156.5469 155.7031,1156.2969 Q156.0938,1156.1406 156.5156,1155.7031 Q156.7813,1155.4375 156.9219,1155.3594 Q157.0781,1155.2813 157.2813,1155.2813 Q157.6094,1155.2813 157.8594,1155.5469 Q158.125,1155.7969 158.125,1156.1406 Q158.125,1156.4844 157.7813,1156.8906 Q157.2813,1157.4688 156.4844,1157.7969 Q155.4063,1158.25 154.1094,1158.25 Q152.5938,1158.25 151.3906,1157.625 Q150.4063,1157.125 149.7188,1156.0625 Q149.0313,1154.9844 149.0313,1153.7031 L149.0313,1152.5469 Q149.0313,1151.2188 149.6406,1150.0781 Q150.2656,1148.9219 151.3594,1148.3125 Q152.4531,1147.6875 153.6875,1147.6875 Q154.4219,1147.6875 155.0625,1147.8594 Q155.7188,1148.0156 156.2656,1148.375 Z " fill="#000000"/><text fill="#000000" font-family="sans-serif" font-size="14" lengthAdjust="spacing" textLength="23" x="167.5" y="1158.2285">Car</text><line style="stroke:#181818;stroke-width:0.5;" x1="139.5" x2="192.5" y1="1168.5" y2="1168.5"/><line style="stroke:#181818;stroke-width:0.5;" x1="139.5" x2="192.5" y1="1176.5" y2="1176.5"/></g><!--class Truck--><g id="elem_Truck"><rect codeLine="22" fill="#F1F1F1" height="48" id="Truck" rx="2.5" ry="2.5" style="stroke:#181818;stroke-width:0.5;" width="68" x="229" y="1136.5"/><ellipse cx="244" cy="1152.5" fill="#ADD1B2" rx="11" ry="11" style="stroke:#181818;stroke-width:1.0;"/><path d="M246.7656,1148.375 Q246.9219,1148.1563 247.1094,1148.0469 Q247.2969,1147.9375 247.5156,1147.9375 Q247.8906,1147.9375 248.125,1148.2031 Q248.3594,1148.4531 248.3594,1149.0625 L248.3594,1150.5156 Q248.3594,1151.125 248.125,1151.3906 Q247.8906,1151.6563 247.5156,1151.6563 Q247.1719,1151.6563 246.9688,1151.4531 Q246.7656,1151.2656 246.6563,1150.75 Q246.6094,1150.3906 246.4219,1150.2031 Q246.0938,1149.8281 245.4844,1149.6094 Q244.875,1149.3906 244.25,1149.3906 Q243.4844,1149.3906 242.8438,1149.7188 Q242.2188,1150.0469 241.7188,1150.7969 Q241.2344,1151.5469 241.2344,1152.5781 L241.2344,1153.6719 Q241.2344,1154.9063 242.125,1155.7344 Q243.0156,1156.5469 244.6094,1156.5469 Q245.5469,1156.5469 246.2031,1156.2969 Q246.5938,1156.1406 247.0156,1155.7031 Q247.2813,1155.4375 247.4219,1155.3594 Q247.5781,1155.2813 247.7813,1155.2813 Q248.1094,1155.2813 248.3594,1155.5469 Q248.625,1155.7969 248.625,1156.1406 Q248.625,1156.4844 248.2813,1156.8906 Q247.7813,1157.4688 246.9844,1157.7969 Q245.9063,1158.25 244.6094,1158.25 Q243.0938,1158.25 241.8906,1157.625 Q240.9063,1157.125 240.2188,1156.0625 Q239.5313,1154.9844 239.5313,1153.7031 L239.5313,1152.5469 Q239.5313,1151.2188 240.1406,1150.0781 Q240.7656,1148.9219 241.8594,1148.3125 Q242.9531,1147.6875 244.1875,1147.6875 Q244.9219,1147.6875 245.5625,1147.8594 Q246.2188,1148.0156 246.7656,1148.375 Z " fill="#000000"/><text fill="#000000" font-family="sans-serif" font-size="14" lengthAdjust="spacing" textLength="36" x="258" y="1158.2285">Truck</text><line style="stroke:#181818;stroke-width:0.5;" x1="230" x2="296" y1="1168.5" y2="1168.5"/><line style="stroke:#181818;stroke-width:0.5;" x1="230" x2="296" y1="1176.5" y2="1176.5"/></g><!--class Coach--><g id="elem_Coach"><rect codeLine="25" fill="#F1F1F1" height="48" id="Coach" rx="2.5" ry="2.5" style="stroke:#181818;stroke-width:0.5;" width="73" x="332.5" y="1136.5"/><ellipse cx="347.5" cy="1152.5" fill="#ADD1B2" rx="11" ry="11" style="stroke:#181818;stroke-width:1.0;"/><path d="M350.2656,1148.375 Q350.4219,1148.1563 350.6094,1148.0469 Q350.7969,1147.9375 351.0156,1147.9375 Q351.3906,1147.9375 351.625,1148.2031 Q351.8594,1148.4531 351.8594,1149.0625 L351.8594,1150.5156 Q351.8594,1151.125 351.625,1151.3906 Q351.3906,1151.6563 351.0156,1151.6563 Q350.6719,1151.6563 350.4688,1151.4531 Q350.2656,1151.2656 350.1563,1150.75 Q350.1094,1150.3906 349.9219,1150.2031 Q349.5938,1149.8281 348.9844,1149.6094 Q348.375,1149.3906 347.75,1149.3906 Q346.9844,1149.3906 346.3438,1149.7188 Q345.7188,1150.0469 345.2188,1150.7969 Q344.7344,1151.5469 344.7344,1152.5781 L344.7344,1153.6719 Q344.7344,1154.9063 345.625,1155.7344 Q346.5156,1156.5469 348.1094,1156.5469 Q349.0469,1156.5469 349.7031,1156.2969 Q350.0938,1156.1406 350.5156,1155.7031 Q350.7813,1155.4375 350.9219,1155.3594 Q351.0781,1155.2813 351.2813,1155.2813 Q351.6094,1155.2813 351.8594,1155.5469 Q352.125,1155.7969 352.125,1156.1406 Q352.125,1156.4844 351.7813,1156.8906 Q351.2813,1157.4688 350.4844,1157.7969 Q349.4063,1158.25 348.1094,1158.25 Q346.5938,1158.25 345.3906,1157.625 Q344.4063,1157.125 343.7188,1156.0625 Q343.0313,1154.9844 343.0313,1153.7031 L343.0313,1152.5469 Q343.0313,1151.2188 343.6406,1150.0781 Q344.2656,1148.9219 345.3594,1148.3125 Q346.4531,1147.6875 347.6875,1147.6875 Q348.4219,1147.6875 349.0625,1147.8594 Q349.7188,1148.0156 350.2656,1148.375 Z " fill="#000000"/><text fill="#000000" font-family="sans-serif" font-size="14" lengthAdjust="spacing" textLength="41" x="361.5" y="1158.2285">Coach</text><line style="stroke:#181818;stroke-width:0.5;" x1="333.5" x2="404.5" y1="1168.5" y2="1168.5"/><line style="stroke:#181818;stroke-width:0.5;" x1="333.5" x2="404.5" y1="1176.5" y2="1176.5"/></g><!--class VehicleStatus--><g id="elem_VehicleStatus"><rect codeLine="29" fill="#F1F1F1" height="100.8281" id="VehicleStatus" rx="2.5" ry="2.5" style="stroke:#181818;stroke-width:0.5;" width="142" x="441" y="1110"/><ellipse cx="466.8" cy="1126" fill="#EB937F" rx="11" ry="11" style="stroke:#181818;stroke-width:1.0;"/><path d="M465.6594,1126.7969 L465.6594,1129.2969 L469.9875,1129.2969 L469.9875,1128.375 Q469.9875,1127.7656 470.2219,1127.5 Q470.4719,1127.2344 470.8469,1127.2344 Q471.2219,1127.2344 471.4563,1127.5 Q471.6906,1127.7656 471.6906,1128.375 L471.6906,1131 L463.6906,1131 Q463.0656,1131 462.8,1130.7656 Q462.55,1130.5313 462.55,1130.1406 Q462.55,1129.7656 462.8156,1129.5313 Q463.0813,1129.2969 463.6906,1129.2969 L463.9563,1129.2969 L463.9563,1122.6406 L463.6906,1122.6406 Q463.0656,1122.6406 462.8,1122.4063 Q462.55,1122.1719 462.55,1121.7813 Q462.55,1121.4063 462.8,1121.1719 Q463.0656,1120.9375 463.6906,1120.9375 L471.3156,1120.9375 L471.3156,1123.5313 Q471.3156,1124.1406 471.0813,1124.4063 Q470.8625,1124.6563 470.4719,1124.6563 Q470.0969,1124.6563 469.8625,1124.4063 Q469.6281,1124.1406 469.6281,1123.5313 L469.6281,1122.6406 L465.6594,1122.6406 L465.6594,1125.0938 L467.1438,1125.0938 Q467.1438,1124.4375 467.2688,1124.25 Q467.5344,1123.8438 468.0031,1123.8438 Q468.3781,1123.8438 468.6125,1124.1094 Q468.8469,1124.3594 468.8469,1124.9688 L468.8469,1126.9375 Q468.8469,1127.4844 468.7219,1127.6719 Q468.4563,1128.0625 468.0031,1128.0625 Q467.5344,1128.0625 467.2688,1127.6563 Q467.1438,1127.4688 467.1438,1126.7969 L465.6594,1126.7969 Z " fill="#000000"/><text fill="#000000" font-family="sans-serif" font-size="14" lengthAdjust="spacing" textLength="86" x="483.2" y="1131.7285">VehicleStatus</text><line style="stroke:#181818;stroke-width:0.5;" x1="442" x2="582" y1="1142" y2="1142"/><text fill="#000000" font-family="sans-serif" font-size="14" lengthAdjust="spacing" textLength="54" x="447" y="1160.5332">1: Active</text><text fill="#000000" font-family="sans-serif" font-size="14" lengthAdjust="spacing" textLength="130" x="447" y="1178.1426">2: UnderMaintainace</text><text fill="#000000" font-family="sans-serif" font-size="14" lengthAdjust="spacing" textLength="75" x="447" y="1195.752">3: NotActive</text><line style="stroke:#181818;stroke-width:0.5;" x1="442" x2="582" y1="1202.8281" y2="1202.8281"/></g><!--class Driver--><g id="elem_Driver"><rect codeLine="34" fill="#F1F1F1" height="241.7031" id="Driver" rx="2.5" ry="2.5" style="stroke:#181818;stroke-width:0.5;" width="192" x="289" y="7"/><ellipse cx="361.75" cy="23" fill="#ADD1B2" rx="11" ry="11" style="stroke:#181818;stroke-width:1.0;"/><path d="M364.5156,18.875 Q364.6719,18.6563 364.8594,18.5469 Q365.0469,18.4375 365.2656,18.4375 Q365.6406,18.4375 365.875,18.7031 Q366.1094,18.9531 366.1094,19.5625 L366.1094,21.0156 Q366.1094,21.625 365.875,21.8906 Q365.6406,22.1563 365.2656,22.1563 Q364.9219,22.1563 364.7188,21.9531 Q364.5156,21.7656 364.4063,21.25 Q364.3594,20.8906 364.1719,20.7031 Q363.8438,20.3281 363.2344,20.1094 Q362.625,19.8906 362,19.8906 Q361.2344,19.8906 360.5938,20.2188 Q359.9688,20.5469 359.4688,21.2969 Q358.9844,22.0469 358.9844,23.0781 L358.9844,24.1719 Q358.9844,25.4063 359.875,26.2344 Q360.7656,27.0469 362.3594,27.0469 Q363.2969,27.0469 363.9531,26.7969 Q364.3438,26.6406 364.7656,26.2031 Q365.0313,25.9375 365.1719,25.8594 Q365.3281,25.7813 365.5313,25.7813 Q365.8594,25.7813 366.1094,26.0469 Q366.375,26.2969 366.375,26.6406 Q366.375,26.9844 366.0313,27.3906 Q365.5313,27.9688 364.7344,28.2969 Q363.6563,28.75 362.3594,28.75 Q360.8438,28.75 359.6406,28.125 Q358.6563,27.625 357.9688,26.5625 Q357.2813,25.4844 357.2813,24.2031 L357.2813,23.0469 Q357.2813,21.7188 357.8906,20.5781 Q358.5156,19.4219 359.6094,18.8125 Q360.7031,18.1875 361.9375,18.1875 Q362.6719,18.1875 363.3125,18.3594 Q363.9688,18.5156 364.5156,18.875 Z " fill="#000000"/><text fill="#000000" font-family="sans-serif" font-size="14" lengthAdjust="spacing" textLength="38" x="382.25" y="28.7285">Driver</text><line style="stroke:#181818;stroke-width:0.5;" x1="290" x2="480" y1="39" y2="39"/><ellipse cx="300" cy="53.3047" fill="none" rx="3" ry="3" style="stroke:#038048;stroke-width:1.0;"/><text fill="#000000" font-family="sans-serif" font-size="14" lengthAdjust="spacing" textLength="79" x="309" y="57.5332">string: Name</text><ellipse cx="300" cy="70.9141" fill="none" rx="3" ry="3" style="stroke:#038048;stroke-width:1.0;"/><text fill="#000000" font-family="sans-serif" font-size="14" lengthAdjust="spacing" textLength="133" x="309" y="75.1426">string: PhoneNumber</text><ellipse cx="300" cy="88.5234" fill="none" rx="3" ry="3" style="stroke:#038048;stroke-width:1.0;"/><text fill="#000000" font-family="sans-serif" font-size="14" lengthAdjust="spacing" textLength="95" x="309" y="92.752">string: Address</text><rect fill="none" height="6" style="stroke:#C82930;stroke-width:1.0;" width="6" x="297" y="103.1328"/><text fill="#000000" font-family="sans-serif" font-size="14" lengthAdjust="spacing" textLength="94" x="309" y="110.3613">string: Account</text><rect fill="none" height="6" style="stroke:#C82930;stroke-width:1.0;" width="6" x="297" y="120.7422"/><text fill="#000000" font-family="sans-serif" font-size="14" lengthAdjust="spacing" textLength="104" x="309" y="127.9707">string: Password</text><ellipse cx="300" cy="141.3516" fill="none" rx="3" ry="3" style="stroke:#038048;stroke-width:1.0;"/><text fill="#000000" font-family="sans-serif" font-size="14" lengthAdjust="spacing" textLength="84" x="309" y="145.5801">string: Licens</text><ellipse cx="300" cy="158.9609" fill="none" rx="3" ry="3" style="stroke:#038048;stroke-width:1.0;"/><text fill="#000000" font-family="sans-serif" font-size="14" lengthAdjust="spacing" textLength="166" x="309" y="163.1895">Quality: DrivingExperience</text><ellipse cx="300" cy="176.5703" fill="none" rx="3" ry="3" style="stroke:#038048;stroke-width:1.0;"/><text fill="#000000" font-family="sans-serif" font-size="14" lengthAdjust="spacing" textLength="166" x="309" y="180.7988">Journey: JourneyInCharge</text><ellipse cx="300" cy="194.1797" fill="none" rx="3" ry="3" style="stroke:#038048;stroke-width:1.0;"/><text fill="#000000" font-family="sans-serif" font-size="14" lengthAdjust="spacing" textLength="130" x="309" y="198.4082">Journey: JourneyList</text><line style="stroke:#181818;stroke-width:0.5;" x1="290" x2="480" y1="205.4844" y2="205.4844"/><ellipse cx="300" cy="219.7891" fill="#84BE84" rx="3" ry="3" style="stroke:#038048;stroke-width:1.0;"/><text fill="#000000" font-family="sans-serif" font-size="14" lengthAdjust="spacing" textLength="79" x="309" y="224.0176">DisplayInfo()</text><ellipse cx="300" cy="237.3984" fill="#84BE84" rx="3" ry="3" style="stroke:#038048;stroke-width:1.0;"/><text fill="#000000" font-family="sans-serif" font-size="14" lengthAdjust="spacing" textLength="120" x="309" y="241.627">CompleteJourney()</text></g><!--class Journey--><g id="elem_Journey"><rect codeLine="48" fill="#F1F1F1" height="224.0938" id="Journey" rx="2.5" ry="2.5" style="stroke:#181818;stroke-width:0.5;" width="173" x="51.5" y="385"/><ellipse cx="108.75" cy="401" fill="#ADD1B2" rx="11" ry="11" style="stroke:#181818;stroke-width:1.0;"/><path d="M111.5156,396.875 Q111.6719,396.6563 111.8594,396.5469 Q112.0469,396.4375 112.2656,396.4375 Q112.6406,396.4375 112.875,396.7031 Q113.1094,396.9531 113.1094,397.5625 L113.1094,399.0156 Q113.1094,399.625 112.875,399.8906 Q112.6406,400.1563 112.2656,400.1563 Q111.9219,400.1563 111.7188,399.9531 Q111.5156,399.7656 111.4063,399.25 Q111.3594,398.8906 111.1719,398.7031 Q110.8438,398.3281 110.2344,398.1094 Q109.625,397.8906 109,397.8906 Q108.2344,397.8906 107.5938,398.2188 Q106.9688,398.5469 106.4688,399.2969 Q105.9844,400.0469 105.9844,401.0781 L105.9844,402.1719 Q105.9844,403.4063 106.875,404.2344 Q107.7656,405.0469 109.3594,405.0469 Q110.2969,405.0469 110.9531,404.7969 Q111.3438,404.6406 111.7656,404.2031 Q112.0313,403.9375 112.1719,403.8594 Q112.3281,403.7813 112.5313,403.7813 Q112.8594,403.7813 113.1094,404.0469 Q113.375,404.2969 113.375,404.6406 Q113.375,404.9844 113.0313,405.3906 Q112.5313,405.9688 111.7344,406.2969 Q110.6563,406.75 109.3594,406.75 Q107.8438,406.75 106.6406,406.125 Q105.6563,405.625 104.9688,404.5625 Q104.2813,403.4844 104.2813,402.2031 L104.2813,401.0469 Q104.2813,399.7188 104.8906,398.5781 Q105.5156,397.4219 106.6094,396.8125 Q107.7031,396.1875 108.9375,396.1875 Q109.6719,396.1875 110.3125,396.3594 Q110.9688,396.5156 111.5156,396.875 Z " fill="#000000"/><text fill="#000000" font-family="sans-serif" font-size="14" lengthAdjust="spacing" textLength="50" x="129.25" y="406.7285">Journey</text><line style="stroke:#181818;stroke-width:0.5;" x1="52.5" x2="223.5" y1="417" y2="417"/><ellipse cx="62.5" cy="431.3047" fill="none" rx="3" ry="3" style="stroke:#038048;stroke-width:1.0;"/><text fill="#000000" font-family="sans-serif" font-size="14" lengthAdjust="spacing" textLength="147" x="71.5" y="435.5332">Transportation: Vehicle</text><ellipse cx="62.5" cy="448.9141" fill="none" rx="3" ry="3" style="stroke:#038048;stroke-width:1.0;"/><text fill="#000000" font-family="sans-serif" font-size="14" lengthAdjust="spacing" textLength="142" x="71.5" y="453.1426">Driver: DriverInCharge</text><ellipse cx="62.5" cy="466.5234" fill="none" rx="3" ry="3" style="stroke:#038048;stroke-width:1.0;"/><text fill="#000000" font-family="sans-serif" font-size="14" lengthAdjust="spacing" textLength="97" x="71.5" y="470.752">double: Kilomet</text><ellipse cx="62.5" cy="484.1328" fill="none" rx="3" ry="3" style="stroke:#038048;stroke-width:1.0;"/><text fill="#000000" font-family="sans-serif" font-size="14" lengthAdjust="spacing" textLength="83" x="71.5" y="488.3613">double: Price</text><ellipse cx="62.5" cy="501.7422" fill="none" rx="3" ry="3" style="stroke:#038048;stroke-width:1.0;"/><text fill="#000000" font-family="sans-serif" font-size="14" lengthAdjust="spacing" textLength="127" x="71.5" y="505.9707">string: StartLocation</text><ellipse cx="62.5" cy="519.3516" fill="none" rx="3" ry="3" style="stroke:#038048;stroke-width:1.0;"/><text fill="#000000" font-family="sans-serif" font-size="14" lengthAdjust="spacing" textLength="122" x="71.5" y="523.5801">string: EndLocation</text><ellipse cx="62.5" cy="536.9609" fill="none" rx="3" ry="3" style="stroke:#038048;stroke-width:1.0;"/><text fill="#000000" font-family="sans-serif" font-size="14" lengthAdjust="spacing" textLength="92" x="71.5" y="541.1895">string: License</text><rect fill="none" height="6" style="stroke:#C82930;stroke-width:1.0;" width="6" x="59.5" y="551.5703"/><text fill="#000000" font-family="sans-serif" font-size="14" lengthAdjust="spacing" textLength="63" x="71.5" y="558.7988">int: Status</text><ellipse cx="62.5" cy="572.1797" fill="none" rx="3" ry="3" style="stroke:#038048;stroke-width:1.0;"/><text fill="#000000" font-family="sans-serif" font-size="14" lengthAdjust="spacing" textLength="74" x="71.5" y="576.4082">string: Time</text><line style="stroke:#181818;stroke-width:0.5;" x1="52.5" x2="223.5" y1="583.4844" y2="583.4844"/><ellipse cx="62.5" cy="597.7891" fill="#84BE84" rx="3" ry="3" style="stroke:#038048;stroke-width:1.0;"/><text fill="#000000" font-family="sans-serif" font-size="14" lengthAdjust="spacing" textLength="79" x="71.5" y="602.0176">DisplayInfo()</text></g><g id="elem_GMN10"><path d="M6,90.5 L6,165.9063 A0,0 0 0 0 6,165.9063 L126.8,165.9063 L135.58,384.8 L134.8,165.9063 L254,165.9063 A0,0 0 0 0 254,165.9063 L254,100.5 L244,90.5 L6,90.5 A0,0 0 0 0 6,90.5 " fill="#FEFFDD" style="stroke:#181818;stroke-width:0.5;"/><path d="M244,90.5 L244,100.5 L254,100.5 L244,90.5 " fill="#FEFFDD" style="stroke:#181818;stroke-width:0.5;"/><text fill="#000000" font-family="sans-serif" font-size="13" lengthAdjust="spacing" textLength="42" x="12" y="108.9951">Status:</text><text fill="#000000" font-family="sans-serif" font-size="13" lengthAdjust="spacing" textLength="185" x="12" y="125.3467">0: ch&#432;a &#273;&#7911; &#273;i&#7873;u ki&#7879;n kh&#7903;i h&#224;nh,</text><text fill="#000000" font-family="sans-serif" font-size="13" lengthAdjust="spacing" textLength="223" x="12" y="141.6982">1 l&#224; &#273;&#7911; &#273;i&#7873;u ki&#7879;n kh&#7903;i h&#224;nh v&#224; &#273;ang &#273;i,</text><text fill="#000000" font-family="sans-serif" font-size="13" lengthAdjust="spacing" textLength="167" x="12" y="158.0498">2 l&#224; &#273;&#227; ho&#224;n th&#224;nh chuy&#7871;n &#273;i</text></g><!--class Admin--><g id="elem_Admin"><rect codeLine="68" fill="#F1F1F1" height="340.4531" id="Admin" rx="2.5" ry="2.5" style="stroke:#181818;stroke-width:0.5;" width="156" x="299" y="327"/><ellipse cx="341.9" cy="348.3516" fill="#ADD1B2" rx="11" ry="11" style="stroke:#181818;stroke-width:1.0;"/><path d="M344.6656,344.2266 Q344.8219,344.0078 345.0094,343.8984 Q345.1969,343.7891 345.4156,343.7891 Q345.7906,343.7891 346.025,344.0547 Q346.2594,344.3047 346.2594,344.9141 L346.2594,346.3672 Q346.2594,346.9766 346.025,347.2422 Q345.7906,347.5078 345.4156,347.5078 Q345.0719,347.5078 344.8688,347.3047 Q344.6656,347.1172 344.5563,346.6016 Q344.5094,346.2422 344.3219,346.0547 Q343.9938,345.6797 343.3844,345.4609 Q342.775,345.2422 342.15,345.2422 Q341.3844,345.2422 340.7438,345.5703 Q340.1188,345.8984 339.6188,346.6484 Q339.1344,347.3984 339.1344,348.4297 L339.1344,349.5234 Q339.1344,350.7578 340.025,351.5859 Q340.9156,352.3984 342.5094,352.3984 Q343.4469,352.3984 344.1031,352.1484 Q344.4938,351.9922 344.9156,351.5547 Q345.1813,351.2891 345.3219,351.2109 Q345.4781,351.1328 345.6813,351.1328 Q346.0094,351.1328 346.2594,351.3984 Q346.525,351.6484 346.525,351.9922 Q346.525,352.3359 346.1813,352.7422 Q345.6813,353.3203 344.8844,353.6484 Q343.8063,354.1016 342.5094,354.1016 Q340.9938,354.1016 339.7906,353.4766 Q338.8063,352.9766 338.1188,351.9141 Q337.4313,350.8359 337.4313,349.5547 L337.4313,348.3984 Q337.4313,347.0703 338.0406,345.9297 Q338.6656,344.7734 339.7594,344.1641 Q340.8531,343.5391 342.0875,343.5391 Q342.8219,343.5391 343.4625,343.7109 Q344.1188,343.8672 344.6656,344.2266 Z " fill="#000000"/><text fill="#000000" font-family="sans-serif" font-size="12" font-style="italic" lengthAdjust="spacing" textLength="66" x="360.1" y="344.457">&#171;Singleton&#187;</text><text fill="#000000" font-family="sans-serif" font-size="14" lengthAdjust="spacing" textLength="39" x="373.6" y="361.627">Admin</text><line style="stroke:#181818;stroke-width:0.5;" x1="300" x2="454" y1="369.7031" y2="369.7031"/><rect fill="none" height="6" style="stroke:#C82930;stroke-width:1.0;" width="6" x="307" y="381.0078"/><text fill="#000000" font-family="sans-serif" font-size="14" lengthAdjust="spacing" textLength="94" x="319" y="388.2363">string: Account</text><rect fill="none" height="6" style="stroke:#C82930;stroke-width:1.0;" width="6" x="307" y="398.6172"/><text fill="#000000" font-family="sans-serif" font-size="14" lengthAdjust="spacing" textLength="104" x="319" y="405.8457">string: Password</text><line style="stroke:#181818;stroke-width:1.0;" x1="300" x2="454" y1="412.9219" y2="412.9219"/><ellipse cx="310" cy="427.2266" fill="#84BE84" rx="3" ry="3" style="stroke:#038048;stroke-width:1.0;"/><text fill="#000000" font-family="sans-serif" font-size="14" lengthAdjust="spacing" textLength="107" x="319" y="431.4551">AddNewVehicle()</text><ellipse cx="310" cy="444.8359" fill="#84BE84" rx="3" ry="3" style="stroke:#038048;stroke-width:1.0;"/><text fill="#000000" font-family="sans-serif" font-size="14" lengthAdjust="spacing" textLength="97" x="319" y="449.0645">DeleteVehicle()</text><ellipse cx="310" cy="462.4453" fill="#84BE84" rx="3" ry="3" style="stroke:#038048;stroke-width:1.0;"/><text fill="#000000" font-family="sans-serif" font-size="14" lengthAdjust="spacing" textLength="101" x="319" y="466.6738">UpdateVehicle()</text><ellipse cx="310" cy="480.0547" fill="#84BE84" rx="3" ry="3" style="stroke:#038048;stroke-width:1.0;"/><text fill="#000000" font-family="sans-serif" font-size="14" lengthAdjust="spacing" textLength="102" x="319" y="484.2832">DisplayVehicle()</text><text fill="#000000" font-family="sans-serif" font-size="14" lengthAdjust="spacing" textLength="4" x="319" y="501.8926">&#160;</text><ellipse cx="310" cy="515.2734" fill="#84BE84" rx="3" ry="3" style="stroke:#038048;stroke-width:1.0;"/><text fill="#000000" font-family="sans-serif" font-size="14" lengthAdjust="spacing" textLength="99" x="319" y="519.502">AddNewDriver()</text><ellipse cx="310" cy="532.8828" fill="#84BE84" rx="3" ry="3" style="stroke:#038048;stroke-width:1.0;"/><text fill="#000000" font-family="sans-serif" font-size="14" lengthAdjust="spacing" textLength="89" x="319" y="537.1113">DeleteDriver()</text><ellipse cx="310" cy="550.4922" fill="#84BE84" rx="3" ry="3" style="stroke:#038048;stroke-width:1.0;"/><text fill="#000000" font-family="sans-serif" font-size="14" lengthAdjust="spacing" textLength="93" x="319" y="554.7207">UpdateDriver()</text><ellipse cx="310" cy="568.1016" fill="#84BE84" rx="3" ry="3" style="stroke:#038048;stroke-width:1.0;"/><text fill="#000000" font-family="sans-serif" font-size="14" lengthAdjust="spacing" textLength="89" x="319" y="572.3301">DisplayDrive()</text><text fill="#000000" font-family="sans-serif" font-size="14" lengthAdjust="spacing" textLength="4" x="319" y="589.9395">&#160;</text><ellipse cx="310" cy="603.3203" fill="#84BE84" rx="3" ry="3" style="stroke:#038048;stroke-width:1.0;"/><text fill="#000000" font-family="sans-serif" font-size="14" lengthAdjust="spacing" textLength="85" x="319" y="607.5488">AddJourney()</text><rect fill="#F24D5C" height="6" style="stroke:#C82930;stroke-width:1.0;" width="6" x="307" y="617.9297"/><text fill="#000000" font-family="sans-serif" font-size="14" lengthAdjust="spacing" textLength="63" x="319" y="625.1582">CalPrice()</text><ellipse cx="310" cy="638.5391" fill="#84BE84" rx="3" ry="3" style="stroke:#038048;stroke-width:1.0;"/><text fill="#000000" font-family="sans-serif" font-size="14" lengthAdjust="spacing" textLength="130" x="319" y="642.7676">CheckForWarranty()</text><ellipse cx="310" cy="656.1484" fill="#84BE84" rx="3" ry="3" style="stroke:#038048;stroke-width:1.0;"/><text fill="#000000" font-family="sans-serif" font-size="14" lengthAdjust="spacing" textLength="95" x="319" y="660.377">CheckIncome()</text></g><!--class Quality--><g id="elem_Quality"><rect codeLine="88" fill="#F1F1F1" height="65.6094" id="Quality" rx="2.5" ry="2.5" style="stroke:#181818;stroke-width:0.5;" width="76" x="565" y="95"/><ellipse cx="580" cy="111" fill="#EB937F" rx="11" ry="11" style="stroke:#181818;stroke-width:1.0;"/><path d="M578.8594,111.7969 L578.8594,114.2969 L583.1875,114.2969 L583.1875,113.375 Q583.1875,112.7656 583.4219,112.5 Q583.6719,112.2344 584.0469,112.2344 Q584.4219,112.2344 584.6563,112.5 Q584.8906,112.7656 584.8906,113.375 L584.8906,116 L576.8906,116 Q576.2656,116 576,115.7656 Q575.75,115.5313 575.75,115.1406 Q575.75,114.7656 576.0156,114.5313 Q576.2813,114.2969 576.8906,114.2969 L577.1563,114.2969 L577.1563,107.6406 L576.8906,107.6406 Q576.2656,107.6406 576,107.4063 Q575.75,107.1719 575.75,106.7813 Q575.75,106.4063 576,106.1719 Q576.2656,105.9375 576.8906,105.9375 L584.5156,105.9375 L584.5156,108.5313 Q584.5156,109.1406 584.2813,109.4063 Q584.0625,109.6563 583.6719,109.6563 Q583.2969,109.6563 583.0625,109.4063 Q582.8281,109.1406 582.8281,108.5313 L582.8281,107.6406 L578.8594,107.6406 L578.8594,110.0938 L580.3438,110.0938 Q580.3438,109.4375 580.4688,109.25 Q580.7344,108.8438 581.2031,108.8438 Q581.5781,108.8438 581.8125,109.1094 Q582.0469,109.3594 582.0469,109.9688 L582.0469,111.9375 Q582.0469,112.4844 581.9219,112.6719 Q581.6563,113.0625 581.2031,113.0625 Q580.7344,113.0625 580.4688,112.6563 Q580.3438,112.4688 580.3438,111.7969 L578.8594,111.7969 Z " fill="#000000"/><text fill="#000000" font-family="sans-serif" font-size="14" lengthAdjust="spacing" textLength="44" x="594" y="116.7285">Quality</text><line style="stroke:#181818;stroke-width:0.5;" x1="566" x2="640" y1="127" y2="127"/><text fill="#000000" font-family="sans-serif" font-size="14" lengthAdjust="spacing" textLength="40" x="571" y="145.5332">1, 2, 3</text><line style="stroke:#181818;stroke-width:0.5;" x1="566" x2="640" y1="152.6094" y2="152.6094"/></g><g id="elem_GMN15"><path d="M490.5,467.5 L490.5,526.5547 A0,0 0 0 0 490.5,526.5547 L811.5,526.5547 A0,0 0 0 0 811.5,526.5547 L811.5,477.5 L801.5,467.5 L651.21,467.5 L607.22,161.25 L643.21,467.5 L490.5,467.5 A0,0 0 0 0 490.5,467.5 " fill="#FEFFDD" style="stroke:#181818;stroke-width:0.5;"/><path d="M801.5,467.5 L801.5,477.5 L811.5,477.5 L801.5,467.5 " fill="#FEFFDD" style="stroke:#181818;stroke-width:0.5;"/><text fill="#000000" font-family="sans-serif" font-size="13" lengthAdjust="spacing" textLength="200" x="496.5" y="485.9951">1 (t&#432;&#417;ng &#273;&#432;&#417;ng b&#7857;ng B) l&#225;i &#273;c car</text><text fill="#000000" font-family="sans-serif" font-size="13" lengthAdjust="spacing" textLength="261" x="496.5" y="502.3467">2 (t&#432;&#417;ng &#273;&#432;&#417;ng b&#7857;ng C) l&#225;i &#273;c truck, (v&#224; car)</text><text fill="#000000" font-family="sans-serif" font-size="13" lengthAdjust="spacing" textLength="300" x="496.5" y="518.6982">3 (t&#432;&#417;ng &#273;&#432;&#417;ng b&#7857;ng D) l&#225;i &#273;c coach (v&#224; car, truck)</text></g><!--reverse link Transportation to Truck--><g id="link_Transportation_Truck"><path codeLine="98" d="M273,1050 C273,1050 268.06,1104.14 265.12,1136.28 " fill="none" id="Transportation-backto-Truck" style="stroke:#181818;stroke-width:1.0;"/></g><!--reverse link Transportation to Car--><g id="link_Transportation_Car"><path codeLine="99" d="M273,1050 C273,1050 238.51,1082.73 212,1110 C203.82,1118.41 195.02,1127.81 187.32,1136.13 " fill="none" id="Transportation-backto-Car" style="stroke:#181818;stroke-width:1.0;"/></g><!--reverse link Transportation to Coach--><g id="link_Transportation_Coach"><path codeLine="100" d="M273,1050 C273,1050 320.46,1104.14 348.64,1136.28 " fill="none" id="Transportation-backto-Coach" style="stroke:#181818;stroke-width:1.0;"/></g><!--link Driver to Quality--><g id="link_Driver_Quality"><path codeLine="101" d="M481.23,128 C509.13,128 537.04,128 564.95,128 " fill="none" id="Driver-Quality" style="stroke:#181818;stroke-width:1.0;"/></g><!--link Driver to Journey--><g id="link_Driver_Journey"><path codeLine="102" d="M304.12,249.17 C274.72,292.86 241.64,342.01 212.78,384.88 " fill="none" id="Driver-Journey" style="stroke:#181818;stroke-width:1.0;"/><text fill="#000000" font-family="sans-serif" font-size="13" lengthAdjust="spacing" textLength="7" x="292.2418" y="270.1515">1</text><text fill="#000000" font-family="sans-serif" font-size="13" lengthAdjust="spacing" textLength="5" x="212.6363" y="374.3132">*</text></g><!--link Transportation to VehicleStatus--><g id="link_Transportation_VehicleStatus"><path codeLine="103" d="M396.34,1034.62 C421.1,1061.35 445.84,1088.06 466.05,1109.88 " fill="none" id="Transportation-VehicleStatus" style="stroke:#181818;stroke-width:1.0;"/></g><!--link Admin to Transportation--><g id="link_Admin_Transportation"><path codeLine="104" d="M336.92,667.01 C329.04,700.22 322.2446,728.8719 314.6246,761.0019 " fill="none" id="Admin-to-Transportation" style="stroke:#181818;stroke-width:1.0;stroke-dasharray:7.0,7.0;"/><polygon fill="#181818" points="313.24,766.84,319.2089,759.0059,314.3938,761.9749,311.4248,757.1599,313.24,766.84" style="stroke:#181818;stroke-width:1.0;"/><text fill="#000000" font-family="sans-serif" font-size="13" lengthAdjust="spacing" textLength="219" x="329" y="711.4951">Adds &amp; Updates &amp; Assign for Journey</text></g><!--reverse link Driver to Admin--><g id="link_Driver_Admin"><path codeLine="105" d="M382.2498,255.1686 C381.7098,280.0486 381.26,300.69 380.69,326.94 " fill="none" id="Driver-backto-Admin" style="stroke:#181818;stroke-width:1.0;stroke-dasharray:7.0,7.0;"/><polygon fill="#181818" points="382.38,249.17,378.1857,258.0811,382.2715,254.1688,386.1838,258.2547,382.38,249.17" style="stroke:#181818;stroke-width:1.0;"/><text fill="#000000" font-family="sans-serif" font-size="13" lengthAdjust="spacing" textLength="163" x="382" y="293.4951">Adds &amp; Journey assignment</text></g><!--reverse link Journey to Admin--><g id="link_Journey_Admin"><path codeLine="106" d="M230.62,497 C254.94,497 275.22,497 299,497 " fill="none" id="Journey-backto-Admin" style="stroke:#181818;stroke-width:1.0;stroke-dasharray:7.0,7.0;"/><polygon fill="#181818" points="224.62,497,233.62,501,229.62,497,233.62,493,224.62,497" style="stroke:#181818;stroke-width:1.0;"/><text fill="#000000" font-family="sans-serif" font-size="13" lengthAdjust="spacing" textLength="38" x="242.75" y="490.4951">Create</text></g><!--link Journey to Transportation--><g id="link_Journey_Transportation"><path codeLine="107" d="M176.61,609.22 C193.49,657.83 213.48,715.39 231.35,766.89 " fill="none" id="Journey-Transportation" style="stroke:#181818;stroke-width:1.0;"/></g><!--SRC=[bLRDRjD04BxxAKP1GWcD9ThUhAXIcZIYK4fHKpXKFMpMctWLUzTQhrj2wO4JPvw0LXoubcjxu53KzyYRCFQk4yT9G4HATlFDpww_-MQIPCn5J1I9OAHa6k-BW2ckYQ0CjXqd9dHCHWpwYeWabaeJpQNe4Qgbca2hrPEXpzJEpgNZ0BveI9AaudoPMxBN1d2XFUWGpChrf8eVyu-iX2LQSJ7oe3-9sPjXBsNXpFW4th60qv0Tun5fWg7vkYBuW5CcabLfT_6IVWdl4itwF6BURBVI-9ue3DIJDGwdPtEN5xnyevSoLO9Dl6ApBpe1KQE593o9GuAMeQmtSlogJ6k7gCjbjAzIEbw1ToIX0HG6D36HHeky6UEc1ssg-RcvoPO79m9B-ffWJV1DgC6tFJYKsZfUEUQChi9lzb9pPW-9fMOE7GLIiCCq6Z1LiRHzNx744ENEKKfbAdG5FS8pBwJodLKrjk3Rb8IeBI-_6vhtFiIePoPeSQM_rc7PVC0JxQmhpmQo7CKXqynwrnkGKMtOiLX1ps9NU4KfYkGvbPvTAvVoPJe8KNolU2WZfYleaUAqIZWMMEa3IVEpAhOzuQ-nbBl5jKqvxwnII_9PXHT9mMSNKZFGCWOvB1XmR9iwppsWmUCjWTzVf_S_y9DFxp-dCCRbYu1nCBt_nY5uk1P14vnD21-k_-q9vxaN4QFC2-EsRDp3TmWaUe0sVZH89zExNo9pmsRm8RjfKQks7t61y-mOdm_hAKKsqlvRawvhMK5L7x8BM-6PMBeiaqeLFObzienQNkVmGcQZaahY2cZoLZrDsXoru3pnJCJs6JiapBKrLtl0wBWdLJ7X5WtxWg8wZGhoOMDxqOwP9cmryIUbaCX0QYsZJ2NM3GjUru-tZpTv9UrcCBtxYSjk0ujwmn6dG8dAYhpMjrForTbmR48zqmZ6DPpjzN7TyXdvy2p2cYPFewIQnMQ6rYVNDPDufGKdzseyEyOn9G9NyL6WtHaT5gvjrbnVNWWNQizgHKCjZ75mqzYjZ1V723gFFFL94Z3_pDrPca5Oz0IUMgbaktQIy960eLIpvhMPGZRKfKp5lB8Ph3EGF3vYs2S5r38FDeirlOP_0nJ3GwkyvEUuHRu_]--></g></svg>