<?xml version="1.0" encoding="us-ascii" standalone="no"?><svg xmlns="http://www.w3.org/2000/svg" xmlns:xlink="http://www.w3.org/1999/xlink" contentStyleType="text/css" height="1004px" preserveAspectRatio="none" style="width:1047px;height:1004px;background:#FFFFFF;" version="1.1" viewBox="0 0 1047 1004" width="1047px" zoomAndPan="magnify"><defs/><g><!--cluster TransportationFactory--><g id="cluster_TransportationFactory"><path d="M386,569.02 L542,569.02 A3.75,3.75 0 0 1 544.5,571.52 L551.5,592.6294 L810,592.6294 A2.5,2.5 0 0 1 812.5,595.1294 L812.5,985.02 A2.5,2.5 0 0 1 810,987.52 L386,987.52 A2.5,2.5 0 0 1 383.5,985.02 L383.5,571.52 A2.5,2.5 0 0 1 386,569.02 " fill="none" style="stroke:#000000;stroke-width:1.5;"/><line style="stroke:#000000;stroke-width:1.5;" x1="383.5" x2="551.5" y1="592.6294" y2="592.6294"/><text fill="#000000" font-family="sans-serif" font-size="14" font-weight="bold" lengthAdjust="spacing" textLength="155" x="387.5" y="585.5532">TransportationFactory</text></g><!--class Transportation--><g id="elem_Transportation"><rect codeLine="5" fill="#F1F1F1" height="171.2656" id="Transportation" rx="2.5" ry="2.5" style="stroke:#181818;stroke-width:0.5;" width="197" x="569" y="645.02"/><ellipse cx="616.75" cy="661.02" fill="#ADD1B2" rx="11" ry="11" style="stroke:#181818;stroke-width:1.0;"/><path d="M619.5156,656.895 Q619.6719,656.6763 619.8594,656.5669 Q620.0469,656.4575 620.2656,656.4575 Q620.6406,656.4575 620.875,656.7231 Q621.1094,656.9731 621.1094,657.5825 L621.1094,659.0356 Q621.1094,659.645 620.875,659.9106 Q620.6406,660.1763 620.2656,660.1763 Q619.9219,660.1763 619.7188,659.9731 Q619.5156,659.7856 619.4063,659.27 Q619.3594,658.9106 619.1719,658.7231 Q618.8438,658.3481 618.2344,658.1294 Q617.625,657.9106 617,657.9106 Q616.2344,657.9106 615.5938,658.2388 Q614.9688,658.5669 614.4688,659.3169 Q613.9844,660.0669 613.9844,661.0981 L613.9844,662.1919 Q613.9844,663.4263 614.875,664.2544 Q615.7656,665.0669 617.3594,665.0669 Q618.2969,665.0669 618.9531,664.8169 Q619.3438,664.6606 619.7656,664.2231 Q620.0313,663.9575 620.1719,663.8794 Q620.3281,663.8013 620.5313,663.8013 Q620.8594,663.8013 621.1094,664.0669 Q621.375,664.3169 621.375,664.6606 Q621.375,665.0044 621.0313,665.4106 Q620.5313,665.9888 619.7344,666.3169 Q618.6563,666.77 617.3594,666.77 Q615.8438,666.77 614.6406,666.145 Q613.6563,665.645 612.9688,664.5825 Q612.2813,663.5044 612.2813,662.2231 L612.2813,661.0669 Q612.2813,659.7388 612.8906,658.5981 Q613.5156,657.4419 614.6094,656.8325 Q615.7031,656.2075 616.9375,656.2075 Q617.6719,656.2075 618.3125,656.3794 Q618.9688,656.5356 619.5156,656.895 Z " fill="#000000"/><text fill="#000000" font-family="sans-serif" font-size="14" lengthAdjust="spacing" textLength="93" x="637.25" y="666.7485">Transportation</text><line style="stroke:#181818;stroke-width:0.5;" x1="570" x2="765" y1="677.02" y2="677.02"/><polygon fill="none" points="580,686.3247,584,690.3247,580,694.3247,576,690.3247" style="stroke:#B38D22;stroke-width:1.0;"/><text fill="#000000" font-family="sans-serif" font-size="14" lengthAdjust="spacing" textLength="78" x="589" y="695.5532">int: Capacity</text><polygon fill="none" points="580,703.9341,584,707.9341,580,711.9341,576,707.9341" style="stroke:#B38D22;stroke-width:1.0;"/><text fill="#000000" font-family="sans-serif" font-size="14" lengthAdjust="spacing" textLength="49" x="589" y="713.1626">int: Size</text><polygon fill="none" points="580,721.5434,584,725.5434,580,729.5434,576,725.5434" style="stroke:#B38D22;stroke-width:1.0;"/><text fill="#000000" font-family="sans-serif" font-size="14" lengthAdjust="spacing" textLength="118" x="589" y="730.772">string: TypeOfFuel</text><polygon fill="none" points="580,739.1528,584,743.1528,580,747.1528,576,743.1528" style="stroke:#B38D22;stroke-width:1.0;"/><text fill="#000000" font-family="sans-serif" font-size="14" lengthAdjust="spacing" textLength="111" x="589" y="748.3813">CarStatus: Status</text><ellipse cx="580" cy="761.7622" fill="none" rx="3" ry="3" style="stroke:#038048;stroke-width:1.0;"/><text fill="#000000" font-family="sans-serif" font-size="14" lengthAdjust="spacing" textLength="171" x="589" y="765.9907">WarrantyService: Warranty</text><ellipse cx="580" cy="779.3716" fill="none" rx="3" ry="3" style="stroke:#038048;stroke-width:1.0;"/><text fill="#000000" font-family="sans-serif" font-size="14" lengthAdjust="spacing" textLength="166" x="589" y="783.6001">Journey: JourneyInCharge</text><line style="stroke:#181818;stroke-width:0.5;" x1="570" x2="765" y1="790.6763" y2="790.6763"/><ellipse cx="580" cy="804.9809" fill="#84BE84" rx="3" ry="3" style="stroke:#038048;stroke-width:1.0;"/><text fill="#000000" font-family="sans-serif" font-size="14" lengthAdjust="spacing" textLength="79" x="589" y="809.2095">DisplayInfo()</text></g><polygon fill="none" points="647.4675,816.2856,649.7277,837.3543,636.0958,834.1654" style="stroke:#181818;stroke-width:1.0;"/><line style="stroke:#181818;stroke-width:1.0;" x1="642.9118" x2="642.5" y1="835.7599" y2="837.52"/><line style="stroke:#181818;stroke-width:1.0;" x1="766" x2="786.14" y1="730.5425" y2="730.52"/><line style="stroke:#181818;stroke-width:1.0;" x1="760.3241" x2="781.9" y1="816.2856" y2="836.19"/><line style="stroke:#181818;stroke-width:1.0;" x1="676.2831" x2="678.9589" y1="645.02" y2="618.932"/><line style="stroke:#181818;stroke-width:1.0;" x1="569" x2="548.7" y1="664.8677" y2="651.31"/><!--class Container--><g id="elem_Container"><rect codeLine="15" fill="#F1F1F1" height="48" id="Container" rx="2.5" ry="2.5" style="stroke:#181818;stroke-width:0.5;" width="94" x="399.5" y="923.52"/><ellipse cx="414.5" cy="939.52" fill="#ADD1B2" rx="11" ry="11" style="stroke:#181818;stroke-width:1.0;"/><path d="M417.2656,935.395 Q417.4219,935.1763 417.6094,935.0669 Q417.7969,934.9575 418.0156,934.9575 Q418.3906,934.9575 418.625,935.2231 Q418.8594,935.4731 418.8594,936.0825 L418.8594,937.5356 Q418.8594,938.145 418.625,938.4106 Q418.3906,938.6763 418.0156,938.6763 Q417.6719,938.6763 417.4688,938.4731 Q417.2656,938.2856 417.1563,937.77 Q417.1094,937.4106 416.9219,937.2231 Q416.5938,936.8481 415.9844,936.6294 Q415.375,936.4106 414.75,936.4106 Q413.9844,936.4106 413.3438,936.7388 Q412.7188,937.0669 412.2188,937.8169 Q411.7344,938.5669 411.7344,939.5981 L411.7344,940.6919 Q411.7344,941.9263 412.625,942.7544 Q413.5156,943.5669 415.1094,943.5669 Q416.0469,943.5669 416.7031,943.3169 Q417.0938,943.1606 417.5156,942.7231 Q417.7813,942.4575 417.9219,942.3794 Q418.0781,942.3013 418.2813,942.3013 Q418.6094,942.3013 418.8594,942.5669 Q419.125,942.8169 419.125,943.1606 Q419.125,943.5044 418.7813,943.9106 Q418.2813,944.4888 417.4844,944.8169 Q416.4063,945.27 415.1094,945.27 Q413.5938,945.27 412.3906,944.645 Q411.4063,944.145 410.7188,943.0825 Q410.0313,942.0044 410.0313,940.7231 L410.0313,939.5669 Q410.0313,938.2388 410.6406,937.0981 Q411.2656,935.9419 412.3594,935.3325 Q413.4531,934.7075 414.6875,934.7075 Q415.4219,934.7075 416.0625,934.8794 Q416.7188,935.0356 417.2656,935.395 Z " fill="#000000"/><text fill="#000000" font-family="sans-serif" font-size="14" lengthAdjust="spacing" textLength="62" x="428.5" y="945.2485">Container</text><line style="stroke:#181818;stroke-width:0.5;" x1="400.5" x2="492.5" y1="955.52" y2="955.52"/><line style="stroke:#181818;stroke-width:0.5;" x1="400.5" x2="492.5" y1="963.52" y2="963.52"/></g><!--class Car--><g id="elem_Car"><rect codeLine="18" fill="#F1F1F1" height="48" id="Car" rx="2.5" ry="2.5" style="stroke:#181818;stroke-width:0.5;" width="55" x="529" y="923.52"/><ellipse cx="544" cy="939.52" fill="#ADD1B2" rx="11" ry="11" style="stroke:#181818;stroke-width:1.0;"/><path d="M546.7656,935.395 Q546.9219,935.1763 547.1094,935.0669 Q547.2969,934.9575 547.5156,934.9575 Q547.8906,934.9575 548.125,935.2231 Q548.3594,935.4731 548.3594,936.0825 L548.3594,937.5356 Q548.3594,938.145 548.125,938.4106 Q547.8906,938.6763 547.5156,938.6763 Q547.1719,938.6763 546.9688,938.4731 Q546.7656,938.2856 546.6563,937.77 Q546.6094,937.4106 546.4219,937.2231 Q546.0938,936.8481 545.4844,936.6294 Q544.875,936.4106 544.25,936.4106 Q543.4844,936.4106 542.8438,936.7388 Q542.2188,937.0669 541.7188,937.8169 Q541.2344,938.5669 541.2344,939.5981 L541.2344,940.6919 Q541.2344,941.9263 542.125,942.7544 Q543.0156,943.5669 544.6094,943.5669 Q545.5469,943.5669 546.2031,943.3169 Q546.5938,943.1606 547.0156,942.7231 Q547.2813,942.4575 547.4219,942.3794 Q547.5781,942.3013 547.7813,942.3013 Q548.1094,942.3013 548.3594,942.5669 Q548.625,942.8169 548.625,943.1606 Q548.625,943.5044 548.2813,943.9106 Q547.7813,944.4888 546.9844,944.8169 Q545.9063,945.27 544.6094,945.27 Q543.0938,945.27 541.8906,944.645 Q540.9063,944.145 540.2188,943.0825 Q539.5313,942.0044 539.5313,940.7231 L539.5313,939.5669 Q539.5313,938.2388 540.1406,937.0981 Q540.7656,935.9419 541.8594,935.3325 Q542.9531,934.7075 544.1875,934.7075 Q544.9219,934.7075 545.5625,934.8794 Q546.2188,935.0356 546.7656,935.395 Z " fill="#000000"/><text fill="#000000" font-family="sans-serif" font-size="14" lengthAdjust="spacing" textLength="23" x="558" y="945.2485">Car</text><line style="stroke:#181818;stroke-width:0.5;" x1="530" x2="583" y1="955.52" y2="955.52"/><line style="stroke:#181818;stroke-width:0.5;" x1="530" x2="583" y1="963.52" y2="963.52"/></g><!--class Truck--><g id="elem_Truck"><rect codeLine="21" fill="#F1F1F1" height="48" id="Truck" rx="2.5" ry="2.5" style="stroke:#181818;stroke-width:0.5;" width="68" x="619.5" y="923.52"/><ellipse cx="634.5" cy="939.52" fill="#ADD1B2" rx="11" ry="11" style="stroke:#181818;stroke-width:1.0;"/><path d="M637.2656,935.395 Q637.4219,935.1763 637.6094,935.0669 Q637.7969,934.9575 638.0156,934.9575 Q638.3906,934.9575 638.625,935.2231 Q638.8594,935.4731 638.8594,936.0825 L638.8594,937.5356 Q638.8594,938.145 638.625,938.4106 Q638.3906,938.6763 638.0156,938.6763 Q637.6719,938.6763 637.4688,938.4731 Q637.2656,938.2856 637.1563,937.77 Q637.1094,937.4106 636.9219,937.2231 Q636.5938,936.8481 635.9844,936.6294 Q635.375,936.4106 634.75,936.4106 Q633.9844,936.4106 633.3438,936.7388 Q632.7188,937.0669 632.2188,937.8169 Q631.7344,938.5669 631.7344,939.5981 L631.7344,940.6919 Q631.7344,941.9263 632.625,942.7544 Q633.5156,943.5669 635.1094,943.5669 Q636.0469,943.5669 636.7031,943.3169 Q637.0938,943.1606 637.5156,942.7231 Q637.7813,942.4575 637.9219,942.3794 Q638.0781,942.3013 638.2813,942.3013 Q638.6094,942.3013 638.8594,942.5669 Q639.125,942.8169 639.125,943.1606 Q639.125,943.5044 638.7813,943.9106 Q638.2813,944.4888 637.4844,944.8169 Q636.4063,945.27 635.1094,945.27 Q633.5938,945.27 632.3906,944.645 Q631.4063,944.145 630.7188,943.0825 Q630.0313,942.0044 630.0313,940.7231 L630.0313,939.5669 Q630.0313,938.2388 630.6406,937.0981 Q631.2656,935.9419 632.3594,935.3325 Q633.4531,934.7075 634.6875,934.7075 Q635.4219,934.7075 636.0625,934.8794 Q636.7188,935.0356 637.2656,935.395 Z " fill="#000000"/><text fill="#000000" font-family="sans-serif" font-size="14" lengthAdjust="spacing" textLength="36" x="648.5" y="945.2485">Truck</text><line style="stroke:#181818;stroke-width:0.5;" x1="620.5" x2="686.5" y1="955.52" y2="955.52"/><line style="stroke:#181818;stroke-width:0.5;" x1="620.5" x2="686.5" y1="963.52" y2="963.52"/></g><!--class Coach--><g id="elem_Coach"><rect codeLine="24" fill="#F1F1F1" height="48" id="Coach" rx="2.5" ry="2.5" style="stroke:#181818;stroke-width:0.5;" width="73" x="723" y="923.52"/><ellipse cx="738" cy="939.52" fill="#ADD1B2" rx="11" ry="11" style="stroke:#181818;stroke-width:1.0;"/><path d="M740.7656,935.395 Q740.9219,935.1763 741.1094,935.0669 Q741.2969,934.9575 741.5156,934.9575 Q741.8906,934.9575 742.125,935.2231 Q742.3594,935.4731 742.3594,936.0825 L742.3594,937.5356 Q742.3594,938.145 742.125,938.4106 Q741.8906,938.6763 741.5156,938.6763 Q741.1719,938.6763 740.9688,938.4731 Q740.7656,938.2856 740.6563,937.77 Q740.6094,937.4106 740.4219,937.2231 Q740.0938,936.8481 739.4844,936.6294 Q738.875,936.4106 738.25,936.4106 Q737.4844,936.4106 736.8438,936.7388 Q736.2188,937.0669 735.7188,937.8169 Q735.2344,938.5669 735.2344,939.5981 L735.2344,940.6919 Q735.2344,941.9263 736.125,942.7544 Q737.0156,943.5669 738.6094,943.5669 Q739.5469,943.5669 740.2031,943.3169 Q740.5938,943.1606 741.0156,942.7231 Q741.2813,942.4575 741.4219,942.3794 Q741.5781,942.3013 741.7813,942.3013 Q742.1094,942.3013 742.3594,942.5669 Q742.625,942.8169 742.625,943.1606 Q742.625,943.5044 742.2813,943.9106 Q741.7813,944.4888 740.9844,944.8169 Q739.9063,945.27 738.6094,945.27 Q737.0938,945.27 735.8906,944.645 Q734.9063,944.145 734.2188,943.0825 Q733.5313,942.0044 733.5313,940.7231 L733.5313,939.5669 Q733.5313,938.2388 734.1406,937.0981 Q734.7656,935.9419 735.8594,935.3325 Q736.9531,934.7075 738.1875,934.7075 Q738.9219,934.7075 739.5625,934.8794 Q740.2188,935.0356 740.7656,935.395 Z " fill="#000000"/><text fill="#000000" font-family="sans-serif" font-size="14" lengthAdjust="spacing" textLength="41" x="752" y="945.2485">Coach</text><line style="stroke:#181818;stroke-width:0.5;" x1="724" x2="795" y1="955.52" y2="955.52"/><line style="stroke:#181818;stroke-width:0.5;" x1="724" x2="795" y1="963.52" y2="963.52"/></g><!--class WarrantyService--><g id="elem_WarrantyService"><rect codeLine="28" fill="#F1F1F1" height="206.4844" id="WarrantyService" rx="2.5" ry="2.5" style="stroke:#181818;stroke-width:0.5;" width="212" x="828.5" y="627.52"/><ellipse cx="877.75" cy="643.52" fill="#ADD1B2" rx="11" ry="11" style="stroke:#181818;stroke-width:1.0;"/><path d="M880.5156,639.395 Q880.6719,639.1763 880.8594,639.0669 Q881.0469,638.9575 881.2656,638.9575 Q881.6406,638.9575 881.875,639.2231 Q882.1094,639.4731 882.1094,640.0825 L882.1094,641.5356 Q882.1094,642.145 881.875,642.4106 Q881.6406,642.6763 881.2656,642.6763 Q880.9219,642.6763 880.7188,642.4731 Q880.5156,642.2856 880.4063,641.77 Q880.3594,641.4106 880.1719,641.2231 Q879.8438,640.8481 879.2344,640.6294 Q878.625,640.4106 878,640.4106 Q877.2344,640.4106 876.5938,640.7388 Q875.9688,641.0669 875.4688,641.8169 Q874.9844,642.5669 874.9844,643.5981 L874.9844,644.6919 Q874.9844,645.9263 875.875,646.7544 Q876.7656,647.5669 878.3594,647.5669 Q879.2969,647.5669 879.9531,647.3169 Q880.3438,647.1606 880.7656,646.7231 Q881.0313,646.4575 881.1719,646.3794 Q881.3281,646.3013 881.5313,646.3013 Q881.8594,646.3013 882.1094,646.5669 Q882.375,646.8169 882.375,647.1606 Q882.375,647.5044 882.0313,647.9106 Q881.5313,648.4888 880.7344,648.8169 Q879.6563,649.27 878.3594,649.27 Q876.8438,649.27 875.6406,648.645 Q874.6563,648.145 873.9688,647.0825 Q873.2813,646.0044 873.2813,644.7231 L873.2813,643.5669 Q873.2813,642.2388 873.8906,641.0981 Q874.5156,639.9419 875.6094,639.3325 Q876.7031,638.7075 877.9375,638.7075 Q878.6719,638.7075 879.3125,638.8794 Q879.9688,639.0356 880.5156,639.395 Z " fill="#000000"/><text fill="#000000" font-family="sans-serif" font-size="14" lengthAdjust="spacing" textLength="105" x="898.25" y="649.2485">WarrantyService</text><line style="stroke:#181818;stroke-width:0.5;" x1="829.5" x2="1039.5" y1="659.52" y2="659.52"/><rect fill="none" height="6" style="stroke:#C82930;stroke-width:1.0;" width="6" x="836.5" y="670.8247"/><text fill="#000000" font-family="sans-serif" font-size="14" lengthAdjust="spacing" textLength="103" x="848.5" y="678.0532">bool: IsWarranty</text><rect fill="none" height="6" style="stroke:#C82930;stroke-width:1.0;" width="6" x="836.5" y="688.4341"/><text fill="#000000" font-family="sans-serif" font-size="14" lengthAdjust="spacing" textLength="158" x="848.5" y="695.6626">DateTime: WarrantyTime</text><rect fill="none" height="6" style="stroke:#C82930;stroke-width:1.0;" width="6" x="836.5" y="706.0434"/><text fill="#000000" font-family="sans-serif" font-size="14" lengthAdjust="spacing" textLength="186" x="848.5" y="713.272">WarrantyHistory: WarrantyHis</text><line style="stroke:#181818;stroke-width:0.5;" x1="829.5" x2="1039.5" y1="720.3481" y2="720.3481"/><rect fill="#F24D5C" height="6" style="stroke:#C82930;stroke-width:1.0;" width="6" x="836.5" y="731.6528"/><text fill="#000000" font-family="sans-serif" font-size="14" lengthAdjust="spacing" textLength="158" x="848.5" y="738.8813">ChangeWarrantyStatus()</text><ellipse cx="839.5" cy="752.2622" fill="#84BE84" rx="3" ry="3" style="stroke:#038048;stroke-width:1.0;"/><text fill="#000000" font-family="sans-serif" font-size="14" lengthAdjust="spacing" textLength="99" x="848.5" y="756.4907">ShowTimeLeft()</text><ellipse cx="839.5" cy="769.8716" fill="#84BE84" rx="3" ry="3" style="stroke:#038048;stroke-width:1.0;"/><text fill="#000000" font-family="sans-serif" font-size="14" lengthAdjust="spacing" textLength="110" x="848.5" y="774.1001">UpdateTimeLeft()</text><ellipse cx="839.5" cy="787.4809" fill="#84BE84" rx="3" ry="3" style="stroke:#038048;stroke-width:1.0;"/><text fill="#000000" font-family="sans-serif" font-size="14" lengthAdjust="spacing" textLength="68" x="848.5" y="791.7095">Warranty()</text><ellipse cx="839.5" cy="805.0903" fill="#84BE84" rx="3" ry="3" style="stroke:#038048;stroke-width:1.0;"/><text fill="#000000" font-family="sans-serif" font-size="14" lengthAdjust="spacing" textLength="96" x="848.5" y="809.3188">DisplayStatus()</text><ellipse cx="839.5" cy="822.6997" fill="#84BE84" rx="3" ry="3" style="stroke:#038048;stroke-width:1.0;"/><text fill="#000000" font-family="sans-serif" font-size="14" lengthAdjust="spacing" textLength="157" x="848.5" y="826.9282">DisplayWarrantyHistory()</text></g><!--class WarrantyHistory--><g id="elem_WarrantyHistory"><rect codeLine="41" fill="#F1F1F1" height="83.2188" id="WarrantyHistory" rx="2.5" ry="2.5" style="stroke:#181818;stroke-width:0.5;" width="183" x="843" y="368.52"/><ellipse cx="880.5" cy="384.52" fill="#ADD1B2" rx="11" ry="11" style="stroke:#181818;stroke-width:1.0;"/><path d="M883.2656,380.395 Q883.4219,380.1763 883.6094,380.0669 Q883.7969,379.9575 884.0156,379.9575 Q884.3906,379.9575 884.625,380.2231 Q884.8594,380.4731 884.8594,381.0825 L884.8594,382.5356 Q884.8594,383.145 884.625,383.4106 Q884.3906,383.6763 884.0156,383.6763 Q883.6719,383.6763 883.4688,383.4731 Q883.2656,383.2856 883.1563,382.77 Q883.1094,382.4106 882.9219,382.2231 Q882.5938,381.8481 881.9844,381.6294 Q881.375,381.4106 880.75,381.4106 Q879.9844,381.4106 879.3438,381.7388 Q878.7188,382.0669 878.2188,382.8169 Q877.7344,383.5669 877.7344,384.5981 L877.7344,385.6919 Q877.7344,386.9263 878.625,387.7544 Q879.5156,388.5669 881.1094,388.5669 Q882.0469,388.5669 882.7031,388.3169 Q883.0938,388.1606 883.5156,387.7231 Q883.7813,387.4575 883.9219,387.3794 Q884.0781,387.3013 884.2813,387.3013 Q884.6094,387.3013 884.8594,387.5669 Q885.125,387.8169 885.125,388.1606 Q885.125,388.5044 884.7813,388.9106 Q884.2813,389.4888 883.4844,389.8169 Q882.4063,390.27 881.1094,390.27 Q879.5938,390.27 878.3906,389.645 Q877.4063,389.145 876.7188,388.0825 Q876.0313,387.0044 876.0313,385.7231 L876.0313,384.5669 Q876.0313,383.2388 876.6406,382.0981 Q877.2656,380.9419 878.3594,380.3325 Q879.4531,379.7075 880.6875,379.7075 Q881.4219,379.7075 882.0625,379.8794 Q882.7188,380.0356 883.2656,380.395 Z " fill="#000000"/><text fill="#000000" font-family="sans-serif" font-size="14" lengthAdjust="spacing" textLength="101" x="899.5" y="390.2485">WarrantyHistory</text><line style="stroke:#181818;stroke-width:0.5;" x1="844" x2="1025" y1="400.52" y2="400.52"/><rect fill="none" height="6" style="stroke:#C82930;stroke-width:1.0;" width="6" x="851" y="411.8247"/><text fill="#000000" font-family="sans-serif" font-size="14" lengthAdjust="spacing" textLength="157" x="863" y="419.0532">DateTime: WarrantyDate</text><line style="stroke:#181818;stroke-width:0.5;" x1="844" x2="1025" y1="426.1294" y2="426.1294"/><ellipse cx="854" cy="440.4341" fill="#84BE84" rx="3" ry="3" style="stroke:#038048;stroke-width:1.0;"/><text fill="#000000" font-family="sans-serif" font-size="14" lengthAdjust="spacing" textLength="56" x="863" y="444.6626">Display()</text></g><!--class CarStatus--><g id="elem_CarStatus"><rect codeLine="46" fill="#F1F1F1" height="100.8281" id="CarStatus" rx="2.5" ry="2.5" style="stroke:#181818;stroke-width:0.5;" width="142" x="831.5" y="897.02"/><ellipse cx="867.65" cy="913.02" fill="#EB937F" rx="11" ry="11" style="stroke:#181818;stroke-width:1.0;"/><path d="M866.5094,913.8169 L866.5094,916.3169 L870.8375,916.3169 L870.8375,915.395 Q870.8375,914.7856 871.0719,914.52 Q871.3219,914.2544 871.6969,914.2544 Q872.0719,914.2544 872.3063,914.52 Q872.5406,914.7856 872.5406,915.395 L872.5406,918.02 L864.5406,918.02 Q863.9156,918.02 863.65,917.7856 Q863.4,917.5513 863.4,917.1606 Q863.4,916.7856 863.6656,916.5513 Q863.9313,916.3169 864.5406,916.3169 L864.8063,916.3169 L864.8063,909.6606 L864.5406,909.6606 Q863.9156,909.6606 863.65,909.4263 Q863.4,909.1919 863.4,908.8013 Q863.4,908.4263 863.65,908.1919 Q863.9156,907.9575 864.5406,907.9575 L872.1656,907.9575 L872.1656,910.5513 Q872.1656,911.1606 871.9313,911.4263 Q871.7125,911.6763 871.3219,911.6763 Q870.9469,911.6763 870.7125,911.4263 Q870.4781,911.1606 870.4781,910.5513 L870.4781,909.6606 L866.5094,909.6606 L866.5094,912.1138 L867.9938,912.1138 Q867.9938,911.4575 868.1188,911.27 Q868.3844,910.8638 868.8531,910.8638 Q869.2281,910.8638 869.4625,911.1294 Q869.6969,911.3794 869.6969,911.9888 L869.6969,913.9575 Q869.6969,914.5044 869.5719,914.6919 Q869.3063,915.0825 868.8531,915.0825 Q868.3844,915.0825 868.1188,914.6763 Q867.9938,914.4888 867.9938,913.8169 L866.5094,913.8169 Z " fill="#000000"/><text fill="#000000" font-family="sans-serif" font-size="14" lengthAdjust="spacing" textLength="63" x="886.35" y="918.7485">CarStatus</text><line style="stroke:#181818;stroke-width:0.5;" x1="832.5" x2="972.5" y1="929.02" y2="929.02"/><text fill="#000000" font-family="sans-serif" font-size="14" lengthAdjust="spacing" textLength="54" x="837.5" y="947.5532">1: Active</text><text fill="#000000" font-family="sans-serif" font-size="14" lengthAdjust="spacing" textLength="130" x="837.5" y="965.1626">2: UnderMaintainace</text><text fill="#000000" font-family="sans-serif" font-size="14" lengthAdjust="spacing" textLength="75" x="837.5" y="982.772">3: NotActive</text><line style="stroke:#181818;stroke-width:0.5;" x1="832.5" x2="972.5" y1="989.8481" y2="989.8481"/></g><!--class Driver--><g id="elem_Driver"><rect codeLine="51" fill="#F1F1F1" height="206.4844" id="Driver" rx="2.5" ry="2.5" style="stroke:#181818;stroke-width:0.5;" width="196" x="380.5" y="31.02"/><ellipse cx="455.25" cy="47.02" fill="#ADD1B2" rx="11" ry="11" style="stroke:#181818;stroke-width:1.0;"/><path d="M458.0156,42.895 Q458.1719,42.6762 458.3594,42.5669 Q458.5469,42.4575 458.7656,42.4575 Q459.1406,42.4575 459.375,42.7231 Q459.6094,42.9731 459.6094,43.5825 L459.6094,45.0356 Q459.6094,45.645 459.375,45.9106 Q459.1406,46.1762 458.7656,46.1762 Q458.4219,46.1762 458.2188,45.9731 Q458.0156,45.7856 457.9063,45.27 Q457.8594,44.9106 457.6719,44.7231 Q457.3438,44.3481 456.7344,44.1294 Q456.125,43.9106 455.5,43.9106 Q454.7344,43.9106 454.0938,44.2387 Q453.4688,44.5669 452.9688,45.3169 Q452.4844,46.0669 452.4844,47.0981 L452.4844,48.1919 Q452.4844,49.4262 453.375,50.2544 Q454.2656,51.0669 455.8594,51.0669 Q456.7969,51.0669 457.4531,50.8169 Q457.8438,50.6606 458.2656,50.2231 Q458.5313,49.9575 458.6719,49.8794 Q458.8281,49.8012 459.0313,49.8012 Q459.3594,49.8012 459.6094,50.0669 Q459.875,50.3169 459.875,50.6606 Q459.875,51.0044 459.5313,51.4106 Q459.0313,51.9887 458.2344,52.3169 Q457.1563,52.77 455.8594,52.77 Q454.3438,52.77 453.1406,52.145 Q452.1563,51.645 451.4688,50.5825 Q450.7813,49.5044 450.7813,48.2231 L450.7813,47.0669 Q450.7813,45.7387 451.3906,44.5981 Q452.0156,43.4419 453.1094,42.8325 Q454.2031,42.2075 455.4375,42.2075 Q456.1719,42.2075 456.8125,42.3794 Q457.4688,42.5356 458.0156,42.895 Z " fill="#000000"/><text fill="#000000" font-family="sans-serif" font-size="14" lengthAdjust="spacing" textLength="38" x="475.75" y="52.7485">Driver</text><line style="stroke:#181818;stroke-width:0.5;" x1="381.5" x2="575.5" y1="63.02" y2="63.02"/><rect fill="none" height="6" style="stroke:#C82930;stroke-width:1.0;" width="6" x="388.5" y="74.3247"/><text fill="#000000" font-family="sans-serif" font-size="14" lengthAdjust="spacing" textLength="79" x="400.5" y="81.5532">string: Name</text><rect fill="none" height="6" style="stroke:#C82930;stroke-width:1.0;" width="6" x="388.5" y="91.9341"/><text fill="#000000" font-family="sans-serif" font-size="14" lengthAdjust="spacing" textLength="133" x="400.5" y="99.1626">string: PhoneNumber</text><rect fill="none" height="6" style="stroke:#C82930;stroke-width:1.0;" width="6" x="388.5" y="109.5434"/><text fill="#000000" font-family="sans-serif" font-size="14" lengthAdjust="spacing" textLength="95" x="400.5" y="116.772">string: Address</text><ellipse cx="391.5" cy="130.1528" fill="none" rx="3" ry="3" style="stroke:#038048;stroke-width:1.0;"/><text fill="#000000" font-family="sans-serif" font-size="14" lengthAdjust="spacing" textLength="166" x="400.5" y="134.3813">DrivingExperience: Quality</text><rect fill="none" height="6" style="stroke:#C82930;stroke-width:1.0;" width="6" x="388.5" y="144.7622"/><text fill="#000000" font-family="sans-serif" font-size="14" lengthAdjust="spacing" textLength="133" x="400.5" y="151.9907">image: DriverLicense</text><ellipse cx="391.5" cy="165.3716" fill="none" rx="3" ry="3" style="stroke:#038048;stroke-width:1.0;"/><text fill="#000000" font-family="sans-serif" font-size="14" lengthAdjust="spacing" textLength="166" x="400.5" y="169.6001">Journey: JourneyInCharge</text><ellipse cx="391.5" cy="182.9809" fill="none" rx="3" ry="3" style="stroke:#038048;stroke-width:1.0;"/><text fill="#000000" font-family="sans-serif" font-size="14" lengthAdjust="spacing" textLength="170" x="400.5" y="187.2095">JourneyHistory: JourneyHis</text><line style="stroke:#181818;stroke-width:0.5;" x1="381.5" x2="575.5" y1="194.2856" y2="194.2856"/><ellipse cx="391.5" cy="208.5903" fill="#84BE84" rx="3" ry="3" style="stroke:#038048;stroke-width:1.0;"/><text fill="#000000" font-family="sans-serif" font-size="14" lengthAdjust="spacing" textLength="79" x="400.5" y="212.8188">DisplayInfo()</text><ellipse cx="391.5" cy="226.1997" fill="#84BE84" rx="3" ry="3" style="stroke:#038048;stroke-width:1.0;"/><text fill="#000000" font-family="sans-serif" font-size="14" lengthAdjust="spacing" textLength="120" x="400.5" y="230.4282">CompleteJourney()</text></g><path d="M215.5,107.52 L215.5,150.2231 A0,0 0 0 0 215.5,150.2231 L345.5,150.2231 A0,0 0 0 0 345.5,150.2231 L345.5,132.8716 L384.5,224.6997 L345.5,124.8716 L345.5,117.52 L335.5,107.52 L215.5,107.52 A0,0 0 0 0 215.5,107.52 " fill="#FEFFDD" style="stroke:#181818;stroke-width:0.5;"/><path d="M335.5,107.52 L335.5,117.52 L345.5,117.52 L335.5,107.52 " fill="#FEFFDD" style="stroke:#181818;stroke-width:0.5;"/><text fill="#000000" font-family="sans-serif" font-size="13" lengthAdjust="spacing" textLength="109" x="221.5" y="126.0151">AddJourneyHistory</text><text fill="#000000" font-family="sans-serif" font-size="13" lengthAdjust="spacing" textLength="82" x="221.5" y="142.3667">DeleteJourney</text><!--class Journey--><g id="elem_Journey"><rect codeLine="67" fill="#F1F1F1" height="188.875" id="Journey" rx="2.5" ry="2.5" style="stroke:#181818;stroke-width:0.5;" width="173" x="157" y="315.52"/><ellipse cx="214.25" cy="331.52" fill="#ADD1B2" rx="11" ry="11" style="stroke:#181818;stroke-width:1.0;"/><path d="M217.0156,327.395 Q217.1719,327.1763 217.3594,327.0669 Q217.5469,326.9575 217.7656,326.9575 Q218.1406,326.9575 218.375,327.2231 Q218.6094,327.4731 218.6094,328.0825 L218.6094,329.5356 Q218.6094,330.145 218.375,330.4106 Q218.1406,330.6763 217.7656,330.6763 Q217.4219,330.6763 217.2188,330.4731 Q217.0156,330.2856 216.9063,329.77 Q216.8594,329.4106 216.6719,329.2231 Q216.3438,328.8481 215.7344,328.6294 Q215.125,328.4106 214.5,328.4106 Q213.7344,328.4106 213.0938,328.7388 Q212.4688,329.0669 211.9688,329.8169 Q211.4844,330.5669 211.4844,331.5981 L211.4844,332.6919 Q211.4844,333.9263 212.375,334.7544 Q213.2656,335.5669 214.8594,335.5669 Q215.7969,335.5669 216.4531,335.3169 Q216.8438,335.1606 217.2656,334.7231 Q217.5313,334.4575 217.6719,334.3794 Q217.8281,334.3013 218.0313,334.3013 Q218.3594,334.3013 218.6094,334.5669 Q218.875,334.8169 218.875,335.1606 Q218.875,335.5044 218.5313,335.9106 Q218.0313,336.4888 217.2344,336.8169 Q216.1563,337.27 214.8594,337.27 Q213.3438,337.27 212.1406,336.645 Q211.1563,336.145 210.4688,335.0825 Q209.7813,334.0044 209.7813,332.7231 L209.7813,331.5669 Q209.7813,330.2388 210.3906,329.0981 Q211.0156,327.9419 212.1094,327.3325 Q213.2031,326.7075 214.4375,326.7075 Q215.1719,326.7075 215.8125,326.8794 Q216.4688,327.0356 217.0156,327.395 Z " fill="#000000"/><text fill="#000000" font-family="sans-serif" font-size="14" lengthAdjust="spacing" textLength="50" x="234.75" y="337.2485">Journey</text><line style="stroke:#181818;stroke-width:0.5;" x1="158" x2="329" y1="347.52" y2="347.52"/><rect fill="none" height="6" style="stroke:#C82930;stroke-width:1.0;" width="6" x="165" y="358.8247"/><text fill="#000000" font-family="sans-serif" font-size="14" lengthAdjust="spacing" textLength="147" x="177" y="366.0532">Transportation: Vehicle</text><rect fill="none" height="6" style="stroke:#C82930;stroke-width:1.0;" width="6" x="165" y="376.4341"/><text fill="#000000" font-family="sans-serif" font-size="14" lengthAdjust="spacing" textLength="142" x="177" y="383.6626">Driver: DriverInCharge</text><rect fill="none" height="6" style="stroke:#C82930;stroke-width:1.0;" width="6" x="165" y="394.0434"/><text fill="#000000" font-family="sans-serif" font-size="14" lengthAdjust="spacing" textLength="97" x="177" y="401.272">double: Kilomet</text><rect fill="none" height="6" style="stroke:#C82930;stroke-width:1.0;" width="6" x="165" y="411.6528"/><text fill="#000000" font-family="sans-serif" font-size="14" lengthAdjust="spacing" textLength="83" x="177" y="418.8813">double: Price</text><rect fill="none" height="6" style="stroke:#C82930;stroke-width:1.0;" width="6" x="165" y="429.2622"/><text fill="#000000" font-family="sans-serif" font-size="14" lengthAdjust="spacing" textLength="100" x="177" y="436.4907">DateTime: Time</text><rect fill="none" height="6" style="stroke:#C82930;stroke-width:1.0;" width="6" x="165" y="446.8716"/><text fill="#000000" font-family="sans-serif" font-size="14" lengthAdjust="spacing" textLength="127" x="177" y="454.1001">string: StartLocation</text><rect fill="none" height="6" style="stroke:#C82930;stroke-width:1.0;" width="6" x="165" y="464.4809"/><text fill="#000000" font-family="sans-serif" font-size="14" lengthAdjust="spacing" textLength="122" x="177" y="471.7095">string: EndLocation</text><line style="stroke:#181818;stroke-width:0.5;" x1="158" x2="329" y1="478.7856" y2="478.7856"/><ellipse cx="168" cy="493.0903" fill="#84BE84" rx="3" ry="3" style="stroke:#038048;stroke-width:1.0;"/><text fill="#000000" font-family="sans-serif" font-size="14" lengthAdjust="spacing" textLength="79" x="177" y="497.3188">DisplayInfo()</text></g><!--class JourneyHistory--><g id="elem_JourneyHistory"><rect codeLine="78" fill="#F1F1F1" height="100.8281" id="JourneyHistory" rx="2.5" ry="2.5" style="stroke:#181818;stroke-width:0.5;" width="173" x="7" y="83.52"/><ellipse cx="43.6" cy="99.52" fill="#ADD1B2" rx="11" ry="11" style="stroke:#181818;stroke-width:1.0;"/><path d="M46.3656,95.395 Q46.5219,95.1762 46.7094,95.0669 Q46.8969,94.9575 47.1156,94.9575 Q47.4906,94.9575 47.725,95.2231 Q47.9594,95.4731 47.9594,96.0825 L47.9594,97.5356 Q47.9594,98.145 47.725,98.4106 Q47.4906,98.6762 47.1156,98.6762 Q46.7719,98.6762 46.5688,98.4731 Q46.3656,98.2856 46.2563,97.77 Q46.2094,97.4106 46.0219,97.2231 Q45.6938,96.8481 45.0844,96.6294 Q44.475,96.4106 43.85,96.4106 Q43.0844,96.4106 42.4438,96.7387 Q41.8188,97.0669 41.3188,97.8169 Q40.8344,98.5669 40.8344,99.5981 L40.8344,100.6919 Q40.8344,101.9262 41.725,102.7544 Q42.6156,103.5669 44.2094,103.5669 Q45.1469,103.5669 45.8031,103.3169 Q46.1938,103.1606 46.6156,102.7231 Q46.8813,102.4575 47.0219,102.3794 Q47.1781,102.3012 47.3813,102.3012 Q47.7094,102.3012 47.9594,102.5669 Q48.225,102.8169 48.225,103.1606 Q48.225,103.5044 47.8813,103.9106 Q47.3813,104.4887 46.5844,104.8169 Q45.5063,105.27 44.2094,105.27 Q42.6938,105.27 41.4906,104.645 Q40.5063,104.145 39.8188,103.0825 Q39.1313,102.0044 39.1313,100.7231 L39.1313,99.5669 Q39.1313,98.2387 39.7406,97.0981 Q40.3656,95.9419 41.4594,95.3325 Q42.5531,94.7075 43.7875,94.7075 Q44.5219,94.7075 45.1625,94.8794 Q45.8188,95.0356 46.3656,95.395 Z " fill="#000000"/><text fill="#000000" font-family="sans-serif" font-size="14" lengthAdjust="spacing" textLength="93" x="62.4" y="105.2485">JourneyHistory</text><line style="stroke:#181818;stroke-width:0.5;" x1="8" x2="179" y1="115.52" y2="115.52"/><ellipse cx="18" cy="129.8247" fill="none" rx="3" ry="3" style="stroke:#038048;stroke-width:1.0;"/><text fill="#000000" font-family="sans-serif" font-size="14" lengthAdjust="spacing" textLength="69" x="27" y="134.0532">int: Kilomet</text><ellipse cx="18" cy="147.4341" fill="none" rx="3" ry="3" style="stroke:#038048;stroke-width:1.0;"/><text fill="#000000" font-family="sans-serif" font-size="14" lengthAdjust="spacing" textLength="83" x="27" y="151.6626">double: Price</text><ellipse cx="18" cy="165.0434" fill="none" rx="3" ry="3" style="stroke:#038048;stroke-width:1.0;"/><text fill="#000000" font-family="sans-serif" font-size="14" lengthAdjust="spacing" textLength="147" x="27" y="169.272">Transportation: Vehicle</text><line style="stroke:#181818;stroke-width:0.5;" x1="8" x2="179" y1="176.3481" y2="176.3481"/></g><!--class System--><g id="elem_System"><rect codeLine="84" fill="#F1F1F1" height="189.9688" id="System" rx="2.5" ry="2.5" style="stroke:#181818;stroke-width:0.5;" width="150" x="625.5" y="315.02"/><ellipse cx="665.7" cy="336.3716" fill="#ADD1B2" rx="11" ry="11" style="stroke:#181818;stroke-width:1.0;"/><path d="M668.4656,332.2466 Q668.6219,332.0278 668.8094,331.9184 Q668.9969,331.8091 669.2156,331.8091 Q669.5906,331.8091 669.825,332.0747 Q670.0594,332.3247 670.0594,332.9341 L670.0594,334.3872 Q670.0594,334.9966 669.825,335.2622 Q669.5906,335.5278 669.2156,335.5278 Q668.8719,335.5278 668.6688,335.3247 Q668.4656,335.1372 668.3563,334.6216 Q668.3094,334.2622 668.1219,334.0747 Q667.7938,333.6997 667.1844,333.4809 Q666.575,333.2622 665.95,333.2622 Q665.1844,333.2622 664.5438,333.5903 Q663.9188,333.9184 663.4188,334.6684 Q662.9344,335.4184 662.9344,336.4497 L662.9344,337.5434 Q662.9344,338.7778 663.825,339.6059 Q664.7156,340.4184 666.3094,340.4184 Q667.2469,340.4184 667.9031,340.1684 Q668.2938,340.0122 668.7156,339.5747 Q668.9813,339.3091 669.1219,339.2309 Q669.2781,339.1528 669.4813,339.1528 Q669.8094,339.1528 670.0594,339.4184 Q670.325,339.6684 670.325,340.0122 Q670.325,340.3559 669.9813,340.7622 Q669.4813,341.3403 668.6844,341.6684 Q667.6063,342.1216 666.3094,342.1216 Q664.7938,342.1216 663.5906,341.4966 Q662.6063,340.9966 661.9188,339.9341 Q661.2313,338.8559 661.2313,337.5747 L661.2313,336.4184 Q661.2313,335.0903 661.8406,333.9497 Q662.4656,332.7934 663.5594,332.1841 Q664.6531,331.5591 665.8875,331.5591 Q666.6219,331.5591 667.2625,331.7309 Q667.9188,331.8872 668.4656,332.2466 Z " fill="#000000"/><text fill="#000000" font-family="sans-serif" font-size="12" font-style="italic" lengthAdjust="spacing" textLength="66" x="683.3" y="332.477">&#171;Singleton&#187;</text><text fill="#000000" font-family="sans-serif" font-size="14" lengthAdjust="spacing" textLength="46" x="693.3" y="349.647">System</text><line style="stroke:#181818;stroke-width:0.5;" x1="626.5" x2="774.5" y1="357.7231" y2="357.7231"/><ellipse cx="636.5" cy="372.0278" fill="#84BE84" rx="3" ry="3" style="stroke:#038048;stroke-width:1.0;"/><text fill="#000000" font-family="sans-serif" font-size="14" lengthAdjust="spacing" textLength="107" x="645.5" y="376.2563">AddNewVehicle()</text><ellipse cx="636.5" cy="389.6372" fill="#84BE84" rx="3" ry="3" style="stroke:#038048;stroke-width:1.0;"/><text fill="#000000" font-family="sans-serif" font-size="14" lengthAdjust="spacing" textLength="99" x="645.5" y="393.8657">AddNewDriver()</text><line style="stroke:#181818;stroke-width:1.0;" x1="626.5" x2="774.5" y1="400.9419" y2="400.9419"/><ellipse cx="636.5" cy="415.2466" fill="#84BE84" rx="3" ry="3" style="stroke:#038048;stroke-width:1.0;"/><text fill="#000000" font-family="sans-serif" font-size="14" lengthAdjust="spacing" textLength="102" x="645.5" y="419.4751">DisplayVehicle()</text><ellipse cx="636.5" cy="432.8559" fill="#84BE84" rx="3" ry="3" style="stroke:#038048;stroke-width:1.0;"/><text fill="#000000" font-family="sans-serif" font-size="14" lengthAdjust="spacing" textLength="89" x="645.5" y="437.0845">DisplayDrive()</text><line style="stroke:#181818;stroke-width:1.0;" x1="626.5" x2="774.5" y1="444.1606" y2="444.1606"/><ellipse cx="636.5" cy="458.4653" fill="#84BE84" rx="3" ry="3" style="stroke:#038048;stroke-width:1.0;"/><text fill="#000000" font-family="sans-serif" font-size="14" lengthAdjust="spacing" textLength="85" x="645.5" y="462.6938">AddJourney()</text><rect fill="#F24D5C" height="6" style="stroke:#C82930;stroke-width:1.0;" width="6" x="633.5" y="473.0747"/><text fill="#000000" font-family="sans-serif" font-size="14" lengthAdjust="spacing" textLength="108" x="645.5" y="480.3032">CalDisAndPrice()</text><ellipse cx="636.5" cy="493.6841" fill="#84BE84" rx="3" ry="3" style="stroke:#038048;stroke-width:1.0;"/><text fill="#000000" font-family="sans-serif" font-size="14" lengthAdjust="spacing" textLength="124" x="645.5" y="497.9126">UpdateVehicleInfo()</text></g><path d="M365,333.02 L365,408.4263 A0,0 0 0 0 365,408.4263 L590,408.4263 A0,0 0 0 0 590,408.4263 L590,374.7231 L629.5,492.1841 L590,366.7231 L590,343.02 L580,333.02 L365,333.02 A0,0 0 0 0 365,333.02 " fill="#FEFFDD" style="stroke:#181818;stroke-width:0.5;"/><path d="M580,333.02 L580,343.02 L590,343.02 L580,333.02 " fill="#FEFFDD" style="stroke:#181818;stroke-width:0.5;"/><text fill="#000000" font-family="sans-serif" font-size="13" lengthAdjust="spacing" textLength="138" x="371" y="351.5151">- Update Vehicle Status</text><text fill="#000000" font-family="sans-serif" font-size="13" lengthAdjust="spacing" textLength="148" x="371" y="367.8667">- Update Warranty Status</text><text fill="#000000" font-family="sans-serif" font-size="13" lengthAdjust="spacing" textLength="141" x="371" y="384.2182">base on Time of Journey</text><text fill="#000000" font-family="sans-serif" font-size="13" lengthAdjust="spacing" textLength="204" x="371" y="400.5698">When the Driver CompleteJourney()</text><path d="M365,418.4263 L365,477.4809 A0,0 0 0 0 365,477.4809 L515,477.4809 A0,0 0 0 0 515,477.4809 L515,451.9536 L629.5,456.9653 L515,443.9536 L515,428.4263 L505,418.4263 L365,418.4263 A0,0 0 0 0 365,418.4263 " fill="#FEFFDD" style="stroke:#181818;stroke-width:0.5;"/><path d="M505,418.4263 L505,428.4263 L515,428.4263 L505,418.4263 " fill="#FEFFDD" style="stroke:#181818;stroke-width:0.5;"/><text fill="#000000" font-family="sans-serif" font-size="13" lengthAdjust="spacing" textLength="129" x="371" y="436.9214">- Find Driver &amp; Vehicle</text><text fill="#000000" font-family="sans-serif" font-size="13" lengthAdjust="spacing" textLength="110" x="371" y="453.2729">- Calculate Kilomet</text><text fill="#000000" font-family="sans-serif" font-size="13" lengthAdjust="spacing" textLength="88" x="371" y="469.6245">&amp; Time &amp; Price</text><!--class DrivingExperience--><g id="elem_DrivingExperience"><rect codeLine="109" fill="#F1F1F1" height="118.4375" id="DrivingExperience" rx="2.5" ry="2.5" style="stroke:#181818;stroke-width:0.5;" width="146" x="611.5" y="75.02"/><ellipse cx="626.5" cy="91.02" fill="#EB937F" rx="11" ry="11" style="stroke:#181818;stroke-width:1.0;"/><path d="M625.3594,91.8169 L625.3594,94.3169 L629.6875,94.3169 L629.6875,93.395 Q629.6875,92.7856 629.9219,92.52 Q630.1719,92.2544 630.5469,92.2544 Q630.9219,92.2544 631.1563,92.52 Q631.3906,92.7856 631.3906,93.395 L631.3906,96.02 L623.3906,96.02 Q622.7656,96.02 622.5,95.7856 Q622.25,95.5512 622.25,95.1606 Q622.25,94.7856 622.5156,94.5512 Q622.7813,94.3169 623.3906,94.3169 L623.6563,94.3169 L623.6563,87.6606 L623.3906,87.6606 Q622.7656,87.6606 622.5,87.4262 Q622.25,87.1919 622.25,86.8012 Q622.25,86.4262 622.5,86.1919 Q622.7656,85.9575 623.3906,85.9575 L631.0156,85.9575 L631.0156,88.5512 Q631.0156,89.1606 630.7813,89.4262 Q630.5625,89.6762 630.1719,89.6762 Q629.7969,89.6762 629.5625,89.4262 Q629.3281,89.1606 629.3281,88.5512 L629.3281,87.6606 L625.3594,87.6606 L625.3594,90.1137 L626.8438,90.1137 Q626.8438,89.4575 626.9688,89.27 Q627.2344,88.8637 627.7031,88.8637 Q628.0781,88.8637 628.3125,89.1294 Q628.5469,89.3794 628.5469,89.9887 L628.5469,91.9575 Q628.5469,92.5044 628.4219,92.6919 Q628.1563,93.0825 627.7031,93.0825 Q627.2344,93.0825 626.9688,92.6762 Q626.8438,92.4887 626.8438,91.8169 L625.3594,91.8169 Z " fill="#000000"/><text fill="#000000" font-family="sans-serif" font-size="14" lengthAdjust="spacing" textLength="114" x="640.5" y="96.7485">DrivingExperience</text><line style="stroke:#181818;stroke-width:0.5;" x1="612.5" x2="756.5" y1="107.02" y2="107.02"/><text fill="#000000" font-family="sans-serif" font-size="14" lengthAdjust="spacing" textLength="52" x="617.5" y="125.5532">1: Truck</text><text fill="#000000" font-family="sans-serif" font-size="14" lengthAdjust="spacing" textLength="39" x="617.5" y="143.1626">2: Car</text><text fill="#000000" font-family="sans-serif" font-size="14" lengthAdjust="spacing" textLength="57" x="617.5" y="160.772">3: Coach</text><text fill="#000000" font-family="sans-serif" font-size="14" lengthAdjust="spacing" textLength="78" x="617.5" y="178.3813">4: Container</text><line style="stroke:#181818;stroke-width:0.5;" x1="612.5" x2="756.5" y1="185.4575" y2="185.4575"/></g><!--reverse link Transportation to Truck--><g id="link_Transportation_Truck"><path codeLine="116" d="M642.5,837.52 C642.5,837.52 647.94,891.41 651.17,923.4 " fill="none" id="Transportation-backto-Truck" style="stroke:#181818;stroke-width:1.0;"/></g><!--reverse link Transportation to Car--><g id="link_Transportation_Car"><path codeLine="117" d="M642.5,837.52 C642.5,837.52 599.98,891.41 574.74,923.4 " fill="none" id="Transportation-backto-Car" style="stroke:#181818;stroke-width:1.0;"/></g><!--reverse link Transportation to Coach--><g id="link_Transportation_Coach"><path codeLine="118" d="M642.5,837.52 C642.5,837.52 700.34,891.41 734.69,923.4 " fill="none" id="Transportation-backto-Coach" style="stroke:#181818;stroke-width:1.0;"/></g><!--reverse link Transportation to Container--><g id="link_Transportation_Container"><path codeLine="119" d="M642.5,837.52 C642.5,837.52 566.39,864.22 511.5,897.02 C498.59,904.73 485.23,914.54 474,923.4 " fill="none" id="Transportation-backto-Container" style="stroke:#181818;stroke-width:1.0;"/></g><!--link Transportation to WarrantyService--><g id="link_Transportation_WarrantyService"><path codeLine="120" d="M786.14,730.52 C800.24,730.52 814.34,730.52 828.44,730.52 " fill="none" id="Transportation-WarrantyService" style="stroke:#181818;stroke-width:1.0;"/></g><!--link Driver to DrivingExperience--><g id="link_Driver_DrivingExperience"><path codeLine="121" d="M576.67,134.02 C588.18,134.02 599.7,134.02 611.21,134.02 " fill="none" id="Driver-DrivingExperience" style="stroke:#181818;stroke-width:1.0;"/></g><!--link Driver to Journey--><g id="link_Driver_Journey"><path codeLine="122" d="M390.99,237.05 C368.94,262.76 353.1937,281.1325 331.5137,306.4025 " fill="none" id="Driver-to-Journey" style="stroke:#181818;stroke-width:1.0;"/><polygon fill="#181818" points="323.7,315.51,330.6427,313.5608,331.5137,306.4025,324.571,308.3517,323.7,315.51" style="stroke:#181818;stroke-width:1.0;"/></g><!--link Transportation to CarStatus--><g id="link_Transportation_CarStatus"><path codeLine="123" d="M781.9,836.19 C805.01,857.33 828.29,878.62 848.14,896.78 " fill="none" id="Transportation-CarStatus" style="stroke:#181818;stroke-width:1.0;"/></g><!--link WarrantyHistory to WarrantyService--><g id="link_WarrantyHistory_WarrantyService"><path codeLine="124" d="M934.5,451.68 C934.5,495.7 934.5,555.62 934.5,615.25 " fill="none" id="WarrantyHistory-to-WarrantyService" style="stroke:#181818;stroke-width:1.0;"/><polygon fill="#181818" points="934.5,627.25,938.5,621.25,934.5,615.25,930.5,621.25,934.5,627.25" style="stroke:#181818;stroke-width:1.0;"/><text fill="#000000" font-family="sans-serif" font-size="13" lengthAdjust="spacing" textLength="20" x="912.9063" y="473.1003">1..*</text><text fill="#000000" font-family="sans-serif" font-size="13" lengthAdjust="spacing" textLength="7" x="927.243" y="616.5688">1</text></g><!--link System to Transportation--><g id="link_System_Transportation"><path codeLine="125" d="M690.73,505.29 C686.84,542.89 682.9589,580.362 678.9589,618.932 " fill="none" id="System-to-Transportation" style="stroke:#181818;stroke-width:1.0;stroke-dasharray:7.0,7.0;"/><polygon fill="#181818" points="678.34,624.9,683.2471,616.3606,678.8558,619.9267,675.2897,615.5354,678.34,624.9" style="stroke:#181818;stroke-width:1.0;"/><text fill="#000000" font-family="sans-serif" font-size="13" lengthAdjust="spacing" textLength="219" x="688.5" y="549.5151">Adds &amp; Updates &amp; Assign for Journey</text></g><!--reverse link Driver to System--><g id="link_Driver_System"><path codeLine="126" d="M564.9369,241.7121 C586.0169,267.7321 604.79,290.89 625.46,316.41 " fill="none" id="Driver-backto-System" style="stroke:#181818;stroke-width:1.0;stroke-dasharray:7.0,7.0;"/><polygon fill="#181818" points="561.16,237.05,563.7174,246.561,564.3075,240.935,569.9334,241.5251,561.16,237.05" style="stroke:#181818;stroke-width:1.0;"/><text fill="#000000" font-family="sans-serif" font-size="13" lengthAdjust="spacing" textLength="227" x="597.5" y="281.5151">Adds &amp; Journey assignment &amp; Observe</text></g><!--reverse link Journey to System--><g id="link_Journey_System"><path codeLine="127" d="M335.1929,322.7373 C340.8429,318.7273 341.7,318.43 347.5,315.02 C379.01,296.52 389.43,294.87 425.5,289.02 C506.16,275.93 538.22,271.69 607.5,315.02 C613.57,318.81 619.53,323.08 625.32,327.65 " fill="none" id="Journey-backto-System" style="stroke:#181818;stroke-width:1.0;stroke-dasharray:7.0,7.0;"/><polygon fill="#181818" points="330.3,326.21,339.9545,324.2629,334.3774,323.3161,335.3243,317.7391,330.3,326.21" style="stroke:#181818;stroke-width:1.0;"/><text fill="#000000" font-family="sans-serif" font-size="13" lengthAdjust="spacing" textLength="102" x="426.5" y="281.5151">Create &amp; Observe</text></g><!--reverse link Journey to Transportation--><g id="link_Journey_Transportation"><path codeLine="128" d="M339.3712,498.5506 C345.1512,503.4406 341.79,500.47 347.5,505.02 C411.96,556.44 487.31,609.62 548.7,651.31 " fill="none" id="Journey-backto-Transportation" style="stroke:#181818;stroke-width:1.0;"/><polygon fill="#181818" points="330.21,490.8,332.2071,497.729,339.3712,498.5506,337.3742,491.6216,330.21,490.8" style="stroke:#181818;stroke-width:1.0;"/></g><!--link JourneyHistory to Driver--><g id="link_JourneyHistory_Driver"><path codeLine="129" d="M129.05,83.27 C150.51,57.43 180.39,28.82 215,16.02 C242.09,6 317.91,6 345,16.02 C357.18,20.53 368.97,26.73 380.15,33.96 " fill="none" id="JourneyHistory-Driver" style="stroke:#181818;stroke-width:1.0;"/><text fill="#000000" font-family="sans-serif" font-size="13" lengthAdjust="spacing" textLength="20" x="112.643" y="72.5402">0..*</text><text fill="#000000" font-family="sans-serif" font-size="13" lengthAdjust="spacing" textLength="7" x="365.3521" y="23.1767">1</text></g><!--SRC=[VLLDRziu4BthLmnS86XZg6YsUnA2087JODFD9YsSjeUY1reQMqGaKY2fPbrl_dk75AaFobdxOElD1sVUF8xq8nSDKwo6dP9jSoDALDmmaIEyJvA6vOziX_2WcD2DL8OPBiKrourKUpW_lvPLWUhYuf0aG9-yObf7pWTdiPzNm8N9OCKeApVx65_pNpZ2j55Sx39us3TulxrkiHePLqojANshASpzzhObV6EA2Z3xDQgVFCUi1qO-7sMh1EwpyET6h4gcTZXokUAwgHXPjlBr6uS_ZvjSIM4O5wWE04UiJ1tcw8DgyyV3iLmiB-6GFDCtwQ2eYIueXOsKLGOtUj9I2bVCu0ElHxtQ9syCq5zSswbbOo3nFjIzs65_gAFKTxs4TIcVRBvRt9eU_D8K_j0975BqWASnIkdHg3GopmZmfiEBdLfachLBWwAj1vrqyMSPNEQ6_-m2_iZWYo3v_aDpjBDaUOU_p-1E6k_uxEkvKlIaGXb1d7Uifpb0dqefyAwjDwWYosLHADGw54i92VxmRqCN3eKLwkUMLRmVAg_fvcN-u5iIWT2XqV-LRs_k1puy9ozfUqaYh9iA3Nhdrs-0UXVI85GqO91RNqcMpJnT1kfkUgv3ht3aIJCfmAOCG_PuO7MwE3BuYYNFgq2mFzx_JbfEeP3jfYAs_kQLhD54w2V5SvmfQ7H7meX8BChSojmL4Da-Y69YYMbyZhgQA7VPxRXnUSiZvIrVvA3FljvhWpNjtZLLHUHAOTTl5qmpkCCd7z9FjaCxsZoOfjCMuX0FkvWuP1XqiD0rgoZYKXIkasX7-Dm3InDHTUrasSpNf-xmG8FVzZ0rXbKmiMwOHf32JTaU53HeRTzA561Az5gQQt-arAFL3XpuIguv1VXi9v5mYPsyhMoXVlnTWITTQIT-_CE9RdFDraE_mTnR92mmMd1XPxctY7luCnjUJvRmgQRW_ByqzLcEMMpAexZBVzmI3ekigUAxqgJnsopnH0NphDVUeP1F8ZqDLFVR7DAsYTT54Xq2YxC5d3h7nTdRjwUB-9MI-9la3lbUC5rYyIEzcDr0chMcANLQi_ykjUOx0LkfUb65L5OderHXPVaKtXkOIr2ZC0JURpGLZ4amddUiz5c2vc2bq6feY8Z9jeSFP7aAYONEi7ZdI9Wkfzy0]--></g></svg>