<?xml version="1.0" encoding="us-ascii" standalone="no"?><svg xmlns="http://www.w3.org/2000/svg" xmlns:xlink="http://www.w3.org/1999/xlink" contentStyleType="text/css" height="1094px" preserveAspectRatio="none" style="width:937px;height:1094px;background:#FFFFFF;" version="1.1" viewBox="0 0 937 1094" width="937px" zoomAndPan="magnify"><defs/><g><!--cluster TransportationFactory--><g id="cluster_TransportationFactory"><path d="M107.5,608 L263.5,608 A3.75,3.75 0 0 1 266,610.5 L273,631.6094 L531.5,631.6094 A2.5,2.5 0 0 1 534,634.1094 L534,1075 A2.5,2.5 0 0 1 531.5,1077.5 L107.5,1077.5 A2.5,2.5 0 0 1 105,1075 L105,610.5 A2.5,2.5 0 0 1 107.5,608 " fill="none" style="stroke:#000000;stroke-width:1.5;"/><line style="stroke:#000000;stroke-width:1.5;" x1="105" x2="273" y1="631.6094" y2="631.6094"/><text fill="#000000" font-family="sans-serif" font-size="14" font-weight="bold" lengthAdjust="spacing" textLength="155" x="109" y="624.5332">TransportationFactory</text></g><!--class Transportation--><g id="elem_Transportation"><rect codeLine="5" fill="#F1F1F1" height="241.7031" id="Transportation" rx="2.5" ry="2.5" style="stroke:#181818;stroke-width:0.5;" width="192" x="279" y="664"/><ellipse cx="324.25" cy="680" fill="#ADD1B2" rx="11" ry="11" style="stroke:#181818;stroke-width:1.0;"/><path d="M327.0156,675.875 Q327.1719,675.6563 327.3594,675.5469 Q327.5469,675.4375 327.7656,675.4375 Q328.1406,675.4375 328.375,675.7031 Q328.6094,675.9531 328.6094,676.5625 L328.6094,678.0156 Q328.6094,678.625 328.375,678.8906 Q328.1406,679.1563 327.7656,679.1563 Q327.4219,679.1563 327.2188,678.9531 Q327.0156,678.7656 326.9063,678.25 Q326.8594,677.8906 326.6719,677.7031 Q326.3438,677.3281 325.7344,677.1094 Q325.125,676.8906 324.5,676.8906 Q323.7344,676.8906 323.0938,677.2188 Q322.4688,677.5469 321.9688,678.2969 Q321.4844,679.0469 321.4844,680.0781 L321.4844,681.1719 Q321.4844,682.4063 322.375,683.2344 Q323.2656,684.0469 324.8594,684.0469 Q325.7969,684.0469 326.4531,683.7969 Q326.8438,683.6406 327.2656,683.2031 Q327.5313,682.9375 327.6719,682.8594 Q327.8281,682.7813 328.0313,682.7813 Q328.3594,682.7813 328.6094,683.0469 Q328.875,683.2969 328.875,683.6406 Q328.875,683.9844 328.5313,684.3906 Q328.0313,684.9688 327.2344,685.2969 Q326.1563,685.75 324.8594,685.75 Q323.3438,685.75 322.1406,685.125 Q321.1563,684.625 320.4688,683.5625 Q319.7813,682.4844 319.7813,681.2031 L319.7813,680.0469 Q319.7813,678.7188 320.3906,677.5781 Q321.0156,676.4219 322.1094,675.8125 Q323.2031,675.1875 324.4375,675.1875 Q325.1719,675.1875 325.8125,675.3594 Q326.4688,675.5156 327.0156,675.875 Z " fill="#000000"/><text fill="#000000" font-family="sans-serif" font-size="14" lengthAdjust="spacing" textLength="93" x="344.75" y="685.7285">Transportation</text><line style="stroke:#181818;stroke-width:0.5;" x1="280" x2="470" y1="696" y2="696"/><ellipse cx="290" cy="710.3047" fill="none" rx="3" ry="3" style="stroke:#038048;stroke-width:1.0;"/><text fill="#000000" font-family="sans-serif" font-size="14" lengthAdjust="spacing" textLength="78" x="299" y="714.5332">int: Capacity</text><ellipse cx="290" cy="727.9141" fill="none" rx="3" ry="3" style="stroke:#038048;stroke-width:1.0;"/><text fill="#000000" font-family="sans-serif" font-size="14" lengthAdjust="spacing" textLength="49" x="299" y="732.1426">int: Size</text><ellipse cx="290" cy="745.5234" fill="none" rx="3" ry="3" style="stroke:#038048;stroke-width:1.0;"/><text fill="#000000" font-family="sans-serif" font-size="14" lengthAdjust="spacing" textLength="118" x="299" y="749.752">string: TypeOfFuel</text><polygon fill="none" points="290,758.1328,294,762.1328,290,766.1328,286,762.1328" style="stroke:#B38D22;stroke-width:1.0;"/><text fill="#000000" font-family="sans-serif" font-size="14" lengthAdjust="spacing" textLength="134" x="299" y="767.3613">VehicleStatus: Status</text><ellipse cx="290" cy="780.7422" fill="none" rx="3" ry="3" style="stroke:#038048;stroke-width:1.0;"/><text fill="#000000" font-family="sans-serif" font-size="14" lengthAdjust="spacing" textLength="92" x="299" y="784.9707">string: License</text><ellipse cx="290" cy="798.3516" fill="none" rx="3" ry="3" style="stroke:#038048;stroke-width:1.0;"/><text fill="#000000" font-family="sans-serif" font-size="14" lengthAdjust="spacing" textLength="81" x="299" y="802.5801">string: Brand</text><ellipse cx="290" cy="815.9609" fill="none" rx="3" ry="3" style="stroke:#038048;stroke-width:1.0;"/><text fill="#000000" font-family="sans-serif" font-size="14" lengthAdjust="spacing" textLength="130" x="299" y="820.1895">DateTime: DateTime</text><ellipse cx="290" cy="833.5703" fill="none" rx="3" ry="3" style="stroke:#038048;stroke-width:1.0;"/><text fill="#000000" font-family="sans-serif" font-size="14" lengthAdjust="spacing" textLength="158" x="299" y="837.7988">DateTime: WarrantyTime</text><ellipse cx="290" cy="851.1797" fill="none" rx="3" ry="3" style="stroke:#038048;stroke-width:1.0;"/><text fill="#000000" font-family="sans-serif" font-size="14" lengthAdjust="spacing" textLength="154" x="299" y="855.4082">DateTime[]: WarrantyHis</text><ellipse cx="290" cy="868.7891" fill="none" rx="3" ry="3" style="stroke:#038048;stroke-width:1.0;"/><text fill="#000000" font-family="sans-serif" font-size="14" lengthAdjust="spacing" textLength="166" x="299" y="873.0176">Journey: JourneyInCharge</text><line style="stroke:#181818;stroke-width:0.5;" x1="280" x2="470" y1="880.0938" y2="880.0938"/><ellipse cx="290" cy="894.3984" fill="#84BE84" rx="3" ry="3" style="stroke:#038048;stroke-width:1.0;"/><text fill="#000000" font-family="sans-serif" font-size="14" lengthAdjust="spacing" textLength="79" x="299" y="898.627">DisplayInfo()</text></g><polygon fill="none" points="354.5957,905.7031,358.1684,926.5894,344.3638,924.2586" style="stroke:#181818;stroke-width:1.0;"/><line style="stroke:#181818;stroke-width:1.0;" x1="351.2661" x2="351" y1="925.424" y2="927"/><line style="stroke:#181818;stroke-width:1.0;" x1="471" x2="491.12" y1="882.3797" y2="902.82"/><line style="stroke:#181818;stroke-width:1.0;" x1="415.7837" x2="424.5484" y1="664" y2="638.0283"/><line style="stroke:#181818;stroke-width:1.0;" x1="313.6785" x2="303.51" y1="664" y2="643.96"/><!--class Container--><g id="elem_Container"><rect codeLine="19" fill="#F1F1F1" height="48" id="Container" rx="2.5" ry="2.5" style="stroke:#181818;stroke-width:0.5;" width="94" x="121" y="1013.5"/><ellipse cx="136" cy="1029.5" fill="#ADD1B2" rx="11" ry="11" style="stroke:#181818;stroke-width:1.0;"/><path d="M138.7656,1025.375 Q138.9219,1025.1563 139.1094,1025.0469 Q139.2969,1024.9375 139.5156,1024.9375 Q139.8906,1024.9375 140.125,1025.2031 Q140.3594,1025.4531 140.3594,1026.0625 L140.3594,1027.5156 Q140.3594,1028.125 140.125,1028.3906 Q139.8906,1028.6563 139.5156,1028.6563 Q139.1719,1028.6563 138.9688,1028.4531 Q138.7656,1028.2656 138.6563,1027.75 Q138.6094,1027.3906 138.4219,1027.2031 Q138.0938,1026.8281 137.4844,1026.6094 Q136.875,1026.3906 136.25,1026.3906 Q135.4844,1026.3906 134.8438,1026.7188 Q134.2188,1027.0469 133.7188,1027.7969 Q133.2344,1028.5469 133.2344,1029.5781 L133.2344,1030.6719 Q133.2344,1031.9063 134.125,1032.7344 Q135.0156,1033.5469 136.6094,1033.5469 Q137.5469,1033.5469 138.2031,1033.2969 Q138.5938,1033.1406 139.0156,1032.7031 Q139.2813,1032.4375 139.4219,1032.3594 Q139.5781,1032.2813 139.7813,1032.2813 Q140.1094,1032.2813 140.3594,1032.5469 Q140.625,1032.7969 140.625,1033.1406 Q140.625,1033.4844 140.2813,1033.8906 Q139.7813,1034.4688 138.9844,1034.7969 Q137.9063,1035.25 136.6094,1035.25 Q135.0938,1035.25 133.8906,1034.625 Q132.9063,1034.125 132.2188,1033.0625 Q131.5313,1031.9844 131.5313,1030.7031 L131.5313,1029.5469 Q131.5313,1028.2188 132.1406,1027.0781 Q132.7656,1025.9219 133.8594,1025.3125 Q134.9531,1024.6875 136.1875,1024.6875 Q136.9219,1024.6875 137.5625,1024.8594 Q138.2188,1025.0156 138.7656,1025.375 Z " fill="#000000"/><text fill="#000000" font-family="sans-serif" font-size="14" lengthAdjust="spacing" textLength="62" x="150" y="1035.2285">Container</text><line style="stroke:#181818;stroke-width:0.5;" x1="122" x2="214" y1="1045.5" y2="1045.5"/><line style="stroke:#181818;stroke-width:0.5;" x1="122" x2="214" y1="1053.5" y2="1053.5"/></g><!--class Car--><g id="elem_Car"><rect codeLine="22" fill="#F1F1F1" height="48" id="Car" rx="2.5" ry="2.5" style="stroke:#181818;stroke-width:0.5;" width="55" x="250.5" y="1013.5"/><ellipse cx="265.5" cy="1029.5" fill="#ADD1B2" rx="11" ry="11" style="stroke:#181818;stroke-width:1.0;"/><path d="M268.2656,1025.375 Q268.4219,1025.1563 268.6094,1025.0469 Q268.7969,1024.9375 269.0156,1024.9375 Q269.3906,1024.9375 269.625,1025.2031 Q269.8594,1025.4531 269.8594,1026.0625 L269.8594,1027.5156 Q269.8594,1028.125 269.625,1028.3906 Q269.3906,1028.6563 269.0156,1028.6563 Q268.6719,1028.6563 268.4688,1028.4531 Q268.2656,1028.2656 268.1563,1027.75 Q268.1094,1027.3906 267.9219,1027.2031 Q267.5938,1026.8281 266.9844,1026.6094 Q266.375,1026.3906 265.75,1026.3906 Q264.9844,1026.3906 264.3438,1026.7188 Q263.7188,1027.0469 263.2188,1027.7969 Q262.7344,1028.5469 262.7344,1029.5781 L262.7344,1030.6719 Q262.7344,1031.9063 263.625,1032.7344 Q264.5156,1033.5469 266.1094,1033.5469 Q267.0469,1033.5469 267.7031,1033.2969 Q268.0938,1033.1406 268.5156,1032.7031 Q268.7813,1032.4375 268.9219,1032.3594 Q269.0781,1032.2813 269.2813,1032.2813 Q269.6094,1032.2813 269.8594,1032.5469 Q270.125,1032.7969 270.125,1033.1406 Q270.125,1033.4844 269.7813,1033.8906 Q269.2813,1034.4688 268.4844,1034.7969 Q267.4063,1035.25 266.1094,1035.25 Q264.5938,1035.25 263.3906,1034.625 Q262.4063,1034.125 261.7188,1033.0625 Q261.0313,1031.9844 261.0313,1030.7031 L261.0313,1029.5469 Q261.0313,1028.2188 261.6406,1027.0781 Q262.2656,1025.9219 263.3594,1025.3125 Q264.4531,1024.6875 265.6875,1024.6875 Q266.4219,1024.6875 267.0625,1024.8594 Q267.7188,1025.0156 268.2656,1025.375 Z " fill="#000000"/><text fill="#000000" font-family="sans-serif" font-size="14" lengthAdjust="spacing" textLength="23" x="279.5" y="1035.2285">Car</text><line style="stroke:#181818;stroke-width:0.5;" x1="251.5" x2="304.5" y1="1045.5" y2="1045.5"/><line style="stroke:#181818;stroke-width:0.5;" x1="251.5" x2="304.5" y1="1053.5" y2="1053.5"/></g><!--class Truck--><g id="elem_Truck"><rect codeLine="25" fill="#F1F1F1" height="48" id="Truck" rx="2.5" ry="2.5" style="stroke:#181818;stroke-width:0.5;" width="68" x="341" y="1013.5"/><ellipse cx="356" cy="1029.5" fill="#ADD1B2" rx="11" ry="11" style="stroke:#181818;stroke-width:1.0;"/><path d="M358.7656,1025.375 Q358.9219,1025.1563 359.1094,1025.0469 Q359.2969,1024.9375 359.5156,1024.9375 Q359.8906,1024.9375 360.125,1025.2031 Q360.3594,1025.4531 360.3594,1026.0625 L360.3594,1027.5156 Q360.3594,1028.125 360.125,1028.3906 Q359.8906,1028.6563 359.5156,1028.6563 Q359.1719,1028.6563 358.9688,1028.4531 Q358.7656,1028.2656 358.6563,1027.75 Q358.6094,1027.3906 358.4219,1027.2031 Q358.0938,1026.8281 357.4844,1026.6094 Q356.875,1026.3906 356.25,1026.3906 Q355.4844,1026.3906 354.8438,1026.7188 Q354.2188,1027.0469 353.7188,1027.7969 Q353.2344,1028.5469 353.2344,1029.5781 L353.2344,1030.6719 Q353.2344,1031.9063 354.125,1032.7344 Q355.0156,1033.5469 356.6094,1033.5469 Q357.5469,1033.5469 358.2031,1033.2969 Q358.5938,1033.1406 359.0156,1032.7031 Q359.2813,1032.4375 359.4219,1032.3594 Q359.5781,1032.2813 359.7813,1032.2813 Q360.1094,1032.2813 360.3594,1032.5469 Q360.625,1032.7969 360.625,1033.1406 Q360.625,1033.4844 360.2813,1033.8906 Q359.7813,1034.4688 358.9844,1034.7969 Q357.9063,1035.25 356.6094,1035.25 Q355.0938,1035.25 353.8906,1034.625 Q352.9063,1034.125 352.2188,1033.0625 Q351.5313,1031.9844 351.5313,1030.7031 L351.5313,1029.5469 Q351.5313,1028.2188 352.1406,1027.0781 Q352.7656,1025.9219 353.8594,1025.3125 Q354.9531,1024.6875 356.1875,1024.6875 Q356.9219,1024.6875 357.5625,1024.8594 Q358.2188,1025.0156 358.7656,1025.375 Z " fill="#000000"/><text fill="#000000" font-family="sans-serif" font-size="14" lengthAdjust="spacing" textLength="36" x="370" y="1035.2285">Truck</text><line style="stroke:#181818;stroke-width:0.5;" x1="342" x2="408" y1="1045.5" y2="1045.5"/><line style="stroke:#181818;stroke-width:0.5;" x1="342" x2="408" y1="1053.5" y2="1053.5"/></g><!--class Coach--><g id="elem_Coach"><rect codeLine="28" fill="#F1F1F1" height="48" id="Coach" rx="2.5" ry="2.5" style="stroke:#181818;stroke-width:0.5;" width="73" x="444.5" y="1013.5"/><ellipse cx="459.5" cy="1029.5" fill="#ADD1B2" rx="11" ry="11" style="stroke:#181818;stroke-width:1.0;"/><path d="M462.2656,1025.375 Q462.4219,1025.1563 462.6094,1025.0469 Q462.7969,1024.9375 463.0156,1024.9375 Q463.3906,1024.9375 463.625,1025.2031 Q463.8594,1025.4531 463.8594,1026.0625 L463.8594,1027.5156 Q463.8594,1028.125 463.625,1028.3906 Q463.3906,1028.6563 463.0156,1028.6563 Q462.6719,1028.6563 462.4688,1028.4531 Q462.2656,1028.2656 462.1563,1027.75 Q462.1094,1027.3906 461.9219,1027.2031 Q461.5938,1026.8281 460.9844,1026.6094 Q460.375,1026.3906 459.75,1026.3906 Q458.9844,1026.3906 458.3438,1026.7188 Q457.7188,1027.0469 457.2188,1027.7969 Q456.7344,1028.5469 456.7344,1029.5781 L456.7344,1030.6719 Q456.7344,1031.9063 457.625,1032.7344 Q458.5156,1033.5469 460.1094,1033.5469 Q461.0469,1033.5469 461.7031,1033.2969 Q462.0938,1033.1406 462.5156,1032.7031 Q462.7813,1032.4375 462.9219,1032.3594 Q463.0781,1032.2813 463.2813,1032.2813 Q463.6094,1032.2813 463.8594,1032.5469 Q464.125,1032.7969 464.125,1033.1406 Q464.125,1033.4844 463.7813,1033.8906 Q463.2813,1034.4688 462.4844,1034.7969 Q461.4063,1035.25 460.1094,1035.25 Q458.5938,1035.25 457.3906,1034.625 Q456.4063,1034.125 455.7188,1033.0625 Q455.0313,1031.9844 455.0313,1030.7031 L455.0313,1029.5469 Q455.0313,1028.2188 455.6406,1027.0781 Q456.2656,1025.9219 457.3594,1025.3125 Q458.4531,1024.6875 459.6875,1024.6875 Q460.4219,1024.6875 461.0625,1024.8594 Q461.7188,1025.0156 462.2656,1025.375 Z " fill="#000000"/><text fill="#000000" font-family="sans-serif" font-size="14" lengthAdjust="spacing" textLength="41" x="473.5" y="1035.2285">Coach</text><line style="stroke:#181818;stroke-width:0.5;" x1="445.5" x2="516.5" y1="1045.5" y2="1045.5"/><line style="stroke:#181818;stroke-width:0.5;" x1="445.5" x2="516.5" y1="1053.5" y2="1053.5"/></g><!--class VehicleStatus--><g id="elem_VehicleStatus"><rect codeLine="32" fill="#F1F1F1" height="100.8281" id="VehicleStatus" rx="2.5" ry="2.5" style="stroke:#181818;stroke-width:0.5;" width="142" x="553" y="987"/><ellipse cx="578.8" cy="1003" fill="#EB937F" rx="11" ry="11" style="stroke:#181818;stroke-width:1.0;"/><path d="M577.6594,1003.7969 L577.6594,1006.2969 L581.9875,1006.2969 L581.9875,1005.375 Q581.9875,1004.7656 582.2219,1004.5 Q582.4719,1004.2344 582.8469,1004.2344 Q583.2219,1004.2344 583.4563,1004.5 Q583.6906,1004.7656 583.6906,1005.375 L583.6906,1008 L575.6906,1008 Q575.0656,1008 574.8,1007.7656 Q574.55,1007.5313 574.55,1007.1406 Q574.55,1006.7656 574.8156,1006.5313 Q575.0813,1006.2969 575.6906,1006.2969 L575.9563,1006.2969 L575.9563,999.6406 L575.6906,999.6406 Q575.0656,999.6406 574.8,999.4063 Q574.55,999.1719 574.55,998.7813 Q574.55,998.4063 574.8,998.1719 Q575.0656,997.9375 575.6906,997.9375 L583.3156,997.9375 L583.3156,1000.5313 Q583.3156,1001.1406 583.0813,1001.4063 Q582.8625,1001.6563 582.4719,1001.6563 Q582.0969,1001.6563 581.8625,1001.4063 Q581.6281,1001.1406 581.6281,1000.5313 L581.6281,999.6406 L577.6594,999.6406 L577.6594,1002.0938 L579.1438,1002.0938 Q579.1438,1001.4375 579.2688,1001.25 Q579.5344,1000.8438 580.0031,1000.8438 Q580.3781,1000.8438 580.6125,1001.1094 Q580.8469,1001.3594 580.8469,1001.9688 L580.8469,1003.9375 Q580.8469,1004.4844 580.7219,1004.6719 Q580.4563,1005.0625 580.0031,1005.0625 Q579.5344,1005.0625 579.2688,1004.6563 Q579.1438,1004.4688 579.1438,1003.7969 L577.6594,1003.7969 Z " fill="#000000"/><text fill="#000000" font-family="sans-serif" font-size="14" lengthAdjust="spacing" textLength="86" x="595.2" y="1008.7285">VehicleStatus</text><line style="stroke:#181818;stroke-width:0.5;" x1="554" x2="694" y1="1019" y2="1019"/><text fill="#000000" font-family="sans-serif" font-size="14" lengthAdjust="spacing" textLength="54" x="559" y="1037.5332">1: Active</text><text fill="#000000" font-family="sans-serif" font-size="14" lengthAdjust="spacing" textLength="130" x="559" y="1055.1426">2: UnderMaintainace</text><text fill="#000000" font-family="sans-serif" font-size="14" lengthAdjust="spacing" textLength="75" x="559" y="1072.752">3: NotActive</text><line style="stroke:#181818;stroke-width:0.5;" x1="554" x2="694" y1="1079.8281" y2="1079.8281"/></g><!--class Driver--><g id="elem_Driver"><rect codeLine="37" fill="#F1F1F1" height="224.0938" id="Driver" rx="2.5" ry="2.5" style="stroke:#181818;stroke-width:0.5;" width="192" x="405" y="7"/><ellipse cx="477.75" cy="23" fill="#ADD1B2" rx="11" ry="11" style="stroke:#181818;stroke-width:1.0;"/><path d="M480.5156,18.875 Q480.6719,18.6563 480.8594,18.5469 Q481.0469,18.4375 481.2656,18.4375 Q481.6406,18.4375 481.875,18.7031 Q482.1094,18.9531 482.1094,19.5625 L482.1094,21.0156 Q482.1094,21.625 481.875,21.8906 Q481.6406,22.1563 481.2656,22.1563 Q480.9219,22.1563 480.7188,21.9531 Q480.5156,21.7656 480.4063,21.25 Q480.3594,20.8906 480.1719,20.7031 Q479.8438,20.3281 479.2344,20.1094 Q478.625,19.8906 478,19.8906 Q477.2344,19.8906 476.5938,20.2188 Q475.9688,20.5469 475.4688,21.2969 Q474.9844,22.0469 474.9844,23.0781 L474.9844,24.1719 Q474.9844,25.4063 475.875,26.2344 Q476.7656,27.0469 478.3594,27.0469 Q479.2969,27.0469 479.9531,26.7969 Q480.3438,26.6406 480.7656,26.2031 Q481.0313,25.9375 481.1719,25.8594 Q481.3281,25.7813 481.5313,25.7813 Q481.8594,25.7813 482.1094,26.0469 Q482.375,26.2969 482.375,26.6406 Q482.375,26.9844 482.0313,27.3906 Q481.5313,27.9688 480.7344,28.2969 Q479.6563,28.75 478.3594,28.75 Q476.8438,28.75 475.6406,28.125 Q474.6563,27.625 473.9688,26.5625 Q473.2813,25.4844 473.2813,24.2031 L473.2813,23.0469 Q473.2813,21.7188 473.8906,20.5781 Q474.5156,19.4219 475.6094,18.8125 Q476.7031,18.1875 477.9375,18.1875 Q478.6719,18.1875 479.3125,18.3594 Q479.9688,18.5156 480.5156,18.875 Z " fill="#000000"/><text fill="#000000" font-family="sans-serif" font-size="14" lengthAdjust="spacing" textLength="38" x="498.25" y="28.7285">Driver</text><line style="stroke:#181818;stroke-width:0.5;" x1="406" x2="596" y1="39" y2="39"/><ellipse cx="416" cy="53.3047" fill="none" rx="3" ry="3" style="stroke:#038048;stroke-width:1.0;"/><text fill="#000000" font-family="sans-serif" font-size="14" lengthAdjust="spacing" textLength="79" x="425" y="57.5332">string: Name</text><ellipse cx="416" cy="70.9141" fill="none" rx="3" ry="3" style="stroke:#038048;stroke-width:1.0;"/><text fill="#000000" font-family="sans-serif" font-size="14" lengthAdjust="spacing" textLength="133" x="425" y="75.1426">string: PhoneNumber</text><ellipse cx="416" cy="88.5234" fill="none" rx="3" ry="3" style="stroke:#038048;stroke-width:1.0;"/><text fill="#000000" font-family="sans-serif" font-size="14" lengthAdjust="spacing" textLength="95" x="425" y="92.752">string: Address</text><rect fill="none" height="6" style="stroke:#C82930;stroke-width:1.0;" width="6" x="413" y="103.1328"/><text fill="#000000" font-family="sans-serif" font-size="14" lengthAdjust="spacing" textLength="94" x="425" y="110.3613">string: Account</text><rect fill="none" height="6" style="stroke:#C82930;stroke-width:1.0;" width="6" x="413" y="120.7422"/><text fill="#000000" font-family="sans-serif" font-size="14" lengthAdjust="spacing" textLength="104" x="425" y="127.9707">string: Password</text><ellipse cx="416" cy="141.3516" fill="none" rx="3" ry="3" style="stroke:#038048;stroke-width:1.0;"/><text fill="#000000" font-family="sans-serif" font-size="14" lengthAdjust="spacing" textLength="166" x="425" y="145.5801">Quality: DrivingExperience</text><ellipse cx="416" cy="158.9609" fill="none" rx="3" ry="3" style="stroke:#038048;stroke-width:1.0;"/><text fill="#000000" font-family="sans-serif" font-size="14" lengthAdjust="spacing" textLength="166" x="425" y="163.1895">Journey: JourneyInCharge</text><ellipse cx="416" cy="176.5703" fill="none" rx="3" ry="3" style="stroke:#038048;stroke-width:1.0;"/><text fill="#000000" font-family="sans-serif" font-size="14" lengthAdjust="spacing" textLength="130" x="425" y="180.7988">Journey: JourneyList</text><line style="stroke:#181818;stroke-width:0.5;" x1="406" x2="596" y1="187.875" y2="187.875"/><ellipse cx="416" cy="202.1797" fill="#84BE84" rx="3" ry="3" style="stroke:#038048;stroke-width:1.0;"/><text fill="#000000" font-family="sans-serif" font-size="14" lengthAdjust="spacing" textLength="79" x="425" y="206.4082">DisplayInfo()</text><ellipse cx="416" cy="219.7891" fill="#84BE84" rx="3" ry="3" style="stroke:#038048;stroke-width:1.0;"/><text fill="#000000" font-family="sans-serif" font-size="14" lengthAdjust="spacing" textLength="120" x="425" y="224.0176">CompleteJourney()</text></g><!--class Journey--><g id="elem_Journey"><rect codeLine="50" fill="#F1F1F1" height="206.4844" id="Journey" rx="2.5" ry="2.5" style="stroke:#181818;stroke-width:0.5;" width="173" x="106.5" y="323.5"/><ellipse cx="163.75" cy="339.5" fill="#ADD1B2" rx="11" ry="11" style="stroke:#181818;stroke-width:1.0;"/><path d="M166.5156,335.375 Q166.6719,335.1563 166.8594,335.0469 Q167.0469,334.9375 167.2656,334.9375 Q167.6406,334.9375 167.875,335.2031 Q168.1094,335.4531 168.1094,336.0625 L168.1094,337.5156 Q168.1094,338.125 167.875,338.3906 Q167.6406,338.6563 167.2656,338.6563 Q166.9219,338.6563 166.7188,338.4531 Q166.5156,338.2656 166.4063,337.75 Q166.3594,337.3906 166.1719,337.2031 Q165.8438,336.8281 165.2344,336.6094 Q164.625,336.3906 164,336.3906 Q163.2344,336.3906 162.5938,336.7188 Q161.9688,337.0469 161.4688,337.7969 Q160.9844,338.5469 160.9844,339.5781 L160.9844,340.6719 Q160.9844,341.9063 161.875,342.7344 Q162.7656,343.5469 164.3594,343.5469 Q165.2969,343.5469 165.9531,343.2969 Q166.3438,343.1406 166.7656,342.7031 Q167.0313,342.4375 167.1719,342.3594 Q167.3281,342.2813 167.5313,342.2813 Q167.8594,342.2813 168.1094,342.5469 Q168.375,342.7969 168.375,343.1406 Q168.375,343.4844 168.0313,343.8906 Q167.5313,344.4688 166.7344,344.7969 Q165.6563,345.25 164.3594,345.25 Q162.8438,345.25 161.6406,344.625 Q160.6563,344.125 159.9688,343.0625 Q159.2813,341.9844 159.2813,340.7031 L159.2813,339.5469 Q159.2813,338.2188 159.8906,337.0781 Q160.5156,335.9219 161.6094,335.3125 Q162.7031,334.6875 163.9375,334.6875 Q164.6719,334.6875 165.3125,334.8594 Q165.9688,335.0156 166.5156,335.375 Z " fill="#000000"/><text fill="#000000" font-family="sans-serif" font-size="14" lengthAdjust="spacing" textLength="50" x="184.25" y="345.2285">Journey</text><line style="stroke:#181818;stroke-width:0.5;" x1="107.5" x2="278.5" y1="355.5" y2="355.5"/><ellipse cx="117.5" cy="369.8047" fill="none" rx="3" ry="3" style="stroke:#038048;stroke-width:1.0;"/><text fill="#000000" font-family="sans-serif" font-size="14" lengthAdjust="spacing" textLength="147" x="126.5" y="374.0332">Transportation: Vehicle</text><ellipse cx="117.5" cy="387.4141" fill="none" rx="3" ry="3" style="stroke:#038048;stroke-width:1.0;"/><text fill="#000000" font-family="sans-serif" font-size="14" lengthAdjust="spacing" textLength="142" x="126.5" y="391.6426">Driver: DriverInCharge</text><ellipse cx="117.5" cy="405.0234" fill="none" rx="3" ry="3" style="stroke:#038048;stroke-width:1.0;"/><text fill="#000000" font-family="sans-serif" font-size="14" lengthAdjust="spacing" textLength="97" x="126.5" y="409.252">double: Kilomet</text><ellipse cx="117.5" cy="422.6328" fill="none" rx="3" ry="3" style="stroke:#038048;stroke-width:1.0;"/><text fill="#000000" font-family="sans-serif" font-size="14" lengthAdjust="spacing" textLength="83" x="126.5" y="426.8613">double: Price</text><ellipse cx="117.5" cy="440.2422" fill="none" rx="3" ry="3" style="stroke:#038048;stroke-width:1.0;"/><text fill="#000000" font-family="sans-serif" font-size="14" lengthAdjust="spacing" textLength="127" x="126.5" y="444.4707">string: StartLocation</text><ellipse cx="117.5" cy="457.8516" fill="none" rx="3" ry="3" style="stroke:#038048;stroke-width:1.0;"/><text fill="#000000" font-family="sans-serif" font-size="14" lengthAdjust="spacing" textLength="122" x="126.5" y="462.0801">string: EndLocation</text><rect fill="none" height="6" style="stroke:#C82930;stroke-width:1.0;" width="6" x="114.5" y="472.4609"/><text fill="#000000" font-family="sans-serif" font-size="14" lengthAdjust="spacing" textLength="63" x="126.5" y="479.6895">int: Status</text><ellipse cx="117.5" cy="493.0703" fill="none" rx="3" ry="3" style="stroke:#038048;stroke-width:1.0;"/><text fill="#000000" font-family="sans-serif" font-size="14" lengthAdjust="spacing" textLength="74" x="126.5" y="497.2988">string: Time</text><line style="stroke:#181818;stroke-width:0.5;" x1="107.5" x2="278.5" y1="504.375" y2="504.375"/><ellipse cx="117.5" cy="518.6797" fill="#84BE84" rx="3" ry="3" style="stroke:#038048;stroke-width:1.0;"/><text fill="#000000" font-family="sans-serif" font-size="14" lengthAdjust="spacing" textLength="79" x="126.5" y="522.9082">DisplayInfo()</text></g><g id="elem_GMN11"><path d="M6,97.5 L6,140.2031 A0,0 0 0 0 6,140.2031 L184.34,140.2031 L191.33,323.21 L192.34,140.2031 L370,140.2031 A0,0 0 0 0 370,140.2031 L370,107.5 L360,97.5 L6,97.5 A0,0 0 0 0 6,97.5 " fill="#FEFFDD" style="stroke:#181818;stroke-width:0.5;"/><path d="M360,97.5 L360,107.5 L370,107.5 L360,97.5 " fill="#FEFFDD" style="stroke:#181818;stroke-width:0.5;"/><text fill="#000000" font-family="sans-serif" font-size="13" lengthAdjust="spacing" textLength="42" x="12" y="115.9951">Status:</text><text fill="#000000" font-family="sans-serif" font-size="13" lengthAdjust="spacing" textLength="343" x="12" y="132.3467">0: ch&#432;a &#273;&#7911; &#273;i&#7873;u ki&#7879;n kh&#7903;i h&#224;nh, 1 l&#224; &#273;&#7911;, 2 l&#224; &#273;&#227; ho&#224;n th&#224;nh</text></g><!--class Admin--><g id="elem_Admin"><rect codeLine="67" fill="#F1F1F1" height="234.7969" id="Admin" rx="2.5" ry="2.5" style="stroke:#181818;stroke-width:0.5;" width="156" x="418" y="309"/><ellipse cx="460.9" cy="330.3516" fill="#ADD1B2" rx="11" ry="11" style="stroke:#181818;stroke-width:1.0;"/><path d="M463.6656,326.2266 Q463.8219,326.0078 464.0094,325.8984 Q464.1969,325.7891 464.4156,325.7891 Q464.7906,325.7891 465.025,326.0547 Q465.2594,326.3047 465.2594,326.9141 L465.2594,328.3672 Q465.2594,328.9766 465.025,329.2422 Q464.7906,329.5078 464.4156,329.5078 Q464.0719,329.5078 463.8688,329.3047 Q463.6656,329.1172 463.5563,328.6016 Q463.5094,328.2422 463.3219,328.0547 Q462.9938,327.6797 462.3844,327.4609 Q461.775,327.2422 461.15,327.2422 Q460.3844,327.2422 459.7438,327.5703 Q459.1188,327.8984 458.6188,328.6484 Q458.1344,329.3984 458.1344,330.4297 L458.1344,331.5234 Q458.1344,332.7578 459.025,333.5859 Q459.9156,334.3984 461.5094,334.3984 Q462.4469,334.3984 463.1031,334.1484 Q463.4938,333.9922 463.9156,333.5547 Q464.1813,333.2891 464.3219,333.2109 Q464.4781,333.1328 464.6813,333.1328 Q465.0094,333.1328 465.2594,333.3984 Q465.525,333.6484 465.525,333.9922 Q465.525,334.3359 465.1813,334.7422 Q464.6813,335.3203 463.8844,335.6484 Q462.8063,336.1016 461.5094,336.1016 Q459.9938,336.1016 458.7906,335.4766 Q457.8063,334.9766 457.1188,333.9141 Q456.4313,332.8359 456.4313,331.5547 L456.4313,330.3984 Q456.4313,329.0703 457.0406,327.9297 Q457.6656,326.7734 458.7594,326.1641 Q459.8531,325.5391 461.0875,325.5391 Q461.8219,325.5391 462.4625,325.7109 Q463.1188,325.8672 463.6656,326.2266 Z " fill="#000000"/><text fill="#000000" font-family="sans-serif" font-size="12" font-style="italic" lengthAdjust="spacing" textLength="66" x="479.1" y="326.457">&#171;Singleton&#187;</text><text fill="#000000" font-family="sans-serif" font-size="14" lengthAdjust="spacing" textLength="39" x="492.6" y="343.627">Admin</text><line style="stroke:#181818;stroke-width:0.5;" x1="419" x2="573" y1="351.7031" y2="351.7031"/><rect fill="none" height="6" style="stroke:#C82930;stroke-width:1.0;" width="6" x="426" y="363.0078"/><text fill="#000000" font-family="sans-serif" font-size="14" lengthAdjust="spacing" textLength="94" x="438" y="370.2363">string: Account</text><rect fill="none" height="6" style="stroke:#C82930;stroke-width:1.0;" width="6" x="426" y="380.6172"/><text fill="#000000" font-family="sans-serif" font-size="14" lengthAdjust="spacing" textLength="104" x="438" y="387.8457">string: Password</text><line style="stroke:#181818;stroke-width:1.0;" x1="419" x2="573" y1="394.9219" y2="394.9219"/><ellipse cx="429" cy="409.2266" fill="#84BE84" rx="3" ry="3" style="stroke:#038048;stroke-width:1.0;"/><text fill="#000000" font-family="sans-serif" font-size="14" lengthAdjust="spacing" textLength="107" x="438" y="413.4551">AddNewVehicle()</text><ellipse cx="429" cy="426.8359" fill="#84BE84" rx="3" ry="3" style="stroke:#038048;stroke-width:1.0;"/><text fill="#000000" font-family="sans-serif" font-size="14" lengthAdjust="spacing" textLength="99" x="438" y="431.0645">AddNewDriver()</text><ellipse cx="429" cy="444.4453" fill="#84BE84" rx="3" ry="3" style="stroke:#038048;stroke-width:1.0;"/><text fill="#000000" font-family="sans-serif" font-size="14" lengthAdjust="spacing" textLength="102" x="438" y="448.6738">DisplayVehicle()</text><ellipse cx="429" cy="462.0547" fill="#84BE84" rx="3" ry="3" style="stroke:#038048;stroke-width:1.0;"/><text fill="#000000" font-family="sans-serif" font-size="14" lengthAdjust="spacing" textLength="89" x="438" y="466.2832">DisplayDrive()</text><ellipse cx="429" cy="479.6641" fill="#84BE84" rx="3" ry="3" style="stroke:#038048;stroke-width:1.0;"/><text fill="#000000" font-family="sans-serif" font-size="14" lengthAdjust="spacing" textLength="85" x="438" y="483.8926">AddJourney()</text><rect fill="#F24D5C" height="6" style="stroke:#C82930;stroke-width:1.0;" width="6" x="426" y="494.2734"/><text fill="#000000" font-family="sans-serif" font-size="14" lengthAdjust="spacing" textLength="63" x="438" y="501.502">CalPrice()</text><ellipse cx="429" cy="514.8828" fill="#84BE84" rx="3" ry="3" style="stroke:#038048;stroke-width:1.0;"/><text fill="#000000" font-family="sans-serif" font-size="14" lengthAdjust="spacing" textLength="130" x="438" y="519.1113">CheckForWarranty()</text><ellipse cx="429" cy="532.4922" fill="#84BE84" rx="3" ry="3" style="stroke:#038048;stroke-width:1.0;"/><text fill="#000000" font-family="sans-serif" font-size="14" lengthAdjust="spacing" textLength="95" x="438" y="536.7207">CheckIncome()</text></g><!--class Quality--><g id="elem_Quality"><rect codeLine="81" fill="#F1F1F1" height="65.6094" id="Quality" rx="2.5" ry="2.5" style="stroke:#181818;stroke-width:0.5;" width="76" x="682" y="86"/><ellipse cx="697" cy="102" fill="#EB937F" rx="11" ry="11" style="stroke:#181818;stroke-width:1.0;"/><path d="M695.8594,102.7969 L695.8594,105.2969 L700.1875,105.2969 L700.1875,104.375 Q700.1875,103.7656 700.4219,103.5 Q700.6719,103.2344 701.0469,103.2344 Q701.4219,103.2344 701.6563,103.5 Q701.8906,103.7656 701.8906,104.375 L701.8906,107 L693.8906,107 Q693.2656,107 693,106.7656 Q692.75,106.5313 692.75,106.1406 Q692.75,105.7656 693.0156,105.5313 Q693.2813,105.2969 693.8906,105.2969 L694.1563,105.2969 L694.1563,98.6406 L693.8906,98.6406 Q693.2656,98.6406 693,98.4063 Q692.75,98.1719 692.75,97.7813 Q692.75,97.4063 693,97.1719 Q693.2656,96.9375 693.8906,96.9375 L701.5156,96.9375 L701.5156,99.5313 Q701.5156,100.1406 701.2813,100.4063 Q701.0625,100.6563 700.6719,100.6563 Q700.2969,100.6563 700.0625,100.4063 Q699.8281,100.1406 699.8281,99.5313 L699.8281,98.6406 L695.8594,98.6406 L695.8594,101.0938 L697.3438,101.0938 Q697.3438,100.4375 697.4688,100.25 Q697.7344,99.8438 698.2031,99.8438 Q698.5781,99.8438 698.8125,100.1094 Q699.0469,100.3594 699.0469,100.9688 L699.0469,102.9375 Q699.0469,103.4844 698.9219,103.6719 Q698.6563,104.0625 698.2031,104.0625 Q697.7344,104.0625 697.4688,103.6563 Q697.3438,103.4688 697.3438,102.7969 L695.8594,102.7969 Z " fill="#000000"/><text fill="#000000" font-family="sans-serif" font-size="14" lengthAdjust="spacing" textLength="44" x="711" y="107.7285">Quality</text><line style="stroke:#181818;stroke-width:0.5;" x1="683" x2="757" y1="118" y2="118"/><text fill="#000000" font-family="sans-serif" font-size="14" lengthAdjust="spacing" textLength="40" x="688" y="136.5332">1, 2, 3</text><line style="stroke:#181818;stroke-width:0.5;" x1="683" x2="757" y1="143.6094" y2="143.6094"/></g><g id="elem_GMN16"><path d="M609.5,397 L609.5,456.0547 A0,0 0 0 0 609.5,456.0547 L930.5,456.0547 A0,0 0 0 0 930.5,456.0547 L930.5,407 L920.5,397 L769.33,397 L725.26,152.12 L761.33,397 L609.5,397 A0,0 0 0 0 609.5,397 " fill="#FEFFDD" style="stroke:#181818;stroke-width:0.5;"/><path d="M920.5,397 L920.5,407 L930.5,407 L920.5,397 " fill="#FEFFDD" style="stroke:#181818;stroke-width:0.5;"/><text fill="#000000" font-family="sans-serif" font-size="13" lengthAdjust="spacing" textLength="200" x="615.5" y="415.4951">1 (t&#432;&#417;ng &#273;&#432;&#417;ng b&#7857;ng B) l&#225;i &#273;c car</text><text fill="#000000" font-family="sans-serif" font-size="13" lengthAdjust="spacing" textLength="261" x="615.5" y="431.8467">2 (t&#432;&#417;ng &#273;&#432;&#417;ng b&#7857;ng C) l&#225;i &#273;c truck, (v&#224; car)</text><text fill="#000000" font-family="sans-serif" font-size="13" lengthAdjust="spacing" textLength="300" x="615.5" y="448.1982">3 (t&#432;&#417;ng &#273;&#432;&#417;ng b&#7857;ng D) l&#225;i &#273;c coach (v&#224; car, truck)</text></g><!--reverse link Transportation to Truck--><g id="link_Transportation_Truck"><path codeLine="91" d="M351,927 C351,927 362.87,981.14 369.91,1013.28 " fill="none" id="Transportation-backto-Truck" style="stroke:#181818;stroke-width:1.0;"/></g><!--reverse link Transportation to Car--><g id="link_Transportation_Car"><path codeLine="92" d="M351,927 C351,927 314.91,981.14 293.48,1013.28 " fill="none" id="Transportation-backto-Car" style="stroke:#181818;stroke-width:1.0;"/></g><!--reverse link Transportation to Coach--><g id="link_Transportation_Coach"><path codeLine="93" d="M351,927 C351,927 394.23,959.11 427,987 C436.88,995.41 447.46,1004.97 456.61,1013.44 " fill="none" id="Transportation-backto-Coach" style="stroke:#181818;stroke-width:1.0;"/></g><!--reverse link Transportation to Container--><g id="link_Transportation_Container"><path codeLine="94" d="M351,927 C351,927 282.83,955.72 233,987 C220.39,994.92 207.18,1004.67 196,1013.42 " fill="none" id="Transportation-backto-Container" style="stroke:#181818;stroke-width:1.0;"/></g><!--link Driver to Quality--><g id="link_Driver_Quality"><path codeLine="95" d="M597.24,119 C625.37,119 653.51,119 681.64,119 " fill="none" id="Driver-Quality" style="stroke:#181818;stroke-width:1.0;"/></g><!--link Driver to Journey--><g id="link_Driver_Journey"><path codeLine="96" d="M404.81,215.41 C364.75,255.15 327.0902,292.4998 288.1002,331.1698 " fill="none" id="Driver-to-Journey" style="stroke:#181818;stroke-width:1.0;"/><polygon fill="#181818" points="279.58,339.62,286.6568,338.2349,288.1002,331.1698,281.0233,332.5548,279.58,339.62" style="stroke:#181818;stroke-width:1.0;"/><text fill="#000000" font-family="sans-serif" font-size="13" lengthAdjust="spacing" textLength="7" x="389.866" y="219.9606">1</text><text fill="#000000" font-family="sans-serif" font-size="13" lengthAdjust="spacing" textLength="20" x="287.578" y="329.2524">0..*</text></g><!--link Transportation to VehicleStatus--><g id="link_Transportation_VehicleStatus"><path codeLine="97" d="M491.12,902.82 C520.53,932.41 550.57,962.63 574.63,986.84 " fill="none" id="Transportation-VehicleStatus" style="stroke:#181818;stroke-width:1.0;"/></g><!--link Admin to Transportation--><g id="link_Admin_Transportation"><path codeLine="98" d="M456.38,544.23 C445.59,576.01 435.7284,605.0883 424.5484,638.0283 " fill="none" id="Admin-to-Transportation" style="stroke:#181818;stroke-width:1.0;stroke-dasharray:7.0,7.0;"/><polygon fill="#181818" points="422.62,643.71,429.3004,636.4731,424.227,638.9753,421.7248,633.9019,422.62,643.71" style="stroke:#181818;stroke-width:1.0;"/><text fill="#000000" font-family="sans-serif" font-size="13" lengthAdjust="spacing" textLength="219" x="443" y="588.4951">Adds &amp; Updates &amp; Assign for Journey</text></g><!--reverse link Driver to Admin--><g id="link_Driver_Admin"><path codeLine="99" d="M499.0826,237.1592 C498.6726,262.4092 498.33,283.3 497.91,308.77 " fill="none" id="Driver-backto-Admin" style="stroke:#181818;stroke-width:1.0;stroke-dasharray:7.0,7.0;"/><polygon fill="#181818" points="499.18,231.16,495.0344,240.0939,499.0988,236.1593,503.0334,240.2238,499.18,231.16" style="stroke:#181818;stroke-width:1.0;"/><text fill="#000000" font-family="sans-serif" font-size="13" lengthAdjust="spacing" textLength="227" x="499" y="275.4951">Adds &amp; Journey assignment &amp; Observe</text></g><!--reverse link Journey to Admin--><g id="link_Journey_Admin"><path codeLine="100" d="M285.83,426.5 C329.37,426.5 375.69,426.5 417.95,426.5 " fill="none" id="Journey-backto-Admin" style="stroke:#181818;stroke-width:1.0;stroke-dasharray:7.0,7.0;"/><polygon fill="#181818" points="279.83,426.5,288.83,430.5,284.83,426.5,288.83,422.5,279.83,426.5" style="stroke:#181818;stroke-width:1.0;"/><text fill="#000000" font-family="sans-serif" font-size="13" lengthAdjust="spacing" textLength="102" x="297.75" y="419.9951">Create &amp; Observe</text></g><!--reverse link Journey to Transportation--><g id="link_Journey_Transportation"><path codeLine="101" d="M250.6088,540.3465 C268.7888,575.9365 284.04,605.83 303.51,643.96 " fill="none" id="Journey-backto-Transportation" style="stroke:#181818;stroke-width:1.0;"/><polygon fill="#181818" points="245.15,529.66,244.3173,536.8229,250.6088,540.3465,251.4416,533.1836,245.15,529.66" style="stroke:#181818;stroke-width:1.0;"/></g><!--SRC=[bLNBJjj05DtxAwvIgKeWHWHsLeGK0b5fQQ0Yj0l4OZAUnAFOCzPu34rJ5brrtIyeg8jkwROigVYF_4clxR7ZcAHIiuZ7vpxdt8UZ2HSXKII0iP9nU2GyfhWcWZBOjQoGq0aPCnWe8g9GAaqqbw97g9Pg2krsJ_ekKtjxCyi2_56VH555UPPAajycSA4Tw1BqolMqYf_nJwo4HLfnCNPWC0tPoQWNCxyGle3tpEFKPsSO8exGD7skC3xcb8bebTjzJD8juGT4im4Fc5ESLWe_48M6Uhf6uU9oeVAAbpDwBMCbsDJ93qUYwn4rNdB2ez0dA1d9UYF5RygqTgNGX0kcPW0hf4JDdgC35TF9R9KlGZt81IXY8WwMMSs4BGSwLFEhBCyT1yu55lmjvf7aGcY6xphGbzeetbXPZ0E5RoQf1UzzOeXRGAUU5AmV1qEcAfAEwoeMPJJQ2vHI6GjTGKynvhLKhd7nBYO-DfcJfe4AXnz3R6mcQ1xzdmLvBZxcaRRMrMaJ2Gr2dsbcjEiDI5ZDY31OpiJoU3Wvwxdpb3N7F2j9kJ8U-jY5RxWl0wOhwAdYjCejrbBfOqdJM1NPeN2N9BQPmyKmbQQG5sLRlZxUKaZDGCiGv2Y_gsKcqzfsW7fFzmJ-V9i__CH_Fd_u4iC47ry5JBpvmtSEtkEjy9hG0l_nDbDimevvUVm1daGvw5GB6zM5961ERiSDkC1DT8PfOW6aI9RHV_UBRPlBOSVrsRKfIL7T3CrAKe26XwgkWLFbieEYCqmUNUAd1LkqaCVef2TLlZ-M1KU2OiapmjDXDGrknXG9Q-B2pginb5hB82c8KRDQKDTFzqztOeoaciDm_liNFlORoFKTHvm29GgidVMwtPAkJfPB4-fNM2YqQrYxw-qEoZ7IvPERDJC_ZL9bboS4sfzjEzjaAoMu-LRZIPWr4hD9hQoaO2i-zhHTa6NWMgjck_9Qs1jGszxQsgZbtRsqAC6EGxiorLRMbgdrXKiYZxcNzjwpqSUsYE0bd8SkVZ-IKoUA-5Z0IAfYaemddurqoLE-9em7emmajG-Oq0YU32EcS27dmdPspS9BDZluGLOCmvSCAfobiUqDu-Ol]--></g></svg>