<?xml version="1.0" encoding="us-ascii" standalone="no"?><svg xmlns="http://www.w3.org/2000/svg" xmlns:xlink="http://www.w3.org/1999/xlink" contentStyleType="text/css" height="1112px" preserveAspectRatio="none" style="width:874px;height:1112px;background:#FFFFFF;" version="1.1" viewBox="0 0 874 1112" width="874px" zoomAndPan="magnify"><defs/><g><!--cluster TransportationFactory--><g id="cluster_TransportationFactory"><path d="M156.5,626 L312.5,626 A3.75,3.75 0 0 1 315,628.5 L322,649.6094 L451.5,649.6094 A2.5,2.5 0 0 1 454,652.1094 L454,1093 A2.5,2.5 0 0 1 451.5,1095.5 L156.5,1095.5 A2.5,2.5 0 0 1 154,1093 L154,628.5 A2.5,2.5 0 0 1 156.5,626 " fill="none" style="stroke:#000000;stroke-width:1.5;"/><line style="stroke:#000000;stroke-width:1.5;" x1="154" x2="322" y1="649.6094" y2="649.6094"/><text fill="#000000" font-family="sans-serif" font-size="14" font-weight="bold" lengthAdjust="spacing" textLength="155" x="158" y="642.5332">TransportationFactory</text></g><!--class Transportation--><g id="elem_Transportation"><rect codeLine="5" fill="#F1F1F1" height="241.7031" id="Transportation" rx="2.5" ry="2.5" style="stroke:#181818;stroke-width:0.5;" width="192" x="216" y="682"/><ellipse cx="261.25" cy="698" fill="#ADD1B2" rx="11" ry="11" style="stroke:#181818;stroke-width:1.0;"/><path d="M264.0156,693.875 Q264.1719,693.6563 264.3594,693.5469 Q264.5469,693.4375 264.7656,693.4375 Q265.1406,693.4375 265.375,693.7031 Q265.6094,693.9531 265.6094,694.5625 L265.6094,696.0156 Q265.6094,696.625 265.375,696.8906 Q265.1406,697.1563 264.7656,697.1563 Q264.4219,697.1563 264.2188,696.9531 Q264.0156,696.7656 263.9063,696.25 Q263.8594,695.8906 263.6719,695.7031 Q263.3438,695.3281 262.7344,695.1094 Q262.125,694.8906 261.5,694.8906 Q260.7344,694.8906 260.0938,695.2188 Q259.4688,695.5469 258.9688,696.2969 Q258.4844,697.0469 258.4844,698.0781 L258.4844,699.1719 Q258.4844,700.4063 259.375,701.2344 Q260.2656,702.0469 261.8594,702.0469 Q262.7969,702.0469 263.4531,701.7969 Q263.8438,701.6406 264.2656,701.2031 Q264.5313,700.9375 264.6719,700.8594 Q264.8281,700.7813 265.0313,700.7813 Q265.3594,700.7813 265.6094,701.0469 Q265.875,701.2969 265.875,701.6406 Q265.875,701.9844 265.5313,702.3906 Q265.0313,702.9688 264.2344,703.2969 Q263.1563,703.75 261.8594,703.75 Q260.3438,703.75 259.1406,703.125 Q258.1563,702.625 257.4688,701.5625 Q256.7813,700.4844 256.7813,699.2031 L256.7813,698.0469 Q256.7813,696.7188 257.3906,695.5781 Q258.0156,694.4219 259.1094,693.8125 Q260.2031,693.1875 261.4375,693.1875 Q262.1719,693.1875 262.8125,693.3594 Q263.4688,693.5156 264.0156,693.875 Z " fill="#000000"/><text fill="#000000" font-family="sans-serif" font-size="14" lengthAdjust="spacing" textLength="93" x="281.75" y="703.7285">Transportation</text><line style="stroke:#181818;stroke-width:0.5;" x1="217" x2="407" y1="714" y2="714"/><ellipse cx="227" cy="728.3047" fill="none" rx="3" ry="3" style="stroke:#038048;stroke-width:1.0;"/><text fill="#000000" font-family="sans-serif" font-size="14" lengthAdjust="spacing" textLength="78" x="236" y="732.5332">int: Capacity</text><ellipse cx="227" cy="745.9141" fill="none" rx="3" ry="3" style="stroke:#038048;stroke-width:1.0;"/><text fill="#000000" font-family="sans-serif" font-size="14" lengthAdjust="spacing" textLength="49" x="236" y="750.1426">int: Size</text><ellipse cx="227" cy="763.5234" fill="none" rx="3" ry="3" style="stroke:#038048;stroke-width:1.0;"/><text fill="#000000" font-family="sans-serif" font-size="14" lengthAdjust="spacing" textLength="118" x="236" y="767.752">string: TypeOfFuel</text><polygon fill="none" points="227,776.1328,231,780.1328,227,784.1328,223,780.1328" style="stroke:#B38D22;stroke-width:1.0;"/><text fill="#000000" font-family="sans-serif" font-size="14" lengthAdjust="spacing" textLength="134" x="236" y="785.3613">VehicleStatus: Status</text><ellipse cx="227" cy="798.7422" fill="none" rx="3" ry="3" style="stroke:#038048;stroke-width:1.0;"/><text fill="#000000" font-family="sans-serif" font-size="14" lengthAdjust="spacing" textLength="92" x="236" y="802.9707">string: License</text><ellipse cx="227" cy="816.3516" fill="none" rx="3" ry="3" style="stroke:#038048;stroke-width:1.0;"/><text fill="#000000" font-family="sans-serif" font-size="14" lengthAdjust="spacing" textLength="81" x="236" y="820.5801">string: Brand</text><ellipse cx="227" cy="833.9609" fill="none" rx="3" ry="3" style="stroke:#038048;stroke-width:1.0;"/><text fill="#000000" font-family="sans-serif" font-size="14" lengthAdjust="spacing" textLength="130" x="236" y="838.1895">DateTime: DateTime</text><ellipse cx="227" cy="851.5703" fill="none" rx="3" ry="3" style="stroke:#038048;stroke-width:1.0;"/><text fill="#000000" font-family="sans-serif" font-size="14" lengthAdjust="spacing" textLength="158" x="236" y="855.7988">DateTime: WarrantyTime</text><ellipse cx="227" cy="869.1797" fill="none" rx="3" ry="3" style="stroke:#038048;stroke-width:1.0;"/><text fill="#000000" font-family="sans-serif" font-size="14" lengthAdjust="spacing" textLength="154" x="236" y="873.4082">DateTime[]: WarrantyHis</text><ellipse cx="227" cy="886.7891" fill="none" rx="3" ry="3" style="stroke:#038048;stroke-width:1.0;"/><text fill="#000000" font-family="sans-serif" font-size="14" lengthAdjust="spacing" textLength="166" x="236" y="891.0176">Journey: JourneyInCharge</text><line style="stroke:#181818;stroke-width:0.5;" x1="217" x2="407" y1="898.0938" y2="898.0938"/><ellipse cx="227" cy="912.3984" fill="#84BE84" rx="3" ry="3" style="stroke:#038048;stroke-width:1.0;"/><text fill="#000000" font-family="sans-serif" font-size="14" lengthAdjust="spacing" textLength="79" x="236" y="916.627">DisplayInfo()</text></g><polygon fill="none" points="306.0487,923.7031,312.0566,944.0232,298.0735,943.3346" style="stroke:#181818;stroke-width:1.0;"/><line style="stroke:#181818;stroke-width:1.0;" x1="305.0651" x2="305" y1="943.6789" y2="945"/><line style="stroke:#181818;stroke-width:1.0;" x1="408" x2="428.34" y1="907.4568" y2="929.62"/><line style="stroke:#181818;stroke-width:1.0;" x1="352.7837" x2="361.5484" y1="682" y2="656.0283"/><line style="stroke:#181818;stroke-width:1.0;" x1="250.6742" x2="240.51" y1="682" y2="661.97"/><!--class Car--><g id="elem_Car"><rect codeLine="19" fill="#F1F1F1" height="48" id="Car" rx="2.5" ry="2.5" style="stroke:#181818;stroke-width:0.5;" width="55" x="170.5" y="1031.5"/><ellipse cx="185.5" cy="1047.5" fill="#ADD1B2" rx="11" ry="11" style="stroke:#181818;stroke-width:1.0;"/><path d="M188.2656,1043.375 Q188.4219,1043.1563 188.6094,1043.0469 Q188.7969,1042.9375 189.0156,1042.9375 Q189.3906,1042.9375 189.625,1043.2031 Q189.8594,1043.4531 189.8594,1044.0625 L189.8594,1045.5156 Q189.8594,1046.125 189.625,1046.3906 Q189.3906,1046.6563 189.0156,1046.6563 Q188.6719,1046.6563 188.4688,1046.4531 Q188.2656,1046.2656 188.1563,1045.75 Q188.1094,1045.3906 187.9219,1045.2031 Q187.5938,1044.8281 186.9844,1044.6094 Q186.375,1044.3906 185.75,1044.3906 Q184.9844,1044.3906 184.3438,1044.7188 Q183.7188,1045.0469 183.2188,1045.7969 Q182.7344,1046.5469 182.7344,1047.5781 L182.7344,1048.6719 Q182.7344,1049.9063 183.625,1050.7344 Q184.5156,1051.5469 186.1094,1051.5469 Q187.0469,1051.5469 187.7031,1051.2969 Q188.0938,1051.1406 188.5156,1050.7031 Q188.7813,1050.4375 188.9219,1050.3594 Q189.0781,1050.2813 189.2813,1050.2813 Q189.6094,1050.2813 189.8594,1050.5469 Q190.125,1050.7969 190.125,1051.1406 Q190.125,1051.4844 189.7813,1051.8906 Q189.2813,1052.4688 188.4844,1052.7969 Q187.4063,1053.25 186.1094,1053.25 Q184.5938,1053.25 183.3906,1052.625 Q182.4063,1052.125 181.7188,1051.0625 Q181.0313,1049.9844 181.0313,1048.7031 L181.0313,1047.5469 Q181.0313,1046.2188 181.6406,1045.0781 Q182.2656,1043.9219 183.3594,1043.3125 Q184.4531,1042.6875 185.6875,1042.6875 Q186.4219,1042.6875 187.0625,1042.8594 Q187.7188,1043.0156 188.2656,1043.375 Z " fill="#000000"/><text fill="#000000" font-family="sans-serif" font-size="14" lengthAdjust="spacing" textLength="23" x="199.5" y="1053.2285">Car</text><line style="stroke:#181818;stroke-width:0.5;" x1="171.5" x2="224.5" y1="1063.5" y2="1063.5"/><line style="stroke:#181818;stroke-width:0.5;" x1="171.5" x2="224.5" y1="1071.5" y2="1071.5"/></g><!--class Truck--><g id="elem_Truck"><rect codeLine="22" fill="#F1F1F1" height="48" id="Truck" rx="2.5" ry="2.5" style="stroke:#181818;stroke-width:0.5;" width="68" x="261" y="1031.5"/><ellipse cx="276" cy="1047.5" fill="#ADD1B2" rx="11" ry="11" style="stroke:#181818;stroke-width:1.0;"/><path d="M278.7656,1043.375 Q278.9219,1043.1563 279.1094,1043.0469 Q279.2969,1042.9375 279.5156,1042.9375 Q279.8906,1042.9375 280.125,1043.2031 Q280.3594,1043.4531 280.3594,1044.0625 L280.3594,1045.5156 Q280.3594,1046.125 280.125,1046.3906 Q279.8906,1046.6563 279.5156,1046.6563 Q279.1719,1046.6563 278.9688,1046.4531 Q278.7656,1046.2656 278.6563,1045.75 Q278.6094,1045.3906 278.4219,1045.2031 Q278.0938,1044.8281 277.4844,1044.6094 Q276.875,1044.3906 276.25,1044.3906 Q275.4844,1044.3906 274.8438,1044.7188 Q274.2188,1045.0469 273.7188,1045.7969 Q273.2344,1046.5469 273.2344,1047.5781 L273.2344,1048.6719 Q273.2344,1049.9063 274.125,1050.7344 Q275.0156,1051.5469 276.6094,1051.5469 Q277.5469,1051.5469 278.2031,1051.2969 Q278.5938,1051.1406 279.0156,1050.7031 Q279.2813,1050.4375 279.4219,1050.3594 Q279.5781,1050.2813 279.7813,1050.2813 Q280.1094,1050.2813 280.3594,1050.5469 Q280.625,1050.7969 280.625,1051.1406 Q280.625,1051.4844 280.2813,1051.8906 Q279.7813,1052.4688 278.9844,1052.7969 Q277.9063,1053.25 276.6094,1053.25 Q275.0938,1053.25 273.8906,1052.625 Q272.9063,1052.125 272.2188,1051.0625 Q271.5313,1049.9844 271.5313,1048.7031 L271.5313,1047.5469 Q271.5313,1046.2188 272.1406,1045.0781 Q272.7656,1043.9219 273.8594,1043.3125 Q274.9531,1042.6875 276.1875,1042.6875 Q276.9219,1042.6875 277.5625,1042.8594 Q278.2188,1043.0156 278.7656,1043.375 Z " fill="#000000"/><text fill="#000000" font-family="sans-serif" font-size="14" lengthAdjust="spacing" textLength="36" x="290" y="1053.2285">Truck</text><line style="stroke:#181818;stroke-width:0.5;" x1="262" x2="328" y1="1063.5" y2="1063.5"/><line style="stroke:#181818;stroke-width:0.5;" x1="262" x2="328" y1="1071.5" y2="1071.5"/></g><!--class Coach--><g id="elem_Coach"><rect codeLine="25" fill="#F1F1F1" height="48" id="Coach" rx="2.5" ry="2.5" style="stroke:#181818;stroke-width:0.5;" width="73" x="364.5" y="1031.5"/><ellipse cx="379.5" cy="1047.5" fill="#ADD1B2" rx="11" ry="11" style="stroke:#181818;stroke-width:1.0;"/><path d="M382.2656,1043.375 Q382.4219,1043.1563 382.6094,1043.0469 Q382.7969,1042.9375 383.0156,1042.9375 Q383.3906,1042.9375 383.625,1043.2031 Q383.8594,1043.4531 383.8594,1044.0625 L383.8594,1045.5156 Q383.8594,1046.125 383.625,1046.3906 Q383.3906,1046.6563 383.0156,1046.6563 Q382.6719,1046.6563 382.4688,1046.4531 Q382.2656,1046.2656 382.1563,1045.75 Q382.1094,1045.3906 381.9219,1045.2031 Q381.5938,1044.8281 380.9844,1044.6094 Q380.375,1044.3906 379.75,1044.3906 Q378.9844,1044.3906 378.3438,1044.7188 Q377.7188,1045.0469 377.2188,1045.7969 Q376.7344,1046.5469 376.7344,1047.5781 L376.7344,1048.6719 Q376.7344,1049.9063 377.625,1050.7344 Q378.5156,1051.5469 380.1094,1051.5469 Q381.0469,1051.5469 381.7031,1051.2969 Q382.0938,1051.1406 382.5156,1050.7031 Q382.7813,1050.4375 382.9219,1050.3594 Q383.0781,1050.2813 383.2813,1050.2813 Q383.6094,1050.2813 383.8594,1050.5469 Q384.125,1050.7969 384.125,1051.1406 Q384.125,1051.4844 383.7813,1051.8906 Q383.2813,1052.4688 382.4844,1052.7969 Q381.4063,1053.25 380.1094,1053.25 Q378.5938,1053.25 377.3906,1052.625 Q376.4063,1052.125 375.7188,1051.0625 Q375.0313,1049.9844 375.0313,1048.7031 L375.0313,1047.5469 Q375.0313,1046.2188 375.6406,1045.0781 Q376.2656,1043.9219 377.3594,1043.3125 Q378.4531,1042.6875 379.6875,1042.6875 Q380.4219,1042.6875 381.0625,1042.8594 Q381.7188,1043.0156 382.2656,1043.375 Z " fill="#000000"/><text fill="#000000" font-family="sans-serif" font-size="14" lengthAdjust="spacing" textLength="41" x="393.5" y="1053.2285">Coach</text><line style="stroke:#181818;stroke-width:0.5;" x1="365.5" x2="436.5" y1="1063.5" y2="1063.5"/><line style="stroke:#181818;stroke-width:0.5;" x1="365.5" x2="436.5" y1="1071.5" y2="1071.5"/></g><!--class VehicleStatus--><g id="elem_VehicleStatus"><rect codeLine="29" fill="#F1F1F1" height="100.8281" id="VehicleStatus" rx="2.5" ry="2.5" style="stroke:#181818;stroke-width:0.5;" width="142" x="473" y="1005"/><ellipse cx="498.8" cy="1021" fill="#EB937F" rx="11" ry="11" style="stroke:#181818;stroke-width:1.0;"/><path d="M497.6594,1021.7969 L497.6594,1024.2969 L501.9875,1024.2969 L501.9875,1023.375 Q501.9875,1022.7656 502.2219,1022.5 Q502.4719,1022.2344 502.8469,1022.2344 Q503.2219,1022.2344 503.4563,1022.5 Q503.6906,1022.7656 503.6906,1023.375 L503.6906,1026 L495.6906,1026 Q495.0656,1026 494.8,1025.7656 Q494.55,1025.5313 494.55,1025.1406 Q494.55,1024.7656 494.8156,1024.5313 Q495.0813,1024.2969 495.6906,1024.2969 L495.9563,1024.2969 L495.9563,1017.6406 L495.6906,1017.6406 Q495.0656,1017.6406 494.8,1017.4063 Q494.55,1017.1719 494.55,1016.7813 Q494.55,1016.4063 494.8,1016.1719 Q495.0656,1015.9375 495.6906,1015.9375 L503.3156,1015.9375 L503.3156,1018.5313 Q503.3156,1019.1406 503.0813,1019.4063 Q502.8625,1019.6563 502.4719,1019.6563 Q502.0969,1019.6563 501.8625,1019.4063 Q501.6281,1019.1406 501.6281,1018.5313 L501.6281,1017.6406 L497.6594,1017.6406 L497.6594,1020.0938 L499.1438,1020.0938 Q499.1438,1019.4375 499.2688,1019.25 Q499.5344,1018.8438 500.0031,1018.8438 Q500.3781,1018.8438 500.6125,1019.1094 Q500.8469,1019.3594 500.8469,1019.9688 L500.8469,1021.9375 Q500.8469,1022.4844 500.7219,1022.6719 Q500.4563,1023.0625 500.0031,1023.0625 Q499.5344,1023.0625 499.2688,1022.6563 Q499.1438,1022.4688 499.1438,1021.7969 L497.6594,1021.7969 Z " fill="#000000"/><text fill="#000000" font-family="sans-serif" font-size="14" lengthAdjust="spacing" textLength="86" x="515.2" y="1026.7285">VehicleStatus</text><line style="stroke:#181818;stroke-width:0.5;" x1="474" x2="614" y1="1037" y2="1037"/><text fill="#000000" font-family="sans-serif" font-size="14" lengthAdjust="spacing" textLength="54" x="479" y="1055.5332">1: Active</text><text fill="#000000" font-family="sans-serif" font-size="14" lengthAdjust="spacing" textLength="130" x="479" y="1073.1426">2: UnderMaintainace</text><text fill="#000000" font-family="sans-serif" font-size="14" lengthAdjust="spacing" textLength="75" x="479" y="1090.752">3: NotActive</text><line style="stroke:#181818;stroke-width:0.5;" x1="474" x2="614" y1="1097.8281" y2="1097.8281"/></g><!--class Driver--><g id="elem_Driver"><rect codeLine="34" fill="#F1F1F1" height="241.7031" id="Driver" rx="2.5" ry="2.5" style="stroke:#181818;stroke-width:0.5;" width="192" x="337" y="7"/><ellipse cx="409.75" cy="23" fill="#ADD1B2" rx="11" ry="11" style="stroke:#181818;stroke-width:1.0;"/><path d="M412.5156,18.875 Q412.6719,18.6563 412.8594,18.5469 Q413.0469,18.4375 413.2656,18.4375 Q413.6406,18.4375 413.875,18.7031 Q414.1094,18.9531 414.1094,19.5625 L414.1094,21.0156 Q414.1094,21.625 413.875,21.8906 Q413.6406,22.1563 413.2656,22.1563 Q412.9219,22.1563 412.7188,21.9531 Q412.5156,21.7656 412.4063,21.25 Q412.3594,20.8906 412.1719,20.7031 Q411.8438,20.3281 411.2344,20.1094 Q410.625,19.8906 410,19.8906 Q409.2344,19.8906 408.5938,20.2188 Q407.9688,20.5469 407.4688,21.2969 Q406.9844,22.0469 406.9844,23.0781 L406.9844,24.1719 Q406.9844,25.4063 407.875,26.2344 Q408.7656,27.0469 410.3594,27.0469 Q411.2969,27.0469 411.9531,26.7969 Q412.3438,26.6406 412.7656,26.2031 Q413.0313,25.9375 413.1719,25.8594 Q413.3281,25.7813 413.5313,25.7813 Q413.8594,25.7813 414.1094,26.0469 Q414.375,26.2969 414.375,26.6406 Q414.375,26.9844 414.0313,27.3906 Q413.5313,27.9688 412.7344,28.2969 Q411.6563,28.75 410.3594,28.75 Q408.8438,28.75 407.6406,28.125 Q406.6563,27.625 405.9688,26.5625 Q405.2813,25.4844 405.2813,24.2031 L405.2813,23.0469 Q405.2813,21.7188 405.8906,20.5781 Q406.5156,19.4219 407.6094,18.8125 Q408.7031,18.1875 409.9375,18.1875 Q410.6719,18.1875 411.3125,18.3594 Q411.9688,18.5156 412.5156,18.875 Z " fill="#000000"/><text fill="#000000" font-family="sans-serif" font-size="14" lengthAdjust="spacing" textLength="38" x="430.25" y="28.7285">Driver</text><line style="stroke:#181818;stroke-width:0.5;" x1="338" x2="528" y1="39" y2="39"/><ellipse cx="348" cy="53.3047" fill="none" rx="3" ry="3" style="stroke:#038048;stroke-width:1.0;"/><text fill="#000000" font-family="sans-serif" font-size="14" lengthAdjust="spacing" textLength="79" x="357" y="57.5332">string: Name</text><ellipse cx="348" cy="70.9141" fill="none" rx="3" ry="3" style="stroke:#038048;stroke-width:1.0;"/><text fill="#000000" font-family="sans-serif" font-size="14" lengthAdjust="spacing" textLength="133" x="357" y="75.1426">string: PhoneNumber</text><ellipse cx="348" cy="88.5234" fill="none" rx="3" ry="3" style="stroke:#038048;stroke-width:1.0;"/><text fill="#000000" font-family="sans-serif" font-size="14" lengthAdjust="spacing" textLength="95" x="357" y="92.752">string: Address</text><rect fill="none" height="6" style="stroke:#C82930;stroke-width:1.0;" width="6" x="345" y="103.1328"/><text fill="#000000" font-family="sans-serif" font-size="14" lengthAdjust="spacing" textLength="94" x="357" y="110.3613">string: Account</text><rect fill="none" height="6" style="stroke:#C82930;stroke-width:1.0;" width="6" x="345" y="120.7422"/><text fill="#000000" font-family="sans-serif" font-size="14" lengthAdjust="spacing" textLength="104" x="357" y="127.9707">string: Password</text><ellipse cx="348" cy="141.3516" fill="none" rx="3" ry="3" style="stroke:#038048;stroke-width:1.0;"/><text fill="#000000" font-family="sans-serif" font-size="14" lengthAdjust="spacing" textLength="84" x="357" y="145.5801">string: Licens</text><ellipse cx="348" cy="158.9609" fill="none" rx="3" ry="3" style="stroke:#038048;stroke-width:1.0;"/><text fill="#000000" font-family="sans-serif" font-size="14" lengthAdjust="spacing" textLength="166" x="357" y="163.1895">Quality: DrivingExperience</text><ellipse cx="348" cy="176.5703" fill="none" rx="3" ry="3" style="stroke:#038048;stroke-width:1.0;"/><text fill="#000000" font-family="sans-serif" font-size="14" lengthAdjust="spacing" textLength="166" x="357" y="180.7988">Journey: JourneyInCharge</text><ellipse cx="348" cy="194.1797" fill="none" rx="3" ry="3" style="stroke:#038048;stroke-width:1.0;"/><text fill="#000000" font-family="sans-serif" font-size="14" lengthAdjust="spacing" textLength="130" x="357" y="198.4082">Journey: JourneyList</text><line style="stroke:#181818;stroke-width:0.5;" x1="338" x2="528" y1="205.4844" y2="205.4844"/><ellipse cx="348" cy="219.7891" fill="#84BE84" rx="3" ry="3" style="stroke:#038048;stroke-width:1.0;"/><text fill="#000000" font-family="sans-serif" font-size="14" lengthAdjust="spacing" textLength="79" x="357" y="224.0176">DisplayInfo()</text><ellipse cx="348" cy="237.3984" fill="#84BE84" rx="3" ry="3" style="stroke:#038048;stroke-width:1.0;"/><text fill="#000000" font-family="sans-serif" font-size="14" lengthAdjust="spacing" textLength="120" x="357" y="241.627">CompleteJourney()</text></g><!--class Journey--><g id="elem_Journey"><rect codeLine="48" fill="#F1F1F1" height="224.0938" id="Journey" rx="2.5" ry="2.5" style="stroke:#181818;stroke-width:0.5;" width="173" x="43.5" y="332.5"/><ellipse cx="100.75" cy="348.5" fill="#ADD1B2" rx="11" ry="11" style="stroke:#181818;stroke-width:1.0;"/><path d="M103.5156,344.375 Q103.6719,344.1563 103.8594,344.0469 Q104.0469,343.9375 104.2656,343.9375 Q104.6406,343.9375 104.875,344.2031 Q105.1094,344.4531 105.1094,345.0625 L105.1094,346.5156 Q105.1094,347.125 104.875,347.3906 Q104.6406,347.6563 104.2656,347.6563 Q103.9219,347.6563 103.7188,347.4531 Q103.5156,347.2656 103.4063,346.75 Q103.3594,346.3906 103.1719,346.2031 Q102.8438,345.8281 102.2344,345.6094 Q101.625,345.3906 101,345.3906 Q100.2344,345.3906 99.5938,345.7188 Q98.9688,346.0469 98.4688,346.7969 Q97.9844,347.5469 97.9844,348.5781 L97.9844,349.6719 Q97.9844,350.9063 98.875,351.7344 Q99.7656,352.5469 101.3594,352.5469 Q102.2969,352.5469 102.9531,352.2969 Q103.3438,352.1406 103.7656,351.7031 Q104.0313,351.4375 104.1719,351.3594 Q104.3281,351.2813 104.5313,351.2813 Q104.8594,351.2813 105.1094,351.5469 Q105.375,351.7969 105.375,352.1406 Q105.375,352.4844 105.0313,352.8906 Q104.5313,353.4688 103.7344,353.7969 Q102.6563,354.25 101.3594,354.25 Q99.8438,354.25 98.6406,353.625 Q97.6563,353.125 96.9688,352.0625 Q96.2813,350.9844 96.2813,349.7031 L96.2813,348.5469 Q96.2813,347.2188 96.8906,346.0781 Q97.5156,344.9219 98.6094,344.3125 Q99.7031,343.6875 100.9375,343.6875 Q101.6719,343.6875 102.3125,343.8594 Q102.9688,344.0156 103.5156,344.375 Z " fill="#000000"/><text fill="#000000" font-family="sans-serif" font-size="14" lengthAdjust="spacing" textLength="50" x="121.25" y="354.2285">Journey</text><line style="stroke:#181818;stroke-width:0.5;" x1="44.5" x2="215.5" y1="364.5" y2="364.5"/><ellipse cx="54.5" cy="378.8047" fill="none" rx="3" ry="3" style="stroke:#038048;stroke-width:1.0;"/><text fill="#000000" font-family="sans-serif" font-size="14" lengthAdjust="spacing" textLength="147" x="63.5" y="383.0332">Transportation: Vehicle</text><ellipse cx="54.5" cy="396.4141" fill="none" rx="3" ry="3" style="stroke:#038048;stroke-width:1.0;"/><text fill="#000000" font-family="sans-serif" font-size="14" lengthAdjust="spacing" textLength="142" x="63.5" y="400.6426">Driver: DriverInCharge</text><ellipse cx="54.5" cy="414.0234" fill="none" rx="3" ry="3" style="stroke:#038048;stroke-width:1.0;"/><text fill="#000000" font-family="sans-serif" font-size="14" lengthAdjust="spacing" textLength="97" x="63.5" y="418.252">double: Kilomet</text><ellipse cx="54.5" cy="431.6328" fill="none" rx="3" ry="3" style="stroke:#038048;stroke-width:1.0;"/><text fill="#000000" font-family="sans-serif" font-size="14" lengthAdjust="spacing" textLength="83" x="63.5" y="435.8613">double: Price</text><ellipse cx="54.5" cy="449.2422" fill="none" rx="3" ry="3" style="stroke:#038048;stroke-width:1.0;"/><text fill="#000000" font-family="sans-serif" font-size="14" lengthAdjust="spacing" textLength="127" x="63.5" y="453.4707">string: StartLocation</text><ellipse cx="54.5" cy="466.8516" fill="none" rx="3" ry="3" style="stroke:#038048;stroke-width:1.0;"/><text fill="#000000" font-family="sans-serif" font-size="14" lengthAdjust="spacing" textLength="122" x="63.5" y="471.0801">string: EndLocation</text><ellipse cx="54.5" cy="484.4609" fill="none" rx="3" ry="3" style="stroke:#038048;stroke-width:1.0;"/><text fill="#000000" font-family="sans-serif" font-size="14" lengthAdjust="spacing" textLength="92" x="63.5" y="488.6895">string: License</text><rect fill="none" height="6" style="stroke:#C82930;stroke-width:1.0;" width="6" x="51.5" y="499.0703"/><text fill="#000000" font-family="sans-serif" font-size="14" lengthAdjust="spacing" textLength="63" x="63.5" y="506.2988">int: Status</text><ellipse cx="54.5" cy="519.6797" fill="none" rx="3" ry="3" style="stroke:#038048;stroke-width:1.0;"/><text fill="#000000" font-family="sans-serif" font-size="14" lengthAdjust="spacing" textLength="74" x="63.5" y="523.9082">string: Time</text><line style="stroke:#181818;stroke-width:0.5;" x1="44.5" x2="215.5" y1="530.9844" y2="530.9844"/><ellipse cx="54.5" cy="545.2891" fill="#84BE84" rx="3" ry="3" style="stroke:#038048;stroke-width:1.0;"/><text fill="#000000" font-family="sans-serif" font-size="14" lengthAdjust="spacing" textLength="79" x="63.5" y="549.5176">DisplayInfo()</text></g><g id="elem_GMN10"><path d="M6,90.5 L6,165.9063 A0,0 0 0 0 6,165.9063 L126,165.9063 L130,332.23 L134,165.9063 L254,165.9063 A0,0 0 0 0 254,165.9063 L254,100.5 L244,90.5 L6,90.5 A0,0 0 0 0 6,90.5 " fill="#FEFFDD" style="stroke:#181818;stroke-width:0.5;"/><path d="M244,90.5 L244,100.5 L254,100.5 L244,90.5 " fill="#FEFFDD" style="stroke:#181818;stroke-width:0.5;"/><text fill="#000000" font-family="sans-serif" font-size="13" lengthAdjust="spacing" textLength="42" x="12" y="108.9951">Status:</text><text fill="#000000" font-family="sans-serif" font-size="13" lengthAdjust="spacing" textLength="185" x="12" y="125.3467">0: ch&#432;a &#273;&#7911; &#273;i&#7873;u ki&#7879;n kh&#7903;i h&#224;nh,</text><text fill="#000000" font-family="sans-serif" font-size="13" lengthAdjust="spacing" textLength="223" x="12" y="141.6982">1 l&#224; &#273;&#7911; &#273;i&#7873;u ki&#7879;n kh&#7903;i h&#224;nh v&#224; &#273;ang &#273;i,</text><text fill="#000000" font-family="sans-serif" font-size="13" lengthAdjust="spacing" textLength="167" x="12" y="158.0498">2 l&#224; &#273;&#227; ho&#224;n th&#224;nh chuy&#7871;n &#273;i</text></g><!--class Admin--><g id="elem_Admin"><rect codeLine="68" fill="#F1F1F1" height="234.7969" id="Admin" rx="2.5" ry="2.5" style="stroke:#181818;stroke-width:0.5;" width="156" x="355" y="327"/><ellipse cx="397.9" cy="348.3516" fill="#ADD1B2" rx="11" ry="11" style="stroke:#181818;stroke-width:1.0;"/><path d="M400.6656,344.2266 Q400.8219,344.0078 401.0094,343.8984 Q401.1969,343.7891 401.4156,343.7891 Q401.7906,343.7891 402.025,344.0547 Q402.2594,344.3047 402.2594,344.9141 L402.2594,346.3672 Q402.2594,346.9766 402.025,347.2422 Q401.7906,347.5078 401.4156,347.5078 Q401.0719,347.5078 400.8688,347.3047 Q400.6656,347.1172 400.5563,346.6016 Q400.5094,346.2422 400.3219,346.0547 Q399.9938,345.6797 399.3844,345.4609 Q398.775,345.2422 398.15,345.2422 Q397.3844,345.2422 396.7438,345.5703 Q396.1188,345.8984 395.6188,346.6484 Q395.1344,347.3984 395.1344,348.4297 L395.1344,349.5234 Q395.1344,350.7578 396.025,351.5859 Q396.9156,352.3984 398.5094,352.3984 Q399.4469,352.3984 400.1031,352.1484 Q400.4938,351.9922 400.9156,351.5547 Q401.1813,351.2891 401.3219,351.2109 Q401.4781,351.1328 401.6813,351.1328 Q402.0094,351.1328 402.2594,351.3984 Q402.525,351.6484 402.525,351.9922 Q402.525,352.3359 402.1813,352.7422 Q401.6813,353.3203 400.8844,353.6484 Q399.8063,354.1016 398.5094,354.1016 Q396.9938,354.1016 395.7906,353.4766 Q394.8063,352.9766 394.1188,351.9141 Q393.4313,350.8359 393.4313,349.5547 L393.4313,348.3984 Q393.4313,347.0703 394.0406,345.9297 Q394.6656,344.7734 395.7594,344.1641 Q396.8531,343.5391 398.0875,343.5391 Q398.8219,343.5391 399.4625,343.7109 Q400.1188,343.8672 400.6656,344.2266 Z " fill="#000000"/><text fill="#000000" font-family="sans-serif" font-size="12" font-style="italic" lengthAdjust="spacing" textLength="66" x="416.1" y="344.457">&#171;Singleton&#187;</text><text fill="#000000" font-family="sans-serif" font-size="14" lengthAdjust="spacing" textLength="39" x="429.6" y="361.627">Admin</text><line style="stroke:#181818;stroke-width:0.5;" x1="356" x2="510" y1="369.7031" y2="369.7031"/><rect fill="none" height="6" style="stroke:#C82930;stroke-width:1.0;" width="6" x="363" y="381.0078"/><text fill="#000000" font-family="sans-serif" font-size="14" lengthAdjust="spacing" textLength="94" x="375" y="388.2363">string: Account</text><rect fill="none" height="6" style="stroke:#C82930;stroke-width:1.0;" width="6" x="363" y="398.6172"/><text fill="#000000" font-family="sans-serif" font-size="14" lengthAdjust="spacing" textLength="104" x="375" y="405.8457">string: Password</text><line style="stroke:#181818;stroke-width:1.0;" x1="356" x2="510" y1="412.9219" y2="412.9219"/><ellipse cx="366" cy="427.2266" fill="#84BE84" rx="3" ry="3" style="stroke:#038048;stroke-width:1.0;"/><text fill="#000000" font-family="sans-serif" font-size="14" lengthAdjust="spacing" textLength="107" x="375" y="431.4551">AddNewVehicle()</text><ellipse cx="366" cy="444.8359" fill="#84BE84" rx="3" ry="3" style="stroke:#038048;stroke-width:1.0;"/><text fill="#000000" font-family="sans-serif" font-size="14" lengthAdjust="spacing" textLength="99" x="375" y="449.0645">AddNewDriver()</text><ellipse cx="366" cy="462.4453" fill="#84BE84" rx="3" ry="3" style="stroke:#038048;stroke-width:1.0;"/><text fill="#000000" font-family="sans-serif" font-size="14" lengthAdjust="spacing" textLength="102" x="375" y="466.6738">DisplayVehicle()</text><ellipse cx="366" cy="480.0547" fill="#84BE84" rx="3" ry="3" style="stroke:#038048;stroke-width:1.0;"/><text fill="#000000" font-family="sans-serif" font-size="14" lengthAdjust="spacing" textLength="89" x="375" y="484.2832">DisplayDrive()</text><ellipse cx="366" cy="497.6641" fill="#84BE84" rx="3" ry="3" style="stroke:#038048;stroke-width:1.0;"/><text fill="#000000" font-family="sans-serif" font-size="14" lengthAdjust="spacing" textLength="85" x="375" y="501.8926">AddJourney()</text><rect fill="#F24D5C" height="6" style="stroke:#C82930;stroke-width:1.0;" width="6" x="363" y="512.2734"/><text fill="#000000" font-family="sans-serif" font-size="14" lengthAdjust="spacing" textLength="63" x="375" y="519.502">CalPrice()</text><ellipse cx="366" cy="532.8828" fill="#84BE84" rx="3" ry="3" style="stroke:#038048;stroke-width:1.0;"/><text fill="#000000" font-family="sans-serif" font-size="14" lengthAdjust="spacing" textLength="130" x="375" y="537.1113">CheckForWarranty()</text><ellipse cx="366" cy="550.4922" fill="#84BE84" rx="3" ry="3" style="stroke:#038048;stroke-width:1.0;"/><text fill="#000000" font-family="sans-serif" font-size="14" lengthAdjust="spacing" textLength="95" x="375" y="554.7207">CheckIncome()</text></g><!--class Quality--><g id="elem_Quality"><rect codeLine="82" fill="#F1F1F1" height="65.6094" id="Quality" rx="2.5" ry="2.5" style="stroke:#181818;stroke-width:0.5;" width="76" x="617" y="95"/><ellipse cx="632" cy="111" fill="#EB937F" rx="11" ry="11" style="stroke:#181818;stroke-width:1.0;"/><path d="M630.8594,111.7969 L630.8594,114.2969 L635.1875,114.2969 L635.1875,113.375 Q635.1875,112.7656 635.4219,112.5 Q635.6719,112.2344 636.0469,112.2344 Q636.4219,112.2344 636.6563,112.5 Q636.8906,112.7656 636.8906,113.375 L636.8906,116 L628.8906,116 Q628.2656,116 628,115.7656 Q627.75,115.5313 627.75,115.1406 Q627.75,114.7656 628.0156,114.5313 Q628.2813,114.2969 628.8906,114.2969 L629.1563,114.2969 L629.1563,107.6406 L628.8906,107.6406 Q628.2656,107.6406 628,107.4063 Q627.75,107.1719 627.75,106.7813 Q627.75,106.4063 628,106.1719 Q628.2656,105.9375 628.8906,105.9375 L636.5156,105.9375 L636.5156,108.5313 Q636.5156,109.1406 636.2813,109.4063 Q636.0625,109.6563 635.6719,109.6563 Q635.2969,109.6563 635.0625,109.4063 Q634.8281,109.1406 634.8281,108.5313 L634.8281,107.6406 L630.8594,107.6406 L630.8594,110.0938 L632.3438,110.0938 Q632.3438,109.4375 632.4688,109.25 Q632.7344,108.8438 633.2031,108.8438 Q633.5781,108.8438 633.8125,109.1094 Q634.0469,109.3594 634.0469,109.9688 L634.0469,111.9375 Q634.0469,112.4844 633.9219,112.6719 Q633.6563,113.0625 633.2031,113.0625 Q632.7344,113.0625 632.4688,112.6563 Q632.3438,112.4688 632.3438,111.7969 L630.8594,111.7969 Z " fill="#000000"/><text fill="#000000" font-family="sans-serif" font-size="14" lengthAdjust="spacing" textLength="44" x="646" y="116.7285">Quality</text><line style="stroke:#181818;stroke-width:0.5;" x1="618" x2="692" y1="127" y2="127"/><text fill="#000000" font-family="sans-serif" font-size="14" lengthAdjust="spacing" textLength="40" x="623" y="145.5332">1, 2, 3</text><line style="stroke:#181818;stroke-width:0.5;" x1="618" x2="692" y1="152.6094" y2="152.6094"/></g><g id="elem_GMN15"><path d="M546.5,415 L546.5,474.0547 A0,0 0 0 0 546.5,474.0547 L867.5,474.0547 A0,0 0 0 0 867.5,474.0547 L867.5,425 L857.5,415 L706.26,415 L660.32,161.18 L698.26,415 L546.5,415 A0,0 0 0 0 546.5,415 " fill="#FEFFDD" style="stroke:#181818;stroke-width:0.5;"/><path d="M857.5,415 L857.5,425 L867.5,425 L857.5,415 " fill="#FEFFDD" style="stroke:#181818;stroke-width:0.5;"/><text fill="#000000" font-family="sans-serif" font-size="13" lengthAdjust="spacing" textLength="200" x="552.5" y="433.4951">1 (t&#432;&#417;ng &#273;&#432;&#417;ng b&#7857;ng B) l&#225;i &#273;c car</text><text fill="#000000" font-family="sans-serif" font-size="13" lengthAdjust="spacing" textLength="261" x="552.5" y="449.8467">2 (t&#432;&#417;ng &#273;&#432;&#417;ng b&#7857;ng C) l&#225;i &#273;c truck, (v&#224; car)</text><text fill="#000000" font-family="sans-serif" font-size="13" lengthAdjust="spacing" textLength="300" x="552.5" y="466.1982">3 (t&#432;&#417;ng &#273;&#432;&#417;ng b&#7857;ng D) l&#225;i &#273;c coach (v&#224; car, truck)</text></g><!--reverse link Transportation to Truck--><g id="link_Transportation_Truck"><path codeLine="92" d="M305,945 C305,945 300.06,999.14 297.12,1031.28 " fill="none" id="Transportation-backto-Truck" style="stroke:#181818;stroke-width:1.0;"/></g><!--reverse link Transportation to Car--><g id="link_Transportation_Car"><path codeLine="93" d="M305,945 C305,945 270.51,977.73 244,1005 C235.82,1013.41 227.02,1022.81 219.32,1031.13 " fill="none" id="Transportation-backto-Car" style="stroke:#181818;stroke-width:1.0;"/></g><!--reverse link Transportation to Coach--><g id="link_Transportation_Coach"><path codeLine="94" d="M305,945 C305,945 352.46,999.14 380.64,1031.28 " fill="none" id="Transportation-backto-Coach" style="stroke:#181818;stroke-width:1.0;"/></g><!--link Driver to Quality--><g id="link_Driver_Quality"><path codeLine="95" d="M529.26,128 C558.4,128 587.54,128 616.69,128 " fill="none" id="Driver-Quality" style="stroke:#181818;stroke-width:1.0;"/></g><!--link Driver to Journey--><g id="link_Driver_Journey"><path codeLine="96" d="M336.71,228.94 C298.16,268.96 254.07,314.72 216.55,353.67 " fill="none" id="Driver-Journey" style="stroke:#181818;stroke-width:1.0;"/><text fill="#000000" font-family="sans-serif" font-size="13" lengthAdjust="spacing" textLength="7" x="322.0698" y="233.5757">1</text><text fill="#000000" font-family="sans-serif" font-size="13" lengthAdjust="spacing" textLength="5" x="224.481" y="342.3746">*</text></g><!--link Transportation to VehicleStatus--><g id="link_Transportation_VehicleStatus"><path codeLine="97" d="M428.34,929.62 C453.1,956.35 477.84,983.06 498.05,1004.88 " fill="none" id="Transportation-VehicleStatus" style="stroke:#181818;stroke-width:1.0;"/></g><!--link Admin to Transportation--><g id="link_Admin_Transportation"><path codeLine="98" d="M393.38,562.23 C382.59,594.01 372.7284,623.0883 361.5484,656.0283 " fill="none" id="Admin-to-Transportation" style="stroke:#181818;stroke-width:1.0;stroke-dasharray:7.0,7.0;"/><polygon fill="#181818" points="359.62,661.71,366.3004,654.4731,361.227,656.9753,358.7248,651.9019,359.62,661.71" style="stroke:#181818;stroke-width:1.0;"/><text fill="#000000" font-family="sans-serif" font-size="13" lengthAdjust="spacing" textLength="219" x="380" y="606.4951">Adds &amp; Updates &amp; Assign for Journey</text></g><!--reverse link Driver to Admin--><g id="link_Driver_Admin"><path codeLine="99" d="M433,255.25 C433,280.74 433,301.6 433,326.95 " fill="none" id="Driver-backto-Admin" style="stroke:#181818;stroke-width:1.0;stroke-dasharray:7.0,7.0;"/><polygon fill="#181818" points="433,249.25,429,258.25,433,254.25,437,258.25,433,249.25" style="stroke:#181818;stroke-width:1.0;"/><text fill="#000000" font-family="sans-serif" font-size="13" lengthAdjust="spacing" textLength="227" x="434" y="293.4951">Adds &amp; Journey assignment &amp; Observe</text></g><!--reverse link Journey to Admin--><g id="link_Journey_Admin"><path codeLine="100" d="M222.83,444.5 C266.37,444.5 312.69,444.5 354.95,444.5 " fill="none" id="Journey-backto-Admin" style="stroke:#181818;stroke-width:1.0;stroke-dasharray:7.0,7.0;"/><polygon fill="#181818" points="216.83,444.5,225.83,448.5,221.83,444.5,225.83,440.5,216.83,444.5" style="stroke:#181818;stroke-width:1.0;"/><text fill="#000000" font-family="sans-serif" font-size="13" lengthAdjust="spacing" textLength="102" x="234.75" y="437.9951">Create &amp; Observe</text></g><!--link Journey to Transportation--><g id="link_Journey_Transportation"><path codeLine="101" d="M186.84,556.83 C203.84,590.13 222.7,627.08 240.51,661.97 " fill="none" id="Journey-Transportation" style="stroke:#181818;stroke-width:1.0;"/></g><!--SRC=[bLNDRjD04BxxAKP1GWcD9ThUhAXIcZQYKDgYfd2eUjYiD_4gzgwrNbD2wO4JPvw0LXoubcjxu53KzyYRCFQk7STDG4HAx7ppj_w-cN4ouI8cYaGmLZADzqJ05DT4K0QRZXCJEY5Z1WD5H19BfOdcKlG9rL9DeTFfoz1dQclhmd40FpGaIL9pliWjsMSDkD0Uz0XcvNfQnu_vHrR14gsu67imcCRiSDHFMLWQdy1R5d0QicCiaIOOcb-N1EzpoaIoBEqs7jAlu3j4im6Fc5VUBJM-8me3zNI5m-dPtEK5hvxefKoLO5ElkDaJlO2eyK8IdiGXGSj8DbivVbcbjKVKnMDqe58wMOBt9A4150OqCP56YxmPuxe7NQhvUtEI3GzE14hwcg0c-2NKu9iU74Xj7IyTKsD7uJzxg3cp1yHICuUE0YdOGHeDcQfPkhwlM6A8SkSefJ8LkeOUOSrpgNndcSOMV9EI47lBoy-6vjqFCVOp4xGuqbzrU6pUvubsLicpXYn7SSWqizxD5cHK6tOiLj2pE1LU8KMHFAVIizVQeNoP3aDilbSyb17JDVH8SLed70LMUb_Il5RDjYly5PRgjBXsAEUJLHb9NYgyI0e-kv2QWPOno571W6F7r7dk0GqURWZy_Zgx-u6_V7RtEOK9Nhu8c0IpksySWlih4RJ1MOVm_khVdl0-zo9Yd7bXt8QDk_yEWKGFqCQF1kbqTljBP6uu33va9osqwleH5xZFZl7vK4yfifNstptfkfOLxEe3TcuLBfl5e4RX4hG4rdqjd3jN4vIDPi_H8s6k_xmZ0qOdVQcABRHes1CKEyWebIy4Eozs5RHXeurhlv1nABMMKQQaTKDHclhXvk4wPzlU36UtF_6otKBYhpdY52XHcH0hVNiLNvqji3OqCnqnhkLihexRgTR85rmHrZPvMXLb5mSEEfzSrspBfHRShilnh8nZH0DNyN6WtP8E2pVM6wulpuKBZMUDekaNLYsuQUpMLe1ZcYwFFFL94Z3_pDrwj2TGz0IUmadiupick-ic2HyB64bL3fZD5BAHhcGgTehDO9s1vF4H4nh1ms725AxqmjWnZrXcCPE1Bst5i7mbeCPLNjijQlm1]--></g></svg>