<?xml version="1.0" encoding="us-ascii" standalone="no"?><svg xmlns="http://www.w3.org/2000/svg" xmlns:xlink="http://www.w3.org/1999/xlink" contentStyleType="text/css" height="1058px" preserveAspectRatio="none" style="width:937px;height:1058px;background:#FFFFFF;" version="1.1" viewBox="0 0 937 1058" width="937px" zoomAndPan="magnify"><defs/><g><!--cluster TransportationFactory--><g id="cluster_TransportationFactory"><path d="M93.5,608 L249.5,608 A3.75,3.75 0 0 1 252,610.5 L259,631.6094 L517.5,631.6094 A2.5,2.5 0 0 1 520,634.1094 L520,1039 A2.5,2.5 0 0 1 517.5,1041.5 L93.5,1041.5 A2.5,2.5 0 0 1 91,1039 L91,610.5 A2.5,2.5 0 0 1 93.5,608 " fill="none" style="stroke:#000000;stroke-width:1.5;"/><line style="stroke:#000000;stroke-width:1.5;" x1="91" x2="259" y1="631.6094" y2="631.6094"/><text fill="#000000" font-family="sans-serif" font-size="14" font-weight="bold" lengthAdjust="spacing" textLength="155" x="95" y="624.5332">TransportationFactory</text></g><!--class Transportation--><g id="elem_Transportation"><rect codeLine="5" fill="#F1F1F1" height="206.4844" id="Transportation" rx="2.5" ry="2.5" style="stroke:#181818;stroke-width:0.5;" width="197" x="276.5" y="664"/><ellipse cx="324.25" cy="680" fill="#ADD1B2" rx="11" ry="11" style="stroke:#181818;stroke-width:1.0;"/><path d="M327.0156,675.875 Q327.1719,675.6563 327.3594,675.5469 Q327.5469,675.4375 327.7656,675.4375 Q328.1406,675.4375 328.375,675.7031 Q328.6094,675.9531 328.6094,676.5625 L328.6094,678.0156 Q328.6094,678.625 328.375,678.8906 Q328.1406,679.1563 327.7656,679.1563 Q327.4219,679.1563 327.2188,678.9531 Q327.0156,678.7656 326.9063,678.25 Q326.8594,677.8906 326.6719,677.7031 Q326.3438,677.3281 325.7344,677.1094 Q325.125,676.8906 324.5,676.8906 Q323.7344,676.8906 323.0938,677.2188 Q322.4688,677.5469 321.9688,678.2969 Q321.4844,679.0469 321.4844,680.0781 L321.4844,681.1719 Q321.4844,682.4063 322.375,683.2344 Q323.2656,684.0469 324.8594,684.0469 Q325.7969,684.0469 326.4531,683.7969 Q326.8438,683.6406 327.2656,683.2031 Q327.5313,682.9375 327.6719,682.8594 Q327.8281,682.7813 328.0313,682.7813 Q328.3594,682.7813 328.6094,683.0469 Q328.875,683.2969 328.875,683.6406 Q328.875,683.9844 328.5313,684.3906 Q328.0313,684.9688 327.2344,685.2969 Q326.1563,685.75 324.8594,685.75 Q323.3438,685.75 322.1406,685.125 Q321.1563,684.625 320.4688,683.5625 Q319.7813,682.4844 319.7813,681.2031 L319.7813,680.0469 Q319.7813,678.7188 320.3906,677.5781 Q321.0156,676.4219 322.1094,675.8125 Q323.2031,675.1875 324.4375,675.1875 Q325.1719,675.1875 325.8125,675.3594 Q326.4688,675.5156 327.0156,675.875 Z " fill="#000000"/><text fill="#000000" font-family="sans-serif" font-size="14" lengthAdjust="spacing" textLength="93" x="344.75" y="685.7285">Transportation</text><line style="stroke:#181818;stroke-width:0.5;" x1="277.5" x2="472.5" y1="696" y2="696"/><polygon fill="none" points="287.5,705.3047,291.5,709.3047,287.5,713.3047,283.5,709.3047" style="stroke:#B38D22;stroke-width:1.0;"/><text fill="#000000" font-family="sans-serif" font-size="14" lengthAdjust="spacing" textLength="78" x="296.5" y="714.5332">int: Capacity</text><polygon fill="none" points="287.5,722.9141,291.5,726.9141,287.5,730.9141,283.5,726.9141" style="stroke:#B38D22;stroke-width:1.0;"/><text fill="#000000" font-family="sans-serif" font-size="14" lengthAdjust="spacing" textLength="49" x="296.5" y="732.1426">int: Size</text><polygon fill="none" points="287.5,740.5234,291.5,744.5234,287.5,748.5234,283.5,744.5234" style="stroke:#B38D22;stroke-width:1.0;"/><text fill="#000000" font-family="sans-serif" font-size="14" lengthAdjust="spacing" textLength="118" x="296.5" y="749.752">string: TypeOfFuel</text><polygon fill="none" points="287.5,758.1328,291.5,762.1328,287.5,766.1328,283.5,762.1328" style="stroke:#B38D22;stroke-width:1.0;"/><text fill="#000000" font-family="sans-serif" font-size="14" lengthAdjust="spacing" textLength="134" x="296.5" y="767.3613">VehicleStatus: Status</text><polygon fill="none" points="287.5,775.7422,291.5,779.7422,287.5,783.7422,283.5,779.7422" style="stroke:#B38D22;stroke-width:1.0;"/><text fill="#000000" font-family="sans-serif" font-size="14" lengthAdjust="spacing" textLength="92" x="296.5" y="784.9707">string: License</text><polygon fill="none" points="287.5,793.3516,291.5,797.3516,287.5,801.3516,283.5,797.3516" style="stroke:#B38D22;stroke-width:1.0;"/><text fill="#000000" font-family="sans-serif" font-size="14" lengthAdjust="spacing" textLength="81" x="296.5" y="802.5801">string: Brand</text><ellipse cx="287.5" cy="815.9609" fill="none" rx="3" ry="3" style="stroke:#038048;stroke-width:1.0;"/><text fill="#000000" font-family="sans-serif" font-size="14" lengthAdjust="spacing" textLength="171" x="296.5" y="820.1895">WarrantyService: Warranty</text><ellipse cx="287.5" cy="833.5703" fill="none" rx="3" ry="3" style="stroke:#038048;stroke-width:1.0;"/><text fill="#000000" font-family="sans-serif" font-size="14" lengthAdjust="spacing" textLength="166" x="296.5" y="837.7988">Journey: JourneyInCharge</text><line style="stroke:#181818;stroke-width:0.5;" x1="277.5" x2="472.5" y1="844.875" y2="844.875"/><ellipse cx="287.5" cy="859.1797" fill="#84BE84" rx="3" ry="3" style="stroke:#038048;stroke-width:1.0;"/><text fill="#000000" font-family="sans-serif" font-size="14" lengthAdjust="spacing" textLength="79" x="296.5" y="863.4082">DisplayInfo()</text></g><polygon fill="none" points="351.6416,870.4844,354.0556,891.536,340.4008,888.4466" style="stroke:#181818;stroke-width:1.0;"/><line style="stroke:#181818;stroke-width:1.0;" x1="347.2282" x2="347" y1="889.9913" y2="891"/><line style="stroke:#181818;stroke-width:1.0;" x1="473.5" x2="493.59" y1="767.041" y2="767"/><line style="stroke:#181818;stroke-width:1.0;" x1="473.5" x2="493.53" y1="865.3249" y2="885.27"/><line style="stroke:#181818;stroke-width:1.0;" x1="411.5536" x2="420.6883" y1="664" y2="638.1997"/><line style="stroke:#181818;stroke-width:1.0;" x1="320.0484" x2="309.35" y1="664" y2="643.9"/><!--class Container--><g id="elem_Container"><rect codeLine="17" fill="#F1F1F1" height="48" id="Container" rx="2.5" ry="2.5" style="stroke:#181818;stroke-width:0.5;" width="94" x="107" y="977.5"/><ellipse cx="122" cy="993.5" fill="#ADD1B2" rx="11" ry="11" style="stroke:#181818;stroke-width:1.0;"/><path d="M124.7656,989.375 Q124.9219,989.1563 125.1094,989.0469 Q125.2969,988.9375 125.5156,988.9375 Q125.8906,988.9375 126.125,989.2031 Q126.3594,989.4531 126.3594,990.0625 L126.3594,991.5156 Q126.3594,992.125 126.125,992.3906 Q125.8906,992.6563 125.5156,992.6563 Q125.1719,992.6563 124.9688,992.4531 Q124.7656,992.2656 124.6563,991.75 Q124.6094,991.3906 124.4219,991.2031 Q124.0938,990.8281 123.4844,990.6094 Q122.875,990.3906 122.25,990.3906 Q121.4844,990.3906 120.8438,990.7188 Q120.2188,991.0469 119.7188,991.7969 Q119.2344,992.5469 119.2344,993.5781 L119.2344,994.6719 Q119.2344,995.9063 120.125,996.7344 Q121.0156,997.5469 122.6094,997.5469 Q123.5469,997.5469 124.2031,997.2969 Q124.5938,997.1406 125.0156,996.7031 Q125.2813,996.4375 125.4219,996.3594 Q125.5781,996.2813 125.7813,996.2813 Q126.1094,996.2813 126.3594,996.5469 Q126.625,996.7969 126.625,997.1406 Q126.625,997.4844 126.2813,997.8906 Q125.7813,998.4688 124.9844,998.7969 Q123.9063,999.25 122.6094,999.25 Q121.0938,999.25 119.8906,998.625 Q118.9063,998.125 118.2188,997.0625 Q117.5313,995.9844 117.5313,994.7031 L117.5313,993.5469 Q117.5313,992.2188 118.1406,991.0781 Q118.7656,989.9219 119.8594,989.3125 Q120.9531,988.6875 122.1875,988.6875 Q122.9219,988.6875 123.5625,988.8594 Q124.2188,989.0156 124.7656,989.375 Z " fill="#000000"/><text fill="#000000" font-family="sans-serif" font-size="14" lengthAdjust="spacing" textLength="62" x="136" y="999.2285">Container</text><line style="stroke:#181818;stroke-width:0.5;" x1="108" x2="200" y1="1009.5" y2="1009.5"/><line style="stroke:#181818;stroke-width:0.5;" x1="108" x2="200" y1="1017.5" y2="1017.5"/></g><!--class Car--><g id="elem_Car"><rect codeLine="20" fill="#F1F1F1" height="48" id="Car" rx="2.5" ry="2.5" style="stroke:#181818;stroke-width:0.5;" width="55" x="236.5" y="977.5"/><ellipse cx="251.5" cy="993.5" fill="#ADD1B2" rx="11" ry="11" style="stroke:#181818;stroke-width:1.0;"/><path d="M254.2656,989.375 Q254.4219,989.1563 254.6094,989.0469 Q254.7969,988.9375 255.0156,988.9375 Q255.3906,988.9375 255.625,989.2031 Q255.8594,989.4531 255.8594,990.0625 L255.8594,991.5156 Q255.8594,992.125 255.625,992.3906 Q255.3906,992.6563 255.0156,992.6563 Q254.6719,992.6563 254.4688,992.4531 Q254.2656,992.2656 254.1563,991.75 Q254.1094,991.3906 253.9219,991.2031 Q253.5938,990.8281 252.9844,990.6094 Q252.375,990.3906 251.75,990.3906 Q250.9844,990.3906 250.3438,990.7188 Q249.7188,991.0469 249.2188,991.7969 Q248.7344,992.5469 248.7344,993.5781 L248.7344,994.6719 Q248.7344,995.9063 249.625,996.7344 Q250.5156,997.5469 252.1094,997.5469 Q253.0469,997.5469 253.7031,997.2969 Q254.0938,997.1406 254.5156,996.7031 Q254.7813,996.4375 254.9219,996.3594 Q255.0781,996.2813 255.2813,996.2813 Q255.6094,996.2813 255.8594,996.5469 Q256.125,996.7969 256.125,997.1406 Q256.125,997.4844 255.7813,997.8906 Q255.2813,998.4688 254.4844,998.7969 Q253.4063,999.25 252.1094,999.25 Q250.5938,999.25 249.3906,998.625 Q248.4063,998.125 247.7188,997.0625 Q247.0313,995.9844 247.0313,994.7031 L247.0313,993.5469 Q247.0313,992.2188 247.6406,991.0781 Q248.2656,989.9219 249.3594,989.3125 Q250.4531,988.6875 251.6875,988.6875 Q252.4219,988.6875 253.0625,988.8594 Q253.7188,989.0156 254.2656,989.375 Z " fill="#000000"/><text fill="#000000" font-family="sans-serif" font-size="14" lengthAdjust="spacing" textLength="23" x="265.5" y="999.2285">Car</text><line style="stroke:#181818;stroke-width:0.5;" x1="237.5" x2="290.5" y1="1009.5" y2="1009.5"/><line style="stroke:#181818;stroke-width:0.5;" x1="237.5" x2="290.5" y1="1017.5" y2="1017.5"/></g><!--class Truck--><g id="elem_Truck"><rect codeLine="23" fill="#F1F1F1" height="48" id="Truck" rx="2.5" ry="2.5" style="stroke:#181818;stroke-width:0.5;" width="68" x="327" y="977.5"/><ellipse cx="342" cy="993.5" fill="#ADD1B2" rx="11" ry="11" style="stroke:#181818;stroke-width:1.0;"/><path d="M344.7656,989.375 Q344.9219,989.1563 345.1094,989.0469 Q345.2969,988.9375 345.5156,988.9375 Q345.8906,988.9375 346.125,989.2031 Q346.3594,989.4531 346.3594,990.0625 L346.3594,991.5156 Q346.3594,992.125 346.125,992.3906 Q345.8906,992.6563 345.5156,992.6563 Q345.1719,992.6563 344.9688,992.4531 Q344.7656,992.2656 344.6563,991.75 Q344.6094,991.3906 344.4219,991.2031 Q344.0938,990.8281 343.4844,990.6094 Q342.875,990.3906 342.25,990.3906 Q341.4844,990.3906 340.8438,990.7188 Q340.2188,991.0469 339.7188,991.7969 Q339.2344,992.5469 339.2344,993.5781 L339.2344,994.6719 Q339.2344,995.9063 340.125,996.7344 Q341.0156,997.5469 342.6094,997.5469 Q343.5469,997.5469 344.2031,997.2969 Q344.5938,997.1406 345.0156,996.7031 Q345.2813,996.4375 345.4219,996.3594 Q345.5781,996.2813 345.7813,996.2813 Q346.1094,996.2813 346.3594,996.5469 Q346.625,996.7969 346.625,997.1406 Q346.625,997.4844 346.2813,997.8906 Q345.7813,998.4688 344.9844,998.7969 Q343.9063,999.25 342.6094,999.25 Q341.0938,999.25 339.8906,998.625 Q338.9063,998.125 338.2188,997.0625 Q337.5313,995.9844 337.5313,994.7031 L337.5313,993.5469 Q337.5313,992.2188 338.1406,991.0781 Q338.7656,989.9219 339.8594,989.3125 Q340.9531,988.6875 342.1875,988.6875 Q342.9219,988.6875 343.5625,988.8594 Q344.2188,989.0156 344.7656,989.375 Z " fill="#000000"/><text fill="#000000" font-family="sans-serif" font-size="14" lengthAdjust="spacing" textLength="36" x="356" y="999.2285">Truck</text><line style="stroke:#181818;stroke-width:0.5;" x1="328" x2="394" y1="1009.5" y2="1009.5"/><line style="stroke:#181818;stroke-width:0.5;" x1="328" x2="394" y1="1017.5" y2="1017.5"/></g><!--class Coach--><g id="elem_Coach"><rect codeLine="26" fill="#F1F1F1" height="48" id="Coach" rx="2.5" ry="2.5" style="stroke:#181818;stroke-width:0.5;" width="73" x="430.5" y="977.5"/><ellipse cx="445.5" cy="993.5" fill="#ADD1B2" rx="11" ry="11" style="stroke:#181818;stroke-width:1.0;"/><path d="M448.2656,989.375 Q448.4219,989.1563 448.6094,989.0469 Q448.7969,988.9375 449.0156,988.9375 Q449.3906,988.9375 449.625,989.2031 Q449.8594,989.4531 449.8594,990.0625 L449.8594,991.5156 Q449.8594,992.125 449.625,992.3906 Q449.3906,992.6563 449.0156,992.6563 Q448.6719,992.6563 448.4688,992.4531 Q448.2656,992.2656 448.1563,991.75 Q448.1094,991.3906 447.9219,991.2031 Q447.5938,990.8281 446.9844,990.6094 Q446.375,990.3906 445.75,990.3906 Q444.9844,990.3906 444.3438,990.7188 Q443.7188,991.0469 443.2188,991.7969 Q442.7344,992.5469 442.7344,993.5781 L442.7344,994.6719 Q442.7344,995.9063 443.625,996.7344 Q444.5156,997.5469 446.1094,997.5469 Q447.0469,997.5469 447.7031,997.2969 Q448.0938,997.1406 448.5156,996.7031 Q448.7813,996.4375 448.9219,996.3594 Q449.0781,996.2813 449.2813,996.2813 Q449.6094,996.2813 449.8594,996.5469 Q450.125,996.7969 450.125,997.1406 Q450.125,997.4844 449.7813,997.8906 Q449.2813,998.4688 448.4844,998.7969 Q447.4063,999.25 446.1094,999.25 Q444.5938,999.25 443.3906,998.625 Q442.4063,998.125 441.7188,997.0625 Q441.0313,995.9844 441.0313,994.7031 L441.0313,993.5469 Q441.0313,992.2188 441.6406,991.0781 Q442.2656,989.9219 443.3594,989.3125 Q444.4531,988.6875 445.6875,988.6875 Q446.4219,988.6875 447.0625,988.8594 Q447.7188,989.0156 448.2656,989.375 Z " fill="#000000"/><text fill="#000000" font-family="sans-serif" font-size="14" lengthAdjust="spacing" textLength="41" x="459.5" y="999.2285">Coach</text><line style="stroke:#181818;stroke-width:0.5;" x1="431.5" x2="502.5" y1="1009.5" y2="1009.5"/><line style="stroke:#181818;stroke-width:0.5;" x1="431.5" x2="502.5" y1="1017.5" y2="1017.5"/></g><!--class WarrantyService--><g id="elem_WarrantyService"><rect codeLine="30" fill="#F1F1F1" height="136.0469" id="WarrantyService" rx="2.5" ry="2.5" style="stroke:#181818;stroke-width:0.5;" width="184" x="536" y="699"/><ellipse cx="572.15" cy="715" fill="#ADD1B2" rx="11" ry="11" style="stroke:#181818;stroke-width:1.0;"/><path d="M574.9156,710.875 Q575.0719,710.6563 575.2594,710.5469 Q575.4469,710.4375 575.6656,710.4375 Q576.0406,710.4375 576.275,710.7031 Q576.5094,710.9531 576.5094,711.5625 L576.5094,713.0156 Q576.5094,713.625 576.275,713.8906 Q576.0406,714.1563 575.6656,714.1563 Q575.3219,714.1563 575.1188,713.9531 Q574.9156,713.7656 574.8063,713.25 Q574.7594,712.8906 574.5719,712.7031 Q574.2438,712.3281 573.6344,712.1094 Q573.025,711.8906 572.4,711.8906 Q571.6344,711.8906 570.9938,712.2188 Q570.3688,712.5469 569.8688,713.2969 Q569.3844,714.0469 569.3844,715.0781 L569.3844,716.1719 Q569.3844,717.4063 570.275,718.2344 Q571.1656,719.0469 572.7594,719.0469 Q573.6969,719.0469 574.3531,718.7969 Q574.7438,718.6406 575.1656,718.2031 Q575.4313,717.9375 575.5719,717.8594 Q575.7281,717.7813 575.9313,717.7813 Q576.2594,717.7813 576.5094,718.0469 Q576.775,718.2969 576.775,718.6406 Q576.775,718.9844 576.4313,719.3906 Q575.9313,719.9688 575.1344,720.2969 Q574.0563,720.75 572.7594,720.75 Q571.2438,720.75 570.0406,720.125 Q569.0563,719.625 568.3688,718.5625 Q567.6813,717.4844 567.6813,716.2031 L567.6813,715.0469 Q567.6813,713.7188 568.2906,712.5781 Q568.9156,711.4219 570.0094,710.8125 Q571.1031,710.1875 572.3375,710.1875 Q573.0719,710.1875 573.7125,710.3594 Q574.3688,710.5156 574.9156,710.875 Z " fill="#000000"/><text fill="#000000" font-family="sans-serif" font-size="14" lengthAdjust="spacing" textLength="105" x="590.85" y="720.7285">WarrantyService</text><line style="stroke:#181818;stroke-width:0.5;" x1="537" x2="719" y1="731" y2="731"/><rect fill="none" height="6" style="stroke:#C82930;stroke-width:1.0;" width="6" x="544" y="742.3047"/><text fill="#000000" font-family="sans-serif" font-size="14" lengthAdjust="spacing" textLength="103" x="556" y="749.5332">bool: IsWarranty</text><rect fill="none" height="6" style="stroke:#C82930;stroke-width:1.0;" width="6" x="544" y="759.9141"/><text fill="#000000" font-family="sans-serif" font-size="14" lengthAdjust="spacing" textLength="158" x="556" y="767.1426">DateTime: WarrantyTime</text><rect fill="none" height="6" style="stroke:#C82930;stroke-width:1.0;" width="6" x="544" y="777.5234"/><text fill="#000000" font-family="sans-serif" font-size="14" lengthAdjust="spacing" textLength="154" x="556" y="784.752">DateTime[]: WarrantyHis</text><line style="stroke:#181818;stroke-width:0.5;" x1="537" x2="719" y1="791.8281" y2="791.8281"/><ellipse cx="547" cy="806.1328" fill="#84BE84" rx="3" ry="3" style="stroke:#038048;stroke-width:1.0;"/><text fill="#000000" font-family="sans-serif" font-size="14" lengthAdjust="spacing" textLength="79" x="556" y="810.3613">DisplayInfo()</text><ellipse cx="547" cy="823.7422" fill="#84BE84" rx="3" ry="3" style="stroke:#038048;stroke-width:1.0;"/><text fill="#000000" font-family="sans-serif" font-size="14" lengthAdjust="spacing" textLength="157" x="556" y="827.9707">DisplayWarrantyHistory()</text></g><!--class VehicleStatus--><g id="elem_VehicleStatus"><rect codeLine="39" fill="#F1F1F1" height="100.8281" id="VehicleStatus" rx="2.5" ry="2.5" style="stroke:#181818;stroke-width:0.5;" width="142" x="539" y="951"/><ellipse cx="564.8" cy="967" fill="#EB937F" rx="11" ry="11" style="stroke:#181818;stroke-width:1.0;"/><path d="M563.6594,967.7969 L563.6594,970.2969 L567.9875,970.2969 L567.9875,969.375 Q567.9875,968.7656 568.2219,968.5 Q568.4719,968.2344 568.8469,968.2344 Q569.2219,968.2344 569.4563,968.5 Q569.6906,968.7656 569.6906,969.375 L569.6906,972 L561.6906,972 Q561.0656,972 560.8,971.7656 Q560.55,971.5313 560.55,971.1406 Q560.55,970.7656 560.8156,970.5313 Q561.0813,970.2969 561.6906,970.2969 L561.9563,970.2969 L561.9563,963.6406 L561.6906,963.6406 Q561.0656,963.6406 560.8,963.4063 Q560.55,963.1719 560.55,962.7813 Q560.55,962.4063 560.8,962.1719 Q561.0656,961.9375 561.6906,961.9375 L569.3156,961.9375 L569.3156,964.5313 Q569.3156,965.1406 569.0813,965.4063 Q568.8625,965.6563 568.4719,965.6563 Q568.0969,965.6563 567.8625,965.4063 Q567.6281,965.1406 567.6281,964.5313 L567.6281,963.6406 L563.6594,963.6406 L563.6594,966.0938 L565.1438,966.0938 Q565.1438,965.4375 565.2688,965.25 Q565.5344,964.8438 566.0031,964.8438 Q566.3781,964.8438 566.6125,965.1094 Q566.8469,965.3594 566.8469,965.9688 L566.8469,967.9375 Q566.8469,968.4844 566.7219,968.6719 Q566.4563,969.0625 566.0031,969.0625 Q565.5344,969.0625 565.2688,968.6563 Q565.1438,968.4688 565.1438,967.7969 L563.6594,967.7969 Z " fill="#000000"/><text fill="#000000" font-family="sans-serif" font-size="14" lengthAdjust="spacing" textLength="86" x="581.2" y="972.7285">VehicleStatus</text><line style="stroke:#181818;stroke-width:0.5;" x1="540" x2="680" y1="983" y2="983"/><text fill="#000000" font-family="sans-serif" font-size="14" lengthAdjust="spacing" textLength="54" x="545" y="1001.5332">1: Active</text><text fill="#000000" font-family="sans-serif" font-size="14" lengthAdjust="spacing" textLength="130" x="545" y="1019.1426">2: UnderMaintainace</text><text fill="#000000" font-family="sans-serif" font-size="14" lengthAdjust="spacing" textLength="75" x="545" y="1036.752">3: NotActive</text><line style="stroke:#181818;stroke-width:0.5;" x1="540" x2="680" y1="1043.8281" y2="1043.8281"/></g><!--class Driver--><g id="elem_Driver"><rect codeLine="44" fill="#F1F1F1" height="224.0938" id="Driver" rx="2.5" ry="2.5" style="stroke:#181818;stroke-width:0.5;" width="192" x="405" y="7"/><ellipse cx="477.75" cy="23" fill="#ADD1B2" rx="11" ry="11" style="stroke:#181818;stroke-width:1.0;"/><path d="M480.5156,18.875 Q480.6719,18.6563 480.8594,18.5469 Q481.0469,18.4375 481.2656,18.4375 Q481.6406,18.4375 481.875,18.7031 Q482.1094,18.9531 482.1094,19.5625 L482.1094,21.0156 Q482.1094,21.625 481.875,21.8906 Q481.6406,22.1563 481.2656,22.1563 Q480.9219,22.1563 480.7188,21.9531 Q480.5156,21.7656 480.4063,21.25 Q480.3594,20.8906 480.1719,20.7031 Q479.8438,20.3281 479.2344,20.1094 Q478.625,19.8906 478,19.8906 Q477.2344,19.8906 476.5938,20.2188 Q475.9688,20.5469 475.4688,21.2969 Q474.9844,22.0469 474.9844,23.0781 L474.9844,24.1719 Q474.9844,25.4063 475.875,26.2344 Q476.7656,27.0469 478.3594,27.0469 Q479.2969,27.0469 479.9531,26.7969 Q480.3438,26.6406 480.7656,26.2031 Q481.0313,25.9375 481.1719,25.8594 Q481.3281,25.7813 481.5313,25.7813 Q481.8594,25.7813 482.1094,26.0469 Q482.375,26.2969 482.375,26.6406 Q482.375,26.9844 482.0313,27.3906 Q481.5313,27.9688 480.7344,28.2969 Q479.6563,28.75 478.3594,28.75 Q476.8438,28.75 475.6406,28.125 Q474.6563,27.625 473.9688,26.5625 Q473.2813,25.4844 473.2813,24.2031 L473.2813,23.0469 Q473.2813,21.7188 473.8906,20.5781 Q474.5156,19.4219 475.6094,18.8125 Q476.7031,18.1875 477.9375,18.1875 Q478.6719,18.1875 479.3125,18.3594 Q479.9688,18.5156 480.5156,18.875 Z " fill="#000000"/><text fill="#000000" font-family="sans-serif" font-size="14" lengthAdjust="spacing" textLength="38" x="498.25" y="28.7285">Driver</text><line style="stroke:#181818;stroke-width:0.5;" x1="406" x2="596" y1="39" y2="39"/><rect fill="none" height="6" style="stroke:#C82930;stroke-width:1.0;" width="6" x="413" y="50.3047"/><text fill="#000000" font-family="sans-serif" font-size="14" lengthAdjust="spacing" textLength="79" x="425" y="57.5332">string: Name</text><rect fill="none" height="6" style="stroke:#C82930;stroke-width:1.0;" width="6" x="413" y="67.9141"/><text fill="#000000" font-family="sans-serif" font-size="14" lengthAdjust="spacing" textLength="133" x="425" y="75.1426">string: PhoneNumber</text><rect fill="none" height="6" style="stroke:#C82930;stroke-width:1.0;" width="6" x="413" y="85.5234"/><text fill="#000000" font-family="sans-serif" font-size="14" lengthAdjust="spacing" textLength="95" x="425" y="92.752">string: Address</text><rect fill="none" height="6" style="stroke:#C82930;stroke-width:1.0;" width="6" x="413" y="103.1328"/><text fill="#000000" font-family="sans-serif" font-size="14" lengthAdjust="spacing" textLength="94" x="425" y="110.3613">string: Account</text><rect fill="none" height="6" style="stroke:#C82930;stroke-width:1.0;" width="6" x="413" y="120.7422"/><text fill="#000000" font-family="sans-serif" font-size="14" lengthAdjust="spacing" textLength="104" x="425" y="127.9707">string: Password</text><ellipse cx="416" cy="141.3516" fill="none" rx="3" ry="3" style="stroke:#038048;stroke-width:1.0;"/><text fill="#000000" font-family="sans-serif" font-size="14" lengthAdjust="spacing" textLength="166" x="425" y="145.5801">Quality: DrivingExperience</text><ellipse cx="416" cy="158.9609" fill="none" rx="3" ry="3" style="stroke:#038048;stroke-width:1.0;"/><text fill="#000000" font-family="sans-serif" font-size="14" lengthAdjust="spacing" textLength="166" x="425" y="163.1895">Journey: JourneyInCharge</text><ellipse cx="416" cy="176.5703" fill="none" rx="3" ry="3" style="stroke:#038048;stroke-width:1.0;"/><text fill="#000000" font-family="sans-serif" font-size="14" lengthAdjust="spacing" textLength="130" x="425" y="180.7988">Journey: JourneyList</text><line style="stroke:#181818;stroke-width:0.5;" x1="406" x2="596" y1="187.875" y2="187.875"/><ellipse cx="416" cy="202.1797" fill="#84BE84" rx="3" ry="3" style="stroke:#038048;stroke-width:1.0;"/><text fill="#000000" font-family="sans-serif" font-size="14" lengthAdjust="spacing" textLength="79" x="425" y="206.4082">DisplayInfo()</text><ellipse cx="416" cy="219.7891" fill="#84BE84" rx="3" ry="3" style="stroke:#038048;stroke-width:1.0;"/><text fill="#000000" font-family="sans-serif" font-size="14" lengthAdjust="spacing" textLength="120" x="425" y="224.0176">CompleteJourney()</text></g><!--class Journey--><g id="elem_Journey"><rect codeLine="57" fill="#F1F1F1" height="206.4844" id="Journey" rx="2.5" ry="2.5" style="stroke:#181818;stroke-width:0.5;" width="173" x="106.5" y="323.5"/><ellipse cx="163.75" cy="339.5" fill="#ADD1B2" rx="11" ry="11" style="stroke:#181818;stroke-width:1.0;"/><path d="M166.5156,335.375 Q166.6719,335.1563 166.8594,335.0469 Q167.0469,334.9375 167.2656,334.9375 Q167.6406,334.9375 167.875,335.2031 Q168.1094,335.4531 168.1094,336.0625 L168.1094,337.5156 Q168.1094,338.125 167.875,338.3906 Q167.6406,338.6563 167.2656,338.6563 Q166.9219,338.6563 166.7188,338.4531 Q166.5156,338.2656 166.4063,337.75 Q166.3594,337.3906 166.1719,337.2031 Q165.8438,336.8281 165.2344,336.6094 Q164.625,336.3906 164,336.3906 Q163.2344,336.3906 162.5938,336.7188 Q161.9688,337.0469 161.4688,337.7969 Q160.9844,338.5469 160.9844,339.5781 L160.9844,340.6719 Q160.9844,341.9063 161.875,342.7344 Q162.7656,343.5469 164.3594,343.5469 Q165.2969,343.5469 165.9531,343.2969 Q166.3438,343.1406 166.7656,342.7031 Q167.0313,342.4375 167.1719,342.3594 Q167.3281,342.2813 167.5313,342.2813 Q167.8594,342.2813 168.1094,342.5469 Q168.375,342.7969 168.375,343.1406 Q168.375,343.4844 168.0313,343.8906 Q167.5313,344.4688 166.7344,344.7969 Q165.6563,345.25 164.3594,345.25 Q162.8438,345.25 161.6406,344.625 Q160.6563,344.125 159.9688,343.0625 Q159.2813,341.9844 159.2813,340.7031 L159.2813,339.5469 Q159.2813,338.2188 159.8906,337.0781 Q160.5156,335.9219 161.6094,335.3125 Q162.7031,334.6875 163.9375,334.6875 Q164.6719,334.6875 165.3125,334.8594 Q165.9688,335.0156 166.5156,335.375 Z " fill="#000000"/><text fill="#000000" font-family="sans-serif" font-size="14" lengthAdjust="spacing" textLength="50" x="184.25" y="345.2285">Journey</text><line style="stroke:#181818;stroke-width:0.5;" x1="107.5" x2="278.5" y1="355.5" y2="355.5"/><rect fill="none" height="6" style="stroke:#C82930;stroke-width:1.0;" width="6" x="114.5" y="366.8047"/><text fill="#000000" font-family="sans-serif" font-size="14" lengthAdjust="spacing" textLength="147" x="126.5" y="374.0332">Transportation: Vehicle</text><rect fill="none" height="6" style="stroke:#C82930;stroke-width:1.0;" width="6" x="114.5" y="384.4141"/><text fill="#000000" font-family="sans-serif" font-size="14" lengthAdjust="spacing" textLength="142" x="126.5" y="391.6426">Driver: DriverInCharge</text><rect fill="none" height="6" style="stroke:#C82930;stroke-width:1.0;" width="6" x="114.5" y="402.0234"/><text fill="#000000" font-family="sans-serif" font-size="14" lengthAdjust="spacing" textLength="97" x="126.5" y="409.252">double: Kilomet</text><rect fill="none" height="6" style="stroke:#C82930;stroke-width:1.0;" width="6" x="114.5" y="419.6328"/><text fill="#000000" font-family="sans-serif" font-size="14" lengthAdjust="spacing" textLength="83" x="126.5" y="426.8613">double: Price</text><rect fill="none" height="6" style="stroke:#C82930;stroke-width:1.0;" width="6" x="114.5" y="437.2422"/><text fill="#000000" font-family="sans-serif" font-size="14" lengthAdjust="spacing" textLength="127" x="126.5" y="444.4707">string: StartLocation</text><rect fill="none" height="6" style="stroke:#C82930;stroke-width:1.0;" width="6" x="114.5" y="454.8516"/><text fill="#000000" font-family="sans-serif" font-size="14" lengthAdjust="spacing" textLength="122" x="126.5" y="462.0801">string: EndLocation</text><rect fill="none" height="6" style="stroke:#C82930;stroke-width:1.0;" width="6" x="114.5" y="472.4609"/><text fill="#000000" font-family="sans-serif" font-size="14" lengthAdjust="spacing" textLength="63" x="126.5" y="479.6895">int: Status</text><rect fill="none" height="6" style="stroke:#C82930;stroke-width:1.0;" width="6" x="114.5" y="490.0703"/><text fill="#000000" font-family="sans-serif" font-size="14" lengthAdjust="spacing" textLength="74" x="126.5" y="497.2988">string: Time</text><line style="stroke:#181818;stroke-width:0.5;" x1="107.5" x2="278.5" y1="504.375" y2="504.375"/><ellipse cx="117.5" cy="518.6797" fill="#84BE84" rx="3" ry="3" style="stroke:#038048;stroke-width:1.0;"/><text fill="#000000" font-family="sans-serif" font-size="14" lengthAdjust="spacing" textLength="79" x="126.5" y="522.9082">DisplayInfo()</text></g><g id="elem_GMN12"><path d="M6,97.5 L6,140.2031 A0,0 0 0 0 6,140.2031 L184.34,140.2031 L191.33,323.21 L192.34,140.2031 L370,140.2031 A0,0 0 0 0 370,140.2031 L370,107.5 L360,97.5 L6,97.5 A0,0 0 0 0 6,97.5 " fill="#FEFFDD" style="stroke:#181818;stroke-width:0.5;"/><path d="M360,97.5 L360,107.5 L370,107.5 L360,97.5 " fill="#FEFFDD" style="stroke:#181818;stroke-width:0.5;"/><text fill="#000000" font-family="sans-serif" font-size="13" lengthAdjust="spacing" textLength="42" x="12" y="115.9951">Status:</text><text fill="#000000" font-family="sans-serif" font-size="13" lengthAdjust="spacing" textLength="343" x="12" y="132.3467">0: ch&#432;a &#273;&#7911; &#273;i&#7873;u ki&#7879;n kh&#7903;i h&#224;nh, 1 l&#224; &#273;&#7911;, 2 l&#224; &#273;&#227; ho&#224;n th&#224;nh</text></g><!--class Admin--><g id="elem_Admin"><rect codeLine="74" fill="#F1F1F1" height="234.7969" id="Admin" rx="2.5" ry="2.5" style="stroke:#181818;stroke-width:0.5;" width="156" x="418" y="309"/><ellipse cx="460.9" cy="330.3516" fill="#ADD1B2" rx="11" ry="11" style="stroke:#181818;stroke-width:1.0;"/><path d="M463.6656,326.2266 Q463.8219,326.0078 464.0094,325.8984 Q464.1969,325.7891 464.4156,325.7891 Q464.7906,325.7891 465.025,326.0547 Q465.2594,326.3047 465.2594,326.9141 L465.2594,328.3672 Q465.2594,328.9766 465.025,329.2422 Q464.7906,329.5078 464.4156,329.5078 Q464.0719,329.5078 463.8688,329.3047 Q463.6656,329.1172 463.5563,328.6016 Q463.5094,328.2422 463.3219,328.0547 Q462.9938,327.6797 462.3844,327.4609 Q461.775,327.2422 461.15,327.2422 Q460.3844,327.2422 459.7438,327.5703 Q459.1188,327.8984 458.6188,328.6484 Q458.1344,329.3984 458.1344,330.4297 L458.1344,331.5234 Q458.1344,332.7578 459.025,333.5859 Q459.9156,334.3984 461.5094,334.3984 Q462.4469,334.3984 463.1031,334.1484 Q463.4938,333.9922 463.9156,333.5547 Q464.1813,333.2891 464.3219,333.2109 Q464.4781,333.1328 464.6813,333.1328 Q465.0094,333.1328 465.2594,333.3984 Q465.525,333.6484 465.525,333.9922 Q465.525,334.3359 465.1813,334.7422 Q464.6813,335.3203 463.8844,335.6484 Q462.8063,336.1016 461.5094,336.1016 Q459.9938,336.1016 458.7906,335.4766 Q457.8063,334.9766 457.1188,333.9141 Q456.4313,332.8359 456.4313,331.5547 L456.4313,330.3984 Q456.4313,329.0703 457.0406,327.9297 Q457.6656,326.7734 458.7594,326.1641 Q459.8531,325.5391 461.0875,325.5391 Q461.8219,325.5391 462.4625,325.7109 Q463.1188,325.8672 463.6656,326.2266 Z " fill="#000000"/><text fill="#000000" font-family="sans-serif" font-size="12" font-style="italic" lengthAdjust="spacing" textLength="66" x="479.1" y="326.457">&#171;Singleton&#187;</text><text fill="#000000" font-family="sans-serif" font-size="14" lengthAdjust="spacing" textLength="39" x="492.6" y="343.627">Admin</text><line style="stroke:#181818;stroke-width:0.5;" x1="419" x2="573" y1="351.7031" y2="351.7031"/><rect fill="none" height="6" style="stroke:#C82930;stroke-width:1.0;" width="6" x="426" y="363.0078"/><text fill="#000000" font-family="sans-serif" font-size="14" lengthAdjust="spacing" textLength="94" x="438" y="370.2363">string: Account</text><rect fill="none" height="6" style="stroke:#C82930;stroke-width:1.0;" width="6" x="426" y="380.6172"/><text fill="#000000" font-family="sans-serif" font-size="14" lengthAdjust="spacing" textLength="104" x="438" y="387.8457">string: Password</text><line style="stroke:#181818;stroke-width:1.0;" x1="419" x2="573" y1="394.9219" y2="394.9219"/><ellipse cx="429" cy="409.2266" fill="#84BE84" rx="3" ry="3" style="stroke:#038048;stroke-width:1.0;"/><text fill="#000000" font-family="sans-serif" font-size="14" lengthAdjust="spacing" textLength="107" x="438" y="413.4551">AddNewVehicle()</text><ellipse cx="429" cy="426.8359" fill="#84BE84" rx="3" ry="3" style="stroke:#038048;stroke-width:1.0;"/><text fill="#000000" font-family="sans-serif" font-size="14" lengthAdjust="spacing" textLength="99" x="438" y="431.0645">AddNewDriver()</text><ellipse cx="429" cy="444.4453" fill="#84BE84" rx="3" ry="3" style="stroke:#038048;stroke-width:1.0;"/><text fill="#000000" font-family="sans-serif" font-size="14" lengthAdjust="spacing" textLength="102" x="438" y="448.6738">DisplayVehicle()</text><ellipse cx="429" cy="462.0547" fill="#84BE84" rx="3" ry="3" style="stroke:#038048;stroke-width:1.0;"/><text fill="#000000" font-family="sans-serif" font-size="14" lengthAdjust="spacing" textLength="89" x="438" y="466.2832">DisplayDrive()</text><ellipse cx="429" cy="479.6641" fill="#84BE84" rx="3" ry="3" style="stroke:#038048;stroke-width:1.0;"/><text fill="#000000" font-family="sans-serif" font-size="14" lengthAdjust="spacing" textLength="85" x="438" y="483.8926">AddJourney()</text><rect fill="#F24D5C" height="6" style="stroke:#C82930;stroke-width:1.0;" width="6" x="426" y="494.2734"/><text fill="#000000" font-family="sans-serif" font-size="14" lengthAdjust="spacing" textLength="63" x="438" y="501.502">CalPrice()</text><ellipse cx="429" cy="514.8828" fill="#84BE84" rx="3" ry="3" style="stroke:#038048;stroke-width:1.0;"/><text fill="#000000" font-family="sans-serif" font-size="14" lengthAdjust="spacing" textLength="130" x="438" y="519.1113">CheckForWarranty()</text><ellipse cx="429" cy="532.4922" fill="#84BE84" rx="3" ry="3" style="stroke:#038048;stroke-width:1.0;"/><text fill="#000000" font-family="sans-serif" font-size="14" lengthAdjust="spacing" textLength="95" x="438" y="536.7207">CheckIncome()</text></g><!--class Quality--><g id="elem_Quality"><rect codeLine="88" fill="#F1F1F1" height="65.6094" id="Quality" rx="2.5" ry="2.5" style="stroke:#181818;stroke-width:0.5;" width="76" x="682" y="86"/><ellipse cx="697" cy="102" fill="#EB937F" rx="11" ry="11" style="stroke:#181818;stroke-width:1.0;"/><path d="M695.8594,102.7969 L695.8594,105.2969 L700.1875,105.2969 L700.1875,104.375 Q700.1875,103.7656 700.4219,103.5 Q700.6719,103.2344 701.0469,103.2344 Q701.4219,103.2344 701.6563,103.5 Q701.8906,103.7656 701.8906,104.375 L701.8906,107 L693.8906,107 Q693.2656,107 693,106.7656 Q692.75,106.5313 692.75,106.1406 Q692.75,105.7656 693.0156,105.5313 Q693.2813,105.2969 693.8906,105.2969 L694.1563,105.2969 L694.1563,98.6406 L693.8906,98.6406 Q693.2656,98.6406 693,98.4063 Q692.75,98.1719 692.75,97.7813 Q692.75,97.4063 693,97.1719 Q693.2656,96.9375 693.8906,96.9375 L701.5156,96.9375 L701.5156,99.5313 Q701.5156,100.1406 701.2813,100.4063 Q701.0625,100.6563 700.6719,100.6563 Q700.2969,100.6563 700.0625,100.4063 Q699.8281,100.1406 699.8281,99.5313 L699.8281,98.6406 L695.8594,98.6406 L695.8594,101.0938 L697.3438,101.0938 Q697.3438,100.4375 697.4688,100.25 Q697.7344,99.8438 698.2031,99.8438 Q698.5781,99.8438 698.8125,100.1094 Q699.0469,100.3594 699.0469,100.9688 L699.0469,102.9375 Q699.0469,103.4844 698.9219,103.6719 Q698.6563,104.0625 698.2031,104.0625 Q697.7344,104.0625 697.4688,103.6563 Q697.3438,103.4688 697.3438,102.7969 L695.8594,102.7969 Z " fill="#000000"/><text fill="#000000" font-family="sans-serif" font-size="14" lengthAdjust="spacing" textLength="44" x="711" y="107.7285">Quality</text><line style="stroke:#181818;stroke-width:0.5;" x1="683" x2="757" y1="118" y2="118"/><text fill="#000000" font-family="sans-serif" font-size="14" lengthAdjust="spacing" textLength="40" x="688" y="136.5332">1, 2, 3</text><line style="stroke:#181818;stroke-width:0.5;" x1="683" x2="757" y1="143.6094" y2="143.6094"/></g><g id="elem_GMN17"><path d="M609.5,397 L609.5,456.0547 A0,0 0 0 0 609.5,456.0547 L930.5,456.0547 A0,0 0 0 0 930.5,456.0547 L930.5,407 L920.5,397 L769.33,397 L725.26,152.12 L761.33,397 L609.5,397 A0,0 0 0 0 609.5,397 " fill="#FEFFDD" style="stroke:#181818;stroke-width:0.5;"/><path d="M920.5,397 L920.5,407 L930.5,407 L920.5,397 " fill="#FEFFDD" style="stroke:#181818;stroke-width:0.5;"/><text fill="#000000" font-family="sans-serif" font-size="13" lengthAdjust="spacing" textLength="200" x="615.5" y="415.4951">1 (t&#432;&#417;ng &#273;&#432;&#417;ng b&#7857;ng B) l&#225;i &#273;c car</text><text fill="#000000" font-family="sans-serif" font-size="13" lengthAdjust="spacing" textLength="261" x="615.5" y="431.8467">2 (t&#432;&#417;ng &#273;&#432;&#417;ng b&#7857;ng C) l&#225;i &#273;c truck, (v&#224; car)</text><text fill="#000000" font-family="sans-serif" font-size="13" lengthAdjust="spacing" textLength="300" x="615.5" y="448.1982">3 (t&#432;&#417;ng &#273;&#432;&#417;ng b&#7857;ng D) l&#225;i &#273;c coach (v&#224; car, truck)</text></g><!--reverse link Transportation to Truck--><g id="link_Transportation_Truck"><path codeLine="98" d="M347,891 C347,891 353.92,945.14 358.03,977.28 " fill="none" id="Transportation-backto-Truck" style="stroke:#181818;stroke-width:1.0;"/></g><!--reverse link Transportation to Car--><g id="link_Transportation_Car"><path codeLine="99" d="M347,891 C347,891 305.97,945.14 281.6,977.28 " fill="none" id="Transportation-backto-Car" style="stroke:#181818;stroke-width:1.0;"/></g><!--reverse link Transportation to Coach--><g id="link_Transportation_Coach"><path codeLine="100" d="M347,891 C347,891 383.72,924.27 413,951 C422.39,959.57 432.69,969 441.75,977.31 " fill="none" id="Transportation-backto-Coach" style="stroke:#181818;stroke-width:1.0;"/></g><!--reverse link Transportation to Container--><g id="link_Transportation_Container"><path codeLine="101" d="M347,891 C347,891 272.74,918.45 219,951 C206.14,958.79 192.79,968.61 181.55,977.45 " fill="none" id="Transportation-backto-Container" style="stroke:#181818;stroke-width:1.0;"/></g><!--link Transportation to WarrantyService--><g id="link_Transportation_WarrantyService"><path codeLine="102" d="M493.59,767 C507.68,767 521.77,767 535.86,767 " fill="none" id="Transportation-WarrantyService" style="stroke:#181818;stroke-width:1.0;"/></g><!--link Driver to Quality--><g id="link_Driver_Quality"><path codeLine="103" d="M597.24,119 C625.37,119 653.51,119 681.64,119 " fill="none" id="Driver-Quality" style="stroke:#181818;stroke-width:1.0;"/></g><!--link Driver to Journey--><g id="link_Driver_Journey"><path codeLine="104" d="M404.81,215.41 C364.75,255.15 327.0902,292.4998 288.1002,331.1698 " fill="none" id="Driver-to-Journey" style="stroke:#181818;stroke-width:1.0;"/><polygon fill="#181818" points="279.58,339.62,286.6568,338.2349,288.1002,331.1698,281.0233,332.5548,279.58,339.62" style="stroke:#181818;stroke-width:1.0;"/><text fill="#000000" font-family="sans-serif" font-size="13" lengthAdjust="spacing" textLength="7" x="389.866" y="219.9606">1</text><text fill="#000000" font-family="sans-serif" font-size="13" lengthAdjust="spacing" textLength="20" x="287.578" y="329.2524">0..*</text></g><!--link Transportation to VehicleStatus--><g id="link_Transportation_VehicleStatus"><path codeLine="105" d="M493.53,885.27 C516.92,908.41 540.25,931.49 559.82,950.85 " fill="none" id="Transportation-VehicleStatus" style="stroke:#181818;stroke-width:1.0;"/></g><!--link Admin to Transportation--><g id="link_Admin_Transportation"><path codeLine="106" d="M454.19,544.47 C442.71,576.57 432.2583,605.8097 420.6883,638.1997 " fill="none" id="Admin-to-Transportation" style="stroke:#181818;stroke-width:1.0;stroke-dasharray:7.0,7.0;"/><polygon fill="#181818" points="418.67,643.85,425.4644,636.7201,420.352,639.1414,417.9306,634.0289,418.67,643.85" style="stroke:#181818;stroke-width:1.0;"/><text fill="#000000" font-family="sans-serif" font-size="13" lengthAdjust="spacing" textLength="219" x="443" y="588.4951">Adds &amp; Updates &amp; Assign for Journey</text></g><!--reverse link Driver to Admin--><g id="link_Driver_Admin"><path codeLine="107" d="M499.0826,237.1592 C498.6726,262.4092 498.33,283.3 497.91,308.77 " fill="none" id="Driver-backto-Admin" style="stroke:#181818;stroke-width:1.0;stroke-dasharray:7.0,7.0;"/><polygon fill="#181818" points="499.18,231.16,495.0344,240.0939,499.0988,236.1593,503.0334,240.2238,499.18,231.16" style="stroke:#181818;stroke-width:1.0;"/><text fill="#000000" font-family="sans-serif" font-size="13" lengthAdjust="spacing" textLength="227" x="499" y="275.4951">Adds &amp; Journey assignment &amp; Observe</text></g><!--reverse link Journey to Admin--><g id="link_Journey_Admin"><path codeLine="108" d="M285.83,426.5 C329.37,426.5 375.69,426.5 417.95,426.5 " fill="none" id="Journey-backto-Admin" style="stroke:#181818;stroke-width:1.0;stroke-dasharray:7.0,7.0;"/><polygon fill="#181818" points="279.83,426.5,288.83,430.5,284.83,426.5,288.83,422.5,279.83,426.5" style="stroke:#181818;stroke-width:1.0;"/><text fill="#000000" font-family="sans-serif" font-size="13" lengthAdjust="spacing" textLength="102" x="297.75" y="419.9951">Create &amp; Observe</text></g><!--reverse link Journey to Transportation--><g id="link_Journey_Transportation"><path codeLine="109" d="M253.5346,540.0881 C272.9046,576.0981 289.19,606.4 309.35,643.9 " fill="none" id="Journey-backto-Transportation" style="stroke:#181818;stroke-width:1.0;"/><polygon fill="#181818" points="247.85,529.52,247.1696,536.6989,253.5346,540.0881,254.215,532.9092,247.85,529.52" style="stroke:#181818;stroke-width:1.0;"/></g><!--SRC=[bLPDRzCm6BxdLxmQ4bf7WzXsYwP9fMDYC3RGDZWW3gxZDbOJEtASZL8uSEBCBs0J1wxZoev3-n_z9xo9xJJrEX0zrCdpl1z-FzjYp4LE5CbWf6IPxuc4AQw9e0msWo0dT4n638uL4KKkbIQQIx5Bg9Pg0bjRkpADcThUdWO1u8Ucf2WyuMdDL9zxm8MEe4_GAjSJ7p_Y7rWBAxJYOXJ1yIHdXyFTagKjyZLBE4tP4Ree2rIjpoNA-vmoKImp-nWl6JVu0tX3529wSiJKAIf53T2IUIPB9TWaSWzxefyGDM8jaHrUv2b1PYXNEpN-gPsQlXIQSC7K5609IzJqDdgiIZgUBhD5Q0AEGCh0NY263s4WPHh1Nh4GLWWxHBDZdhNYhTuyyksxEVsKcpml2xN1Mi9Leo2DrmkOABF5ofdBhKVGevgV6hSR4Pm8RAeNcASgLuGQV3E20wcju2SRx8x2D-LYTBKz84q83dgPIC4Eocp0bCVqubYnel1HIcKfj6y5VPv95TjeNvKanKQEwckWm9FtEGuF4_R6_sYOs_G-fkiloUtBB4-PPbPwjGFpgblCPM9n12ENTLVNEckHFHSk5K8ioq6A_V2Sfp9ZsaDVAaxzt68jbTwNjFRbSKz4x35crkS3EvTjEiyF7wCKKZFGCWSvTB46Tlg3Hn7GvEQImE-liwiV-CrdLvzB6EFnHS0ucLrzuv1Sduka2-kGNfyRmIvis9Vhxv18v47NKjYeCLGENN9xSSO5RhiZl2OMG8fguVrtluIX3Guxxe2TsP8qrJMeAOa_JxwiXMlXje6cC-mz-YIj2pPleOJHyQvKRa0NYJr1iUGcuVMmsWQtOue9w-AFWgl6G6ejiweWLYnOXrLzStbp8KQOLFimcFtwYSVZ3kRwWYDEWH85mSRTilsMhAwMNnTMJx5GgDS9Dk_Mssdxg9UZK-iQEvrMPHSd1BO-Xg7Pj4iPtCpByShD7OpTz3uRAZvATEZlwS1Klg5TJYsyihuInl9CX6kmykZXmxKLDmGB-nJ2ClU7Fp3TMsk_ZKcHiFXTk7rhGs3t570VJl8Obtxrr2iAFX8mbAePE6ifPKFTikIsYRLWXO7K-XaJ6i73GO5Xii2HMoRCneePCVnle1YwRoduoQjyXslMp1y0]--></g></svg>